<svg width="24" height="24" viewBox="0 0 24 24" fill="none" xmlns="http://www.w3.org/2000/svg">
<path d="M10.5825 11.5204C10.9146 11.3534 11.1656 11.1673 11.3376 10.9663C11.6436 10.6043 11.7946 10.1243 11.7946 9.52921C11.7946 8.95016 11.6436 8.45512 11.3416 8.04008C10.8376 7.36403 9.98448 7.018 8.77839 7H4V16.7538H8.45536C8.9574 16.7538 9.42244 16.7108 9.85247 16.6228C10.2825 16.5338 10.6545 16.3708 10.9696 16.1327C11.2496 15.9257 11.4836 15.6687 11.6696 15.3657C11.9636 14.9076 12.1107 14.3886 12.1107 13.8106C12.1107 13.2505 11.9816 12.7735 11.7256 12.3814C11.4666 11.9894 11.0866 11.7024 10.5825 11.5204ZM5.97116 8.69414H8.12333C8.59637 8.69414 8.9864 8.74514 9.29243 8.84615C9.64646 8.99316 9.82347 9.29219 9.82347 9.74822C9.82347 10.1573 9.68846 10.4433 9.42144 10.6043C9.15242 10.7653 8.80339 10.8463 8.37535 10.8463H5.97116V8.69414ZM9.37444 14.8896C9.13642 15.0046 8.80139 15.0617 8.37235 15.0617H5.97116V12.4604H8.40536C8.82939 12.4634 9.15942 12.5194 9.39544 12.6245C9.81547 12.8145 10.0245 13.1625 10.0245 13.6715C10.0245 14.2716 9.80847 14.6756 9.37444 14.8896Z" fill="#000000"/>
<path d="M18.4622 7.45504H14.2249V8.66914H18.4622V7.45504Z" fill="#000000"/>
<path d="M19.9344 12.2464C19.8464 11.6814 19.6524 11.1843 19.3504 10.7553C19.0193 10.2693 18.5993 9.91324 18.0883 9.68822C17.5792 9.4622 17.0062 9.34919 16.3681 9.35019C15.297 9.35019 14.427 9.68522 13.7539 10.3503C13.0829 11.0173 12.7468 11.9764 12.7468 13.2265C12.7468 14.5596 13.1179 15.5227 13.8639 16.1137C14.607 16.7058 15.465 17.0008 16.4391 17.0008C17.6182 17.0008 18.5353 16.6498 19.1903 15.9497C19.6094 15.5077 19.8464 15.0727 19.8984 14.6456H17.9462C17.8332 14.8566 17.7022 15.0217 17.5522 15.1417C17.2802 15.3617 16.9262 15.4717 16.4921 15.4717C16.0791 15.4717 15.7291 15.3807 15.437 15.1997C14.955 14.9096 14.703 14.4016 14.671 13.6785H19.9984C20.0064 13.0555 19.9864 12.5765 19.9344 12.2464ZM14.719 12.4334C14.789 11.9644 14.959 11.5924 15.229 11.3174C15.499 11.0433 15.8811 10.9053 16.3701 10.9043C16.8212 10.9043 17.1982 11.0333 17.5052 11.2923C17.8082 11.5534 17.9792 11.9324 18.0143 12.4334H14.719Z" fill="#000000"/>
</svg>
