<svg width="40" height="40" viewBox="0 0 40 40" fill="none" xmlns="http://www.w3.org/2000/svg">
<path d="M13.6172 8.35464C13.4567 8.35464 13.3163 8.31453 13.196 8.23431C13.0757 8.13404 13.0155 7.9736 13.0155 7.753V5.49683C13.0155 5.01551 13.2461 4.61441 13.7074 4.29354C14.1687 3.95261 14.7603 3.69189 15.4823 3.5114C16.2042 3.33091 16.9663 3.20055 17.7685 3.12033C18.5908 3.04011 19.3428 3 20.0247 3C20.7065 3 21.4486 3.04011 22.2508 3.12033C23.073 3.20055 23.8451 3.34093 24.5671 3.54148C25.2891 3.72197 25.8807 3.97266 26.342 4.29354C26.8233 4.61441 27.0639 5.01551 27.0639 5.49683V7.753C27.0639 8.1541 26.8233 8.35464 26.342 8.35464H26.2818C26.4222 8.23431 26.4924 8.0839 26.4924 7.90341C26.4924 7.48226 26.2818 7.1313 25.8606 6.85053C25.4595 6.56976 24.9281 6.35919 24.2663 6.2188C23.6245 6.05836 22.9226 5.94806 22.1605 5.8879C21.4185 5.80768 20.7065 5.76757 20.0247 5.76757C19.3428 5.76757 18.6208 5.80768 17.8588 5.8879C17.0967 5.94806 16.3847 6.06839 15.7229 6.24888C15.0812 6.40932 14.5497 6.62993 14.1286 6.91069C13.7275 7.17141 13.5269 7.50231 13.5269 7.90341C13.5269 8.0839 13.6272 8.23431 13.8277 8.35464H13.6172ZM23.9354 37.4743C22.5516 37.4743 21.8597 36.4916 21.8597 34.5262C21.8597 34.1853 21.8697 33.6939 21.8898 33.0522C21.9299 32.4104 21.9499 31.7787 21.9499 31.157C21.9499 30.6757 21.9399 30.2044 21.9199 29.7431C21.8998 29.2819 21.8697 28.8306 21.8296 28.3894C21.3684 28.7103 20.7868 28.8707 20.0848 28.8707C19.1824 28.8707 18.5406 28.4396 18.1596 27.5772C18.0392 27.2964 17.8888 27.1561 17.7083 27.1561C17.5479 27.1561 17.3474 27.2062 17.1067 27.3065C16.8861 27.4067 16.6354 27.4569 16.3546 27.4569C15.3118 27.4569 14.6199 26.9655 14.279 25.9828C14.2389 25.8425 14.1787 25.7622 14.0985 25.7422C14.0383 25.7021 13.8979 25.682 13.6773 25.682C12.7749 25.682 12.103 25.2609 11.6618 24.4186C11.2206 23.5763 11 22.363 11 20.7786C11 19.6756 11.1003 18.5124 11.3008 17.2891C11.5214 16.0657 11.8523 14.8725 12.2935 13.7093C12.7548 12.526 13.3264 11.4832 14.0082 10.5807V8.38473C15.1514 7.30176 17.227 6.76028 20.2353 6.76028C20.9973 6.76028 21.7494 6.83047 22.4914 6.97086C23.2535 7.11124 23.9454 7.30176 24.5671 7.54242C25.1888 7.76302 25.6701 8.03377 26.011 8.35464C26.0311 8.3747 26.0311 8.49503 26.011 8.71563C25.991 8.93623 25.9709 9.17689 25.9509 9.4376C25.9509 9.67826 25.9509 9.87881 25.9509 10.0393C25.9509 10.3802 25.9709 10.681 26.011 10.9417C26.0712 11.2024 26.2016 11.5033 26.4021 11.8442C26.6027 12.1651 26.9235 12.6163 27.3648 13.1979C28.1068 14.1204 28.6182 14.9427 28.8989 15.6646C29.1797 16.3666 29.3201 17.1687 29.3201 18.0712C29.3201 20.1369 29.0594 21.8114 28.538 23.095C28.2772 23.7568 28.0667 24.3384 27.9062 24.8397C27.7458 25.3411 27.6255 25.7322 27.5452 26.0129C27.465 26.3739 27.3146 26.6948 27.094 26.9756C27.074 27.4168 27.0439 27.858 27.0038 28.2992C26.9637 28.7203 26.9235 29.1515 26.8834 29.5927C26.8032 30.2746 26.713 31.0166 26.6127 31.8188C26.5325 32.621 26.4523 33.3329 26.372 33.9546C26.2317 35.178 25.9709 36.0704 25.5899 36.632C25.2089 37.1935 24.6573 37.4743 23.9354 37.4743ZM25.7704 26.4942H26.0712V26.4642C26.1113 26.4642 26.1815 26.3839 26.2818 26.2235C26.3821 26.0631 26.4523 25.9026 26.4924 25.7422C26.5726 25.4614 26.6929 25.0503 26.8534 24.5088C27.0338 23.9673 27.2645 23.3557 27.5452 22.6738C28.0065 21.5307 28.2371 19.9965 28.2371 18.0712C28.2371 17.2891 28.1168 16.6072 27.8761 16.0256C27.6355 15.424 27.1742 14.702 26.4924 13.8597C26.0311 13.2581 25.6801 12.7667 25.4395 12.3857C25.1988 11.9846 25.0384 11.6035 24.9582 11.2425C24.898 10.8816 24.8679 10.4805 24.8679 10.0393C24.8679 9.87881 24.8679 9.69832 24.8679 9.49777C24.888 9.27717 24.908 9.07662 24.9281 8.89612C24.4067 8.5953 23.7148 8.34462 22.8524 8.14407C21.9901 7.94352 21.1177 7.84324 20.2353 7.84324C17.8487 7.84324 16.134 8.1942 15.0912 8.89612V10.9417C14.4695 11.6637 13.928 12.5561 13.4667 13.619C13.0055 14.6619 12.6445 15.795 12.3838 17.0183C12.1431 18.2417 12.0228 19.4951 12.0228 20.7786V21.9819C12.103 21.7412 12.2033 21.4605 12.3236 21.1396C12.464 20.7987 12.6545 20.3976 12.8952 19.9363C13.2161 19.3347 13.567 18.7932 13.9481 18.3119C14.3291 17.8306 14.6801 17.4796 15.0009 17.259C15.1614 17.1988 15.3619 17.1687 15.6026 17.1687C15.8031 17.1687 15.9836 17.2089 16.1441 17.2891C16.3246 17.3693 16.475 17.4595 16.5953 17.5598C16.7958 17.1788 16.9864 16.8378 17.1669 16.537C17.3474 16.2161 17.5078 15.9755 17.6482 15.815C17.7485 15.7348 17.8688 15.6646 18.0092 15.6045C18.1696 15.5443 18.3501 15.5042 18.5506 15.4841C18.4704 15.2034 18.4103 14.9126 18.3702 14.6118C18.33 14.3109 18.31 13.9901 18.31 13.6491C18.31 13.1477 18.3601 12.6965 18.4604 12.2954H19.5133C19.4732 12.4559 19.4431 12.6765 19.423 12.9572C19.403 13.2179 19.393 13.4486 19.393 13.6491C19.393 14.0703 19.413 14.4513 19.4531 14.7922C19.5133 15.1131 19.6136 15.4139 19.7539 15.6947C20.2754 15.9955 20.5662 16.4468 20.6263 17.0484C20.9271 16.9481 21.2179 16.898 21.4987 16.898C22.0201 16.898 22.4613 17.0584 22.8223 17.3793C23.2034 17.7002 23.3939 18.1715 23.3939 18.7932C23.3939 19.0138 23.3638 19.2444 23.3036 19.4851C23.2435 19.7057 23.1633 19.9363 23.063 20.177C23.1633 20.2572 23.2736 20.3374 23.3939 20.4176C23.5142 20.4978 23.6446 20.5781 23.785 20.6583C23.9655 19.9764 24.176 19.5152 24.4167 19.2745L25.1387 20.0867C25.0384 20.1669 24.9281 20.4076 24.8078 20.8087C24.7075 21.1897 24.6072 21.641 24.5069 22.1624C24.4067 22.6838 24.3164 23.1952 24.2362 23.6966C24.176 24.198 24.1459 24.5991 24.1459 24.8999C24.1459 25.301 24.2763 25.672 24.537 26.0129C24.7977 26.3338 25.2089 26.4942 25.7704 26.4942ZM16.2343 26.4942C16.475 26.4942 16.7056 26.4742 16.9262 26.4341C17.1468 26.3739 17.3273 26.3138 17.4677 26.2536C17.3674 25.9929 17.3173 25.7221 17.3173 25.4414C17.3173 25.2007 17.3474 24.8698 17.4075 24.4487C17.4677 24.0074 17.5479 23.5362 17.6482 23.0348C17.7485 22.5334 17.8688 22.0722 18.0092 21.651C18.2298 20.9491 18.4905 20.2873 18.7913 19.6656C19.0921 19.0439 19.393 18.4924 19.6938 18.011C19.794 17.7503 19.8442 17.5297 19.8442 17.3492C19.8442 17.0685 19.7439 16.8579 19.5434 16.7175C19.3428 16.5571 19.1122 16.4769 18.8515 16.4769C18.6108 16.4769 18.3802 16.547 18.1596 16.6874C18.0192 16.8679 17.8287 17.1888 17.588 17.6501C17.3474 18.0913 17.0967 18.5826 16.836 19.1241C16.5953 19.6455 16.3847 20.1268 16.2042 20.568C15.8633 21.4505 15.5825 22.2326 15.3619 22.9145C15.1614 23.5963 15.0611 24.2281 15.0611 24.8096C15.0611 25.2709 15.1514 25.672 15.3318 26.0129C15.5123 26.3338 15.8132 26.4942 16.2343 26.4942ZM19.9946 27.7878C20.3556 27.7878 20.6965 27.7477 21.0174 27.6675C21.3583 27.5872 21.6391 27.4067 21.8597 27.126C21.8798 27.0257 21.8898 26.9355 21.8898 26.8552C21.8898 26.755 21.8898 26.6647 21.8898 26.5845C21.8898 26.0029 21.7795 25.6118 21.5589 25.4113C21.3583 25.2107 21.0575 25.1105 20.6564 25.1105C20.7567 24.1278 20.8971 23.3356 21.0776 22.734C21.2781 22.1123 21.4787 21.5206 21.6792 20.9591C21.7995 20.5781 21.96 20.197 22.1605 19.816C22.3611 19.4149 22.4413 19.0539 22.4012 18.733C22.3811 18.5726 22.3109 18.4021 22.1906 18.2216C22.0903 18.0411 21.8998 17.9509 21.619 17.9509C21.4987 17.9509 21.3583 17.981 21.1979 18.0411C21.0374 18.0812 20.9372 18.1113 20.8971 18.1314C20.6765 18.4121 20.3957 18.8534 20.0548 19.455C19.7138 20.0366 19.3729 20.8187 19.032 21.8014C18.8314 22.383 18.671 23.0147 18.5506 23.6966C18.4504 24.3584 18.4002 24.8899 18.4002 25.291C18.4002 25.7121 18.6208 26.2837 19.062 27.0056C19.2826 27.3265 19.4431 27.5371 19.5434 27.6374C19.6436 27.7376 19.794 27.7878 19.9946 27.7878ZM13.9481 24.7796C14.0283 24.7796 14.0884 24.7695 14.1286 24.7495V24.5389C14.1286 23.7167 14.2689 22.9445 14.5497 22.2226C14.8505 21.4805 15.1112 20.8288 15.3318 20.2672C15.4321 20.0266 15.5524 19.7558 15.6928 19.455C15.8332 19.1542 15.9736 18.8534 16.114 18.5525C15.9134 18.352 15.6628 18.2317 15.3619 18.1915C15.1413 18.352 14.8806 18.6127 14.5798 18.9737C14.299 19.3347 14.0483 19.7157 13.8277 20.1168C13.6272 20.4778 13.4467 20.8187 13.2863 21.1396C13.1258 21.4404 12.9955 21.7814 12.8952 22.1624C12.7949 22.5434 12.7448 23.0448 12.7448 23.6665C12.7448 24.1478 12.8852 24.4587 13.1659 24.5991C13.4667 24.7194 13.7275 24.7796 13.9481 24.7796ZM23.9354 36.3913C24.3164 36.3913 24.5972 36.2008 24.7777 35.8197C24.9782 35.4588 25.1487 34.7869 25.2891 33.8042C25.3893 33.2026 25.4796 32.5107 25.5598 31.7286C25.64 30.9464 25.7203 30.1843 25.8005 29.4423C25.8406 29.1615 25.8707 28.8607 25.8907 28.5398C25.9108 28.219 25.9308 27.8881 25.9509 27.5471H25.8005C24.9381 27.5471 24.2663 27.2864 23.785 26.765C23.3036 26.2436 23.063 25.6419 23.063 24.9601C23.063 24.559 23.1031 24.0676 23.1833 23.486C23.2635 22.8844 23.3738 22.2928 23.5142 21.7112C23.3738 21.6309 23.2335 21.5507 23.0931 21.4705C22.9527 21.3702 22.8123 21.28 22.6719 21.1998V21.2299C22.5917 21.4906 22.4613 21.8616 22.2808 22.3429C22.1204 22.8242 21.98 23.4559 21.8597 24.2381C22.2207 24.3384 22.4914 24.579 22.6719 24.9601C22.8524 25.3411 22.9427 25.7522 22.9427 26.1934C22.9427 26.4541 22.9326 26.6747 22.9126 26.8552C22.9126 27.0157 22.8925 27.1661 22.8524 27.3065C22.8925 27.9081 22.9326 28.5599 22.9727 29.2618C23.0129 29.9437 23.0329 30.5754 23.0329 31.157C23.0329 31.7988 23.0129 32.4405 22.9727 33.0823C22.9527 33.704 22.9427 34.1853 22.9427 34.5262C22.9427 35.2482 23.0229 35.7395 23.1833 36.0002C23.3438 36.261 23.5944 36.3913 23.9354 36.3913Z" fill="#000000"/>
</svg>
