<svg width="180" height="180" viewBox="0 0 180 180" fill="none" xmlns="http://www.w3.org/2000/svg">
<path d="M63.5294 2.30176C63.7596 2.30176 63.9897 2.07158 63.9897 1.8414C63.9897 1.61122 63.7596 1.38104 63.5294 1.38104C63.2992 1.38104 63.069 1.61122 63.069 1.8414C63.069 2.07158 63.2992 2.30176 63.5294 2.30176Z" fill="#F4F4F4"/>
<path d="M72.2762 2.99225C73.1969 2.99225 73.6573 2.30171 73.6573 1.61118C73.6573 0.92064 73.1969 0.230103 72.2762 0.230103C71.3555 0.230103 70.8951 0.690461 70.8951 1.61118C71.1253 2.30171 71.5856 2.99225 72.2762 2.99225Z" fill="#F4F4F4"/>
<path d="M81.2532 3.22251C82.1739 3.22251 82.8645 2.53197 82.8645 1.61125C82.8645 0.690537 82.1739 0 81.2532 0C80.3325 0 79.642 0.690537 79.642 1.61125C79.642 2.53197 80.3325 3.22251 81.2532 3.22251Z" fill="#F4F4F4"/>
<path d="M90 3.22251C90.9207 3.22251 91.6112 2.53197 91.6112 1.61125C91.6112 0.690537 90.9207 0 90 0C89.0793 0 88.3887 0.690537 88.3887 1.61125C88.3887 2.53197 89.0793 3.22251 90 3.22251Z" fill="#F4F4F4"/>
<path d="M98.977 3.22251C99.8977 3.22251 100.588 2.53197 100.588 1.61125C100.588 0.690537 99.8977 0 98.977 0C98.0563 0 97.3657 0.690537 97.3657 1.61125C97.3657 2.53197 98.0563 3.22251 98.977 3.22251Z" fill="#F4F4F4"/>
<path d="M107.724 2.99225C108.414 2.99225 109.105 2.30171 109.105 1.61118C109.105 0.92064 108.414 0.230103 107.724 0.230103C107.033 0.230103 106.343 0.92064 106.343 1.61118C106.343 2.30171 107.033 2.99225 107.724 2.99225Z" fill="#F4F4F4"/>
<path d="M116.471 2.30176C116.701 2.30176 116.931 2.07158 116.931 1.8414C116.931 1.61122 116.701 1.38104 116.471 1.38104C116.24 1.38104 116.01 1.61122 116.01 1.8414C116.01 2.07158 116.24 2.30176 116.471 2.30176Z" fill="#F4F4F4"/>
<path d="M45.8056 11.509C46.266 11.509 46.7263 11.0486 46.7263 10.5883C46.7263 10.1279 46.266 9.66754 45.8056 9.66754C45.3453 9.66754 44.8849 10.1279 44.8849 10.5883C44.8849 11.0486 45.3453 11.509 45.8056 11.509Z" fill="#F4F4F4"/>
<path d="M54.7826 12.89C56.1637 12.89 57.0844 11.7391 57.0844 10.5882C57.0844 9.20709 55.9335 8.28638 54.7826 8.28638C53.6317 8.28638 52.4808 9.43727 52.4808 10.5882C52.4808 11.7391 53.4015 12.89 54.7826 12.89Z" fill="#F4F4F4"/>
<path d="M63.5294 13.3504C65.1406 13.3504 66.5217 11.9694 66.5217 10.3581C66.5217 8.74686 65.1406 7.36578 63.5294 7.36578C61.9181 7.36578 60.537 8.74686 60.537 10.3581C60.537 11.9694 61.9181 13.3504 63.5294 13.3504Z" fill="#F4F4F4"/>
<path d="M72.2762 7.59589C70.665 7.59589 69.2839 8.97696 69.2839 10.5882C69.2839 12.1995 70.665 13.5805 72.2762 13.5805C73.8875 13.5805 75.2686 12.1995 75.2686 10.5882C75.2686 8.97696 74.1177 7.59589 72.2762 7.59589Z" fill="#F4F4F4"/>
<path d="M81.2532 7.59589C79.6419 7.59589 78.2609 8.97696 78.2609 10.5882C78.2609 12.1995 79.6419 13.5805 81.2532 13.5805C82.8644 13.5805 84.2455 12.1995 84.2455 10.5882C84.2455 8.97696 82.8644 7.59589 81.2532 7.59589Z" fill="#F4F4F4"/>
<path d="M90 7.59589C88.3887 7.59589 87.0077 8.97696 87.0077 10.5882C87.0077 12.1995 88.3887 13.5805 90 13.5805C91.6112 13.5805 92.9923 12.1995 92.9923 10.5882C92.9923 8.97696 91.6112 7.59589 90 7.59589Z" fill="#F4F4F4"/>
<path d="M98.977 7.59589C97.3658 7.59589 95.9847 8.97696 95.9847 10.5882C95.9847 12.1995 97.3658 13.5805 98.977 13.5805C100.588 13.5805 101.969 12.1995 101.969 10.5882C101.969 8.97696 100.588 7.59589 98.977 7.59589Z" fill="#F4F4F4"/>
<path d="M107.724 7.59589C106.113 7.59589 104.731 8.97696 104.731 10.5882C104.731 12.1995 106.113 13.5805 107.724 13.5805C109.335 13.5805 110.716 12.1995 110.716 10.5882C110.716 8.97696 109.335 7.59589 107.724 7.59589Z" fill="#F4F4F4"/>
<path d="M116.471 13.3504C118.082 13.3504 119.463 11.9694 119.463 10.3581C119.463 8.74686 118.082 7.36578 116.471 7.36578C114.859 7.36578 113.478 8.74686 113.478 10.3581C113.478 11.9694 114.859 13.3504 116.471 13.3504Z" fill="#F4F4F4"/>
<path d="M125.448 12.6599C126.829 12.6599 127.749 11.509 127.749 10.3581C127.749 9.20717 126.598 8.05627 125.448 8.05627C124.297 8.05627 123.146 8.97699 123.146 10.3581C123.146 11.7391 124.066 12.6599 125.448 12.6599Z" fill="#F4F4F4"/>
<path d="M134.194 11.509C134.655 11.509 135.115 11.0486 135.115 10.5883C135.115 10.1279 134.655 9.66754 134.194 9.66754C133.734 9.66754 133.274 10.1279 133.274 10.5883C133.274 11.0486 133.734 11.509 134.194 11.509Z" fill="#F4F4F4"/>
<path d="M37.0588 21.1764C38.2097 21.1764 38.9002 20.2557 38.9002 19.335C38.9002 18.1841 37.9795 17.4935 37.0588 17.4935C35.9079 17.4935 35.2174 18.4142 35.2174 19.335C35.2174 20.4859 35.9079 21.1764 37.0588 21.1764Z" fill="#F4F4F4"/>
<path d="M45.8056 16.3427C44.1944 16.3427 42.8133 17.7237 42.8133 19.335C42.8133 20.9462 44.1944 22.3273 45.8056 22.3273C47.4169 22.3273 48.798 20.9462 48.798 19.335C48.798 17.7237 47.4169 16.3427 45.8056 16.3427Z" fill="#F4F4F4"/>
<path d="M54.7826 16.3427C53.1714 16.3427 51.7903 17.7237 51.7903 19.335C51.7903 20.9462 53.1714 22.3273 54.7826 22.3273C56.3939 22.3273 57.7749 20.9462 57.7749 19.335C57.5448 17.7237 56.3939 16.3427 54.7826 16.3427Z" fill="#F4F4F4"/>
<path d="M63.5294 16.3427C61.9181 16.3427 60.537 17.7237 60.537 19.335C60.537 20.9462 61.9181 22.3273 63.5294 22.3273C65.1406 22.3273 66.5217 20.9462 66.5217 19.335C66.5217 17.7237 65.1406 16.3427 63.5294 16.3427Z" fill="#F4F4F4"/>
<path d="M72.2762 16.3427C70.665 16.3427 69.2839 17.7237 69.2839 19.335C69.2839 20.9462 70.665 22.3273 72.2762 22.3273C73.8875 22.3273 75.2686 20.9462 75.2686 19.335C75.2686 17.7237 74.1177 16.3427 72.2762 16.3427Z" fill="#F4F4F4"/>
<path d="M81.2532 16.3427C79.6419 16.3427 78.2609 17.7237 78.2609 19.335C78.2609 20.9462 79.6419 22.3273 81.2532 22.3273C82.8644 22.3273 84.2455 20.9462 84.2455 19.335C84.2455 17.7237 82.8644 16.3427 81.2532 16.3427Z" fill="#F4F4F4"/>
<path d="M90 16.3427C88.3887 16.3427 87.0077 17.7237 87.0077 19.335C87.0077 20.9462 88.3887 22.3273 90 22.3273C91.6112 22.3273 92.9923 20.9462 92.9923 19.335C92.9923 17.7237 91.6112 16.3427 90 16.3427Z" fill="#F4F4F4"/>
<path d="M98.977 16.3427C97.3658 16.3427 95.9847 17.7237 95.9847 19.335C95.9847 20.9462 97.3658 22.3273 98.977 22.3273C100.588 22.3273 101.969 20.9462 101.969 19.335C101.739 17.7237 100.588 16.3427 98.977 16.3427Z" fill="#F4F4F4"/>
<path d="M107.724 16.3427C106.113 16.3427 104.731 17.7237 104.731 19.335C104.731 20.9462 106.113 22.3273 107.724 22.3273C109.335 22.3273 110.716 20.9462 110.716 19.335C110.716 17.7237 109.335 16.3427 107.724 16.3427Z" fill="#F4F4F4"/>
<path d="M116.471 16.3427C114.859 16.3427 113.478 17.7237 113.478 19.335C113.478 20.9462 114.859 22.3273 116.471 22.3273C118.082 22.3273 119.463 20.9462 119.463 19.335C119.463 17.7237 118.312 16.3427 116.471 16.3427Z" fill="#F4F4F4"/>
<path d="M125.448 16.3427C123.836 16.3427 122.455 17.7237 122.455 19.335C122.455 20.9462 123.836 22.3273 125.448 22.3273C127.059 22.3273 128.44 20.9462 128.44 19.335C128.44 17.7237 127.059 16.3427 125.448 16.3427Z" fill="#F4F4F4"/>
<path d="M134.194 22.3273C135.806 22.3273 137.187 20.9462 137.187 19.335C137.187 17.7237 135.806 16.3427 134.194 16.3427C132.583 16.3427 131.202 17.7237 131.202 19.335C131.202 20.9462 132.583 22.3273 134.194 22.3273Z" fill="#F4F4F4"/>
<path d="M143.171 21.1764C144.322 21.1764 145.013 20.4859 145.013 19.335C145.013 18.1841 144.322 17.4935 143.171 17.4935C142.02 17.4935 141.33 18.1841 141.33 19.335C141.33 20.4859 142.251 21.1764 143.171 21.1764Z" fill="#F4F4F4"/>
<path d="M28.0819 30.3837C29.2328 30.3837 30.3837 29.463 30.3837 28.0819C30.3837 26.7008 29.463 25.7801 28.0819 25.7801C26.7008 25.7801 25.7801 26.7008 25.7801 28.0819C25.7801 29.463 26.931 30.3837 28.0819 30.3837Z" fill="#F4F4F4"/>
<path d="M37.0588 25.3197C35.4475 25.3197 34.0665 26.7008 34.0665 28.312C34.0665 29.9233 35.4475 31.3044 37.0588 31.3044C38.67 31.3044 40.0511 29.9233 40.0511 28.312C40.0511 26.4706 38.67 25.3197 37.0588 25.3197Z" fill="#F4F4F4"/>
<path d="M45.8056 25.3197C44.1944 25.3197 42.8133 26.7008 42.8133 28.312C42.8133 29.9233 44.1944 31.3044 45.8056 31.3044C47.4169 31.3044 48.798 29.9233 48.798 28.312C48.798 26.4706 47.4169 25.3197 45.8056 25.3197Z" fill="#F4F4F4"/>
<path d="M54.7826 25.3197C53.1714 25.3197 51.7903 26.7008 51.7903 28.312C51.7903 29.9233 53.1714 31.3044 54.7826 31.3044C56.3939 31.3044 57.7749 29.9233 57.7749 28.312C57.5448 26.4706 56.3939 25.3197 54.7826 25.3197Z" fill="#F4F4F4"/>
<path d="M63.5294 25.3197C61.9181 25.3197 60.537 26.7008 60.537 28.312C60.537 29.9233 61.9181 31.3044 63.5294 31.3044C65.1406 31.3044 66.5217 29.9233 66.5217 28.312C66.5217 26.4706 65.1406 25.3197 63.5294 25.3197Z" fill="#F4F4F4"/>
<path d="M72.2762 25.3197C70.665 25.3197 69.2839 26.7008 69.2839 28.312C69.2839 29.9233 70.665 31.3044 72.2762 31.3044C73.8875 31.3044 75.2686 29.9233 75.2686 28.312C75.2686 26.4706 74.1177 25.3197 72.2762 25.3197Z" fill="#F4F4F4"/>
<path d="M81.2532 25.3197C79.6419 25.3197 78.2609 26.7008 78.2609 28.312C78.2609 29.9233 79.6419 31.3044 81.2532 31.3044C82.8644 31.3044 84.2455 29.9233 84.2455 28.312C84.2455 26.4706 82.8644 25.3197 81.2532 25.3197Z" fill="#F4F4F4"/>
<path d="M90 25.3197C88.3887 25.3197 87.0077 26.7008 87.0077 28.312C87.0077 29.9233 88.3887 31.3044 90 31.3044C91.6112 31.3044 92.9923 29.9233 92.9923 28.312C92.9923 26.4706 91.6112 25.3197 90 25.3197Z" fill="#F4F4F4"/>
<path d="M98.977 25.3197C97.3658 25.3197 95.9847 26.7008 95.9847 28.312C95.9847 29.9233 97.3658 31.3044 98.977 31.3044C100.588 31.3044 101.969 29.9233 101.969 28.312C101.739 26.4706 100.588 25.3197 98.977 25.3197Z" fill="#F4F4F4"/>
<path d="M107.724 25.3197C106.113 25.3197 104.731 26.7008 104.731 28.312C104.731 29.9233 106.113 31.3044 107.724 31.3044C109.335 31.3044 110.716 29.9233 110.716 28.312C110.716 26.4706 109.335 25.3197 107.724 25.3197Z" fill="#F4F4F4"/>
<path d="M116.471 25.3197C114.859 25.3197 113.478 26.7008 113.478 28.312C113.478 29.9233 114.859 31.3044 116.471 31.3044C118.082 31.3044 119.463 29.9233 119.463 28.312C119.463 26.4706 118.312 25.3197 116.471 25.3197Z" fill="#F4F4F4"/>
<path d="M125.448 25.3197C123.836 25.3197 122.455 26.7008 122.455 28.312C122.455 29.9233 123.836 31.3044 125.448 31.3044C127.059 31.3044 128.44 29.9233 128.44 28.312C128.44 26.4706 127.059 25.3197 125.448 25.3197Z" fill="#F4F4F4"/>
<path d="M134.194 25.3197C132.583 25.3197 131.202 26.7008 131.202 28.312C131.202 29.9233 132.583 31.3044 134.194 31.3044C135.806 31.3044 137.187 29.9233 137.187 28.312C137.187 26.4706 135.806 25.3197 134.194 25.3197Z" fill="#F4F4F4"/>
<path d="M143.171 25.3197C141.56 25.3197 140.179 26.7008 140.179 28.312C140.179 29.9233 141.56 31.3044 143.171 31.3044C144.783 31.3044 146.164 29.9233 146.164 28.312C145.934 26.4706 144.783 25.3197 143.171 25.3197Z" fill="#F4F4F4"/>
<path d="M151.918 30.3837C153.069 30.3837 154.22 29.463 154.22 28.0819C154.22 26.7008 153.299 25.7801 151.918 25.7801C150.537 25.7801 149.616 26.7008 149.616 28.0819C149.616 29.463 150.767 30.3837 151.918 30.3837Z" fill="#F4F4F4"/>
<path d="M19.3351 38.9002C20.4859 38.9002 21.1765 37.9795 21.1765 37.0588C21.1765 36.1381 20.2558 35.2173 19.3351 35.2173C18.1842 35.2173 17.4936 36.1381 17.4936 37.0588C17.4936 37.9795 18.1842 38.9002 19.3351 38.9002Z" fill="#F4F4F4"/>
<path d="M28.0818 40.0511C29.6931 40.0511 31.0742 38.67 31.0742 37.0588C31.0742 35.4475 29.6931 34.0665 28.0818 34.0665C26.4706 34.0665 25.0895 35.4475 25.0895 37.0588C25.3197 38.67 26.4706 40.0511 28.0818 40.0511Z" fill="#F4F4F4"/>
<path d="M37.0588 34.0665C35.4475 34.0665 34.0665 35.4475 34.0665 37.0588C34.0665 38.67 35.4475 40.0511 37.0588 40.0511C38.67 40.0511 40.0511 38.67 40.0511 37.0588C40.0511 35.4475 38.67 34.0665 37.0588 34.0665Z" fill="#F4F4F4"/>
<path d="M45.8056 34.0665C44.1944 34.0665 42.8133 35.4475 42.8133 37.0588C42.8133 38.67 44.1944 40.0511 45.8056 40.0511C47.4169 40.0511 48.798 38.67 48.798 37.0588C48.798 35.4475 47.4169 34.0665 45.8056 34.0665Z" fill="#F4F4F4"/>
<path d="M54.7826 34.0665C53.1714 34.0665 51.7903 35.4475 51.7903 37.0588C51.7903 38.67 53.1714 40.0511 54.7826 40.0511C56.3939 40.0511 57.7749 38.67 57.7749 37.0588C57.5448 35.4475 56.3939 34.0665 54.7826 34.0665Z" fill="#F4F4F4"/>
<path d="M63.5294 40.0511C65.1406 40.0511 66.5217 38.67 66.5217 37.0588C66.5217 35.4475 65.1406 34.0665 63.5294 34.0665C61.9181 34.0665 60.537 35.4475 60.537 37.0588C60.537 38.67 61.9181 40.0511 63.5294 40.0511Z" fill="#F4F4F4"/>
<path d="M72.2762 40.0511C73.8875 40.0511 75.2686 38.67 75.2686 37.0588C75.2686 35.4475 73.8875 34.0665 72.2762 34.0665C70.665 34.0665 69.2839 35.4475 69.2839 37.0588C69.5141 38.67 70.665 40.0511 72.2762 40.0511Z" fill="#F4F4F4"/>
<path d="M81.2532 34.0665C79.6419 34.0665 78.2609 35.4475 78.2609 37.0588C78.2609 38.67 79.6419 40.0511 81.2532 40.0511C82.8644 40.0511 84.2455 38.67 84.2455 37.0588C84.2455 35.4475 82.8644 34.0665 81.2532 34.0665Z" fill="#F4F4F4"/>
<path d="M90 34.0665C88.3887 34.0665 87.0077 35.4475 87.0077 37.0588C87.0077 38.67 88.3887 40.0511 90 40.0511C91.6112 40.0511 92.9923 38.67 92.9923 37.0588C92.9923 35.4475 91.6112 34.0665 90 34.0665Z" fill="#F4F4F4"/>
<path d="M98.977 34.0665C97.3658 34.0665 95.9847 35.4475 95.9847 37.0588C95.9847 38.67 97.3658 40.0511 98.977 40.0511C100.588 40.0511 101.969 38.67 101.969 37.0588C101.739 35.4475 100.588 34.0665 98.977 34.0665Z" fill="#F4F4F4"/>
<path d="M107.724 40.0511C109.335 40.0511 110.716 38.67 110.716 37.0588C110.716 35.4475 109.335 34.0665 107.724 34.0665C106.113 34.0665 104.731 35.4475 104.731 37.0588C104.731 38.67 106.113 40.0511 107.724 40.0511Z" fill="#F4F4F4"/>
<path d="M116.471 40.0511C118.082 40.0511 119.463 38.67 119.463 37.0588C119.463 35.4475 118.082 34.0665 116.471 34.0665C114.859 34.0665 113.478 35.4475 113.478 37.0588C113.708 38.67 114.859 40.0511 116.471 40.0511Z" fill="#F4F4F4"/>
<path d="M125.448 34.0665C123.836 34.0665 122.455 35.4475 122.455 37.0588C122.455 38.67 123.836 40.0511 125.448 40.0511C127.059 40.0511 128.44 38.67 128.44 37.0588C128.44 35.4475 127.059 34.0665 125.448 34.0665Z" fill="#F4F4F4"/>
<path d="M134.194 34.0665C132.583 34.0665 131.202 35.4475 131.202 37.0588C131.202 38.67 132.583 40.0511 134.194 40.0511C135.806 40.0511 137.187 38.67 137.187 37.0588C137.187 35.4475 135.806 34.0665 134.194 34.0665Z" fill="#F4F4F4"/>
<path d="M143.171 34.0665C141.56 34.0665 140.179 35.4475 140.179 37.0588C140.179 38.67 141.56 40.0511 143.171 40.0511C144.783 40.0511 146.164 38.67 146.164 37.0588C145.934 35.4475 144.783 34.0665 143.171 34.0665Z" fill="#F4F4F4"/>
<path d="M151.918 40.0511C153.529 40.0511 154.911 38.67 154.911 37.0588C154.911 35.4475 153.529 34.0665 151.918 34.0665C150.307 34.0665 148.926 35.4475 148.926 37.0588C148.926 38.67 150.307 40.0511 151.918 40.0511Z" fill="#F4F4F4"/>
<path d="M160.665 38.9002C161.586 38.9002 162.506 37.9795 162.506 37.0588C162.506 36.1381 161.586 35.2173 160.665 35.2173C159.744 35.2173 158.824 36.1381 158.824 37.0588C158.824 37.9795 159.744 38.9002 160.665 38.9002Z" fill="#F4F4F4"/>
<path d="M10.5883 46.7263C11.0486 46.7263 11.509 46.266 11.509 45.8056C11.509 45.3452 11.0486 44.8849 10.5883 44.8849C10.1279 44.8849 9.66754 45.3452 9.66754 45.8056C9.66754 46.4961 9.89772 46.7263 10.5883 46.7263Z" fill="#F4F4F4"/>
<path d="M19.335 48.7979C20.9463 48.7979 22.3274 47.4168 22.3274 45.8056C22.3274 44.1943 20.9463 42.8132 19.335 42.8132C17.7238 42.8132 16.3427 44.1943 16.3427 45.8056C16.3427 47.4168 17.7238 48.7979 19.335 48.7979Z" fill="#F4F4F4"/>
<path d="M28.0818 48.7979C29.6931 48.7979 31.0742 47.4168 31.0742 45.8056C31.0742 44.1943 29.6931 42.8132 28.0818 42.8132C26.4706 42.8132 25.0895 44.1943 25.0895 45.8056C25.3197 47.4168 26.4706 48.7979 28.0818 48.7979Z" fill="#F4F4F4"/>
<path d="M37.0588 42.8132C35.4475 42.8132 34.0665 44.1943 34.0665 45.8056C34.0665 47.4168 35.4475 48.7979 37.0588 48.7979C38.67 48.7979 40.0511 47.4168 40.0511 45.8056C40.0511 44.1943 38.67 42.8132 37.0588 42.8132Z" fill="#F4F4F4"/>
<path d="M45.8056 42.8132C44.1944 42.8132 42.8133 44.1943 42.8133 45.8056C42.8133 47.4168 44.1944 48.7979 45.8056 48.7979C47.4169 48.7979 48.798 47.4168 48.798 45.8056C48.798 44.1943 47.4169 42.8132 45.8056 42.8132Z" fill="#F4F4F4"/>
<path d="M54.7826 42.8132C53.1714 42.8132 51.7903 44.1943 51.7903 45.8056C51.7903 47.4168 53.1714 48.7979 54.7826 48.7979C56.3939 48.7979 57.7749 47.4168 57.7749 45.8056C57.5448 44.1943 56.3939 42.8132 54.7826 42.8132Z" fill="#F4F4F4"/>
<path d="M63.5294 48.7979C65.1406 48.7979 66.5217 47.4168 66.5217 45.8056C66.5217 44.1943 65.1406 42.8132 63.5294 42.8132C61.9181 42.8132 60.537 44.1943 60.537 45.8056C60.537 47.4168 61.9181 48.7979 63.5294 48.7979Z" fill="#F4F4F4"/>
<path d="M72.2762 48.7979C73.8875 48.7979 75.2686 47.4168 75.2686 45.8056C75.2686 44.1943 73.8875 42.8132 72.2762 42.8132C70.665 42.8132 69.2839 44.1943 69.2839 45.8056C69.5141 47.4168 70.665 48.7979 72.2762 48.7979Z" fill="#F4F4F4"/>
<path d="M81.2532 42.8132C79.6419 42.8132 78.2609 44.1943 78.2609 45.8056C78.2609 47.4168 79.6419 48.7979 81.2532 48.7979C82.8644 48.7979 84.2455 47.4168 84.2455 45.8056C84.2455 44.1943 82.8644 42.8132 81.2532 42.8132Z" fill="#F4F4F4"/>
<path d="M90 42.8132C88.3887 42.8132 87.0077 44.1943 87.0077 45.8056C87.0077 47.4168 88.3887 48.7979 90 48.7979C91.6112 48.7979 92.9923 47.4168 92.9923 45.8056C92.9923 44.1943 91.6112 42.8132 90 42.8132Z" fill="#F4F4F4"/>
<path d="M98.977 42.8132C97.3658 42.8132 95.9847 44.1943 95.9847 45.8056C95.9847 47.4168 97.3658 48.7979 98.977 48.7979C100.588 48.7979 101.969 47.4168 101.969 45.8056C101.739 44.1943 100.588 42.8132 98.977 42.8132Z" fill="#F4F4F4"/>
<path d="M107.724 48.7979C109.335 48.7979 110.716 47.4168 110.716 45.8056C110.716 44.1943 109.335 42.8132 107.724 42.8132C106.113 42.8132 104.731 44.1943 104.731 45.8056C104.731 47.4168 106.113 48.7979 107.724 48.7979Z" fill="#F4F4F4"/>
<path d="M116.471 48.7979C118.082 48.7979 119.463 47.4168 119.463 45.8056C119.463 44.1943 118.082 42.8132 116.471 42.8132C114.859 42.8132 113.478 44.1943 113.478 45.8056C113.708 47.4168 114.859 48.7979 116.471 48.7979Z" fill="#F4F4F4"/>
<path d="M125.448 42.8132C123.836 42.8132 122.455 44.1943 122.455 45.8056C122.455 47.4168 123.836 48.7979 125.448 48.7979C127.059 48.7979 128.44 47.4168 128.44 45.8056C128.44 44.1943 127.059 42.8132 125.448 42.8132Z" fill="#F4F4F4"/>
<path d="M134.194 42.8132C132.583 42.8132 131.202 44.1943 131.202 45.8056C131.202 47.4168 132.583 48.7979 134.194 48.7979C135.806 48.7979 137.187 47.4168 137.187 45.8056C137.187 44.1943 135.806 42.8132 134.194 42.8132Z" fill="#F4F4F4"/>
<path d="M143.171 42.8132C141.56 42.8132 140.179 44.1943 140.179 45.8056C140.179 47.4168 141.56 48.7979 143.171 48.7979C144.783 48.7979 146.164 47.4168 146.164 45.8056C145.934 44.1943 144.783 42.8132 143.171 42.8132Z" fill="#F4F4F4"/>
<path d="M151.918 48.7979C153.529 48.7979 154.911 47.4168 154.911 45.8056C154.911 44.1943 153.529 42.8132 151.918 42.8132C150.307 42.8132 148.926 44.1943 148.926 45.8056C148.926 47.4168 150.307 48.7979 151.918 48.7979Z" fill="#F4F4F4"/>
<path d="M160.665 48.7979C162.276 48.7979 163.657 47.4168 163.657 45.8056C163.657 44.1943 162.276 42.8132 160.665 42.8132C159.054 42.8132 157.673 44.1943 157.673 45.8056C157.903 47.4168 159.054 48.7979 160.665 48.7979Z" fill="#F4F4F4"/>
<path d="M169.642 46.7263C170.102 46.7263 170.563 46.266 170.563 45.8056C170.563 45.3452 170.102 44.8849 169.642 44.8849C169.182 44.8849 168.721 45.3452 168.721 45.8056C168.721 46.266 169.182 46.7263 169.642 46.7263Z" fill="#F4F4F4"/>
<path d="M10.5883 57.0844C11.9693 57.0844 12.89 55.9335 12.89 54.7826C12.89 53.4015 11.7392 52.4808 10.5883 52.4808C9.43736 52.4808 8.28647 53.6317 8.28647 54.7826C8.28647 55.9335 9.20718 57.0844 10.5883 57.0844Z" fill="#F4F4F4"/>
<path d="M19.335 51.7903C17.7238 51.7903 16.3427 53.1714 16.3427 54.7826C16.3427 56.3939 17.7238 57.5448 19.335 57.5448C20.9463 57.5448 22.3274 56.1637 22.3274 54.5524C22.3274 52.9412 20.9463 51.7903 19.335 51.7903Z" fill="#F4F4F4"/>
<path d="M28.0818 51.7903C26.4706 51.7903 25.0895 53.1714 25.0895 54.7826C25.0895 56.3939 26.4706 57.7749 28.0818 57.7749C29.6931 57.7749 31.0742 56.3939 31.0742 54.7826C31.0742 53.1714 29.9233 51.7903 28.0818 51.7903Z" fill="#F4F4F4"/>
<path d="M37.0588 51.7903C35.4475 51.7903 34.0665 53.1714 34.0665 54.7826C34.0665 56.3939 35.4475 57.7749 37.0588 57.7749C38.67 57.7749 40.0511 56.3939 40.0511 54.7826C40.0511 53.1714 38.67 51.7903 37.0588 51.7903Z" fill="#F4F4F4"/>
<path d="M45.8056 51.7903C44.1944 51.7903 42.8133 53.1714 42.8133 54.7826C42.8133 56.3939 44.1944 57.7749 45.8056 57.7749C47.4169 57.7749 48.798 56.3939 48.798 54.7826C48.798 53.1714 47.4169 51.7903 45.8056 51.7903Z" fill="#F4F4F4"/>
<path d="M54.7826 51.7903C53.1714 51.7903 51.7903 53.1714 51.7903 54.7826C51.7903 56.3939 52.9412 57.5448 54.7826 57.5448C56.3939 57.5448 57.7749 56.1637 57.7749 54.5524C57.7749 52.9412 56.3939 51.7903 54.7826 51.7903Z" fill="#F4F4F4"/>
<path d="M63.5294 51.7903C61.9181 51.7903 60.537 53.1714 60.537 54.7826C60.537 56.3939 61.9181 57.7749 63.5294 57.7749C65.1406 57.7749 66.5217 56.3939 66.5217 54.7826C66.5217 53.1714 65.1406 51.7903 63.5294 51.7903Z" fill="#F4F4F4"/>
<path d="M72.2762 51.7903C70.665 51.7903 69.2839 53.1714 69.2839 54.7826C69.2839 56.3939 70.665 57.7749 72.2762 57.7749C73.8875 57.7749 75.2686 56.3939 75.2686 54.7826C75.2686 53.1714 74.1177 51.7903 72.2762 51.7903Z" fill="#F4F4F4"/>
<path d="M81.2532 51.7903C79.6419 51.7903 78.2609 53.1714 78.2609 54.7826C78.2609 56.3939 79.6419 57.7749 81.2532 57.7749C82.8644 57.7749 84.2455 56.3939 84.2455 54.7826C84.2455 53.1714 82.8644 51.7903 81.2532 51.7903Z" fill="#F4F4F4"/>
<path d="M90 51.7903C88.3887 51.7903 87.0077 53.1714 87.0077 54.7826C87.0077 56.3939 88.3887 57.7749 90 57.7749C91.6112 57.7749 92.9923 56.3939 92.9923 54.7826C92.9923 53.1714 91.6112 51.7903 90 51.7903Z" fill="#F4F4F4"/>
<path d="M98.977 51.7903C97.3658 51.7903 95.9847 53.1714 95.9847 54.7826C95.9847 56.3939 97.1356 57.5448 98.977 57.5448C100.588 57.5448 101.969 56.1637 101.969 54.5524C101.969 52.9412 100.588 51.7903 98.977 51.7903Z" fill="#F4F4F4"/>
<path d="M107.724 51.7903C106.113 51.7903 104.731 53.1714 104.731 54.7826C104.731 56.3939 106.113 57.7749 107.724 57.7749C109.335 57.7749 110.716 56.3939 110.716 54.7826C110.716 53.1714 109.335 51.7903 107.724 51.7903Z" fill="#F4F4F4"/>
<path d="M116.471 51.7903C114.859 51.7903 113.478 53.1714 113.478 54.7826C113.478 56.3939 114.859 57.7749 116.471 57.7749C118.082 57.7749 119.463 56.3939 119.463 54.7826C119.463 53.1714 118.312 51.7903 116.471 51.7903Z" fill="#F4F4F4"/>
<path d="M125.448 51.7903C123.836 51.7903 122.455 53.1714 122.455 54.7826C122.455 56.3939 123.836 57.7749 125.448 57.7749C127.059 57.7749 128.44 56.3939 128.44 54.7826C128.44 53.1714 127.059 51.7903 125.448 51.7903Z" fill="#F4F4F4"/>
<path d="M134.194 51.7903C132.583 51.7903 131.202 53.1714 131.202 54.7826C131.202 56.3939 132.583 57.7749 134.194 57.7749C135.806 57.7749 137.187 56.3939 137.187 54.7826C137.187 53.1714 135.806 51.7903 134.194 51.7903Z" fill="#F4F4F4"/>
<path d="M143.171 51.7903C141.56 51.7903 140.179 53.1714 140.179 54.7826C140.179 56.3939 141.56 57.7749 143.171 57.7749C144.783 57.7749 146.164 56.3939 146.164 54.7826C146.164 53.1714 144.783 51.7903 143.171 51.7903Z" fill="#F4F4F4"/>
<path d="M151.918 51.7903C150.307 51.7903 148.926 53.1714 148.926 54.7826C148.926 56.3939 150.307 57.5448 151.918 57.5448C153.529 57.5448 154.911 56.1637 154.911 54.5524C154.911 52.9412 153.529 51.7903 151.918 51.7903Z" fill="#F4F4F4"/>
<path d="M160.665 51.7903C159.054 51.7903 157.673 53.1714 157.673 54.7826C157.673 56.3939 159.054 57.7749 160.665 57.7749C162.276 57.7749 163.657 56.3939 163.657 54.7826C163.657 53.1714 162.506 51.7903 160.665 51.7903Z" fill="#F4F4F4"/>
<path d="M169.642 56.8543C171.023 56.8543 171.944 55.9335 171.944 54.5525C171.944 53.1714 171.023 52.2507 169.642 52.2507C168.261 52.2507 167.34 53.1714 167.34 54.5525C167.34 55.9335 168.261 56.8543 169.642 56.8543Z" fill="#F4F4F4"/>
<path d="M1.61127 63.9898C2.07163 63.9898 2.07163 63.7596 2.07163 63.5295C2.07163 63.2993 1.84145 63.0691 1.61127 63.0691C1.38109 63.0691 1.15091 63.2993 1.15091 63.5295C1.15091 63.7596 1.38109 63.9898 1.61127 63.9898Z" fill="#F4F4F4"/>
<path d="M10.5882 66.5217C12.1995 66.5217 13.5805 65.1406 13.5805 63.5294C13.5805 61.9181 12.1995 60.537 10.5882 60.537C8.97696 60.537 7.59589 61.9181 7.59589 63.5294C7.59589 65.1406 8.74678 66.5217 10.5882 66.5217Z" fill="#F4F4F4"/>
<path d="M19.335 60.537C17.7238 60.537 16.3427 61.9181 16.3427 63.5294C16.3427 65.1406 17.7238 66.5217 19.335 66.5217C20.9463 66.5217 22.3274 65.1406 22.3274 63.5294C22.3274 61.9181 20.9463 60.537 19.335 60.537Z" fill="#F4F4F4"/>
<path d="M28.0818 60.537C26.4706 60.537 25.0895 61.9181 25.0895 63.5294C25.0895 65.1406 26.4706 66.5217 28.0818 66.5217C29.6931 66.5217 31.0742 65.1406 31.0742 63.5294C31.0742 61.9181 29.9233 60.537 28.0818 60.537Z" fill="#F4F4F4"/>
<path d="M37.0588 60.537C35.4475 60.537 34.0665 61.9181 34.0665 63.5294C34.0665 65.1406 35.4475 66.5217 37.0588 66.5217C38.67 66.5217 40.0511 65.1406 40.0511 63.5294C40.0511 61.9181 38.67 60.537 37.0588 60.537Z" fill="#F4F4F4"/>
<path d="M45.8056 60.537C44.1944 60.537 42.8133 61.9181 42.8133 63.5294C42.8133 65.1406 44.1944 66.5217 45.8056 66.5217C47.4169 66.5217 48.798 65.1406 48.798 63.5294C48.798 61.9181 47.4169 60.537 45.8056 60.537Z" fill="#F4F4F4"/>
<path d="M54.7826 60.537C53.1714 60.537 51.7903 61.9181 51.7903 63.5294C51.7903 65.1406 53.1714 66.5217 54.7826 66.5217C56.3939 66.5217 57.7749 65.1406 57.7749 63.5294C57.5448 61.9181 56.3939 60.537 54.7826 60.537Z" fill="#F4F4F4"/>
<path d="M63.5294 60.537C61.9181 60.537 60.537 61.9181 60.537 63.5294C60.537 65.1406 61.9181 66.5217 63.5294 66.5217C65.1406 66.5217 66.5217 65.1406 66.5217 63.5294C66.5217 61.9181 65.1406 60.537 63.5294 60.537Z" fill="#F4F4F4"/>
<path d="M72.2762 60.537C70.665 60.537 69.2839 61.9181 69.2839 63.5294C69.2839 65.1406 70.665 66.5217 72.2762 66.5217C73.8875 66.5217 75.2686 65.1406 75.2686 63.5294C75.2686 61.9181 74.1177 60.537 72.2762 60.537Z" fill="#F4F4F4"/>
<path d="M81.2532 60.537C79.6419 60.537 78.2609 61.9181 78.2609 63.5294C78.2609 65.1406 79.6419 66.5217 81.2532 66.5217C82.8644 66.5217 84.2455 65.1406 84.2455 63.5294C84.2455 61.9181 82.8644 60.537 81.2532 60.537Z" fill="#F4F4F4"/>
<path d="M90 60.537C88.3887 60.537 87.0077 61.9181 87.0077 63.5294C87.0077 65.1406 88.3887 66.5217 90 66.5217C91.6112 66.5217 92.9923 65.1406 92.9923 63.5294C92.9923 61.9181 91.6112 60.537 90 60.537Z" fill="#F4F4F4"/>
<path d="M98.977 60.537C97.3658 60.537 95.9847 61.9181 95.9847 63.5294C95.9847 65.1406 97.3658 66.5217 98.977 66.5217C100.588 66.5217 101.969 65.1406 101.969 63.5294C101.739 61.9181 100.588 60.537 98.977 60.537Z" fill="#F4F4F4"/>
<path d="M107.724 60.537C106.113 60.537 104.731 61.9181 104.731 63.5294C104.731 65.1406 106.113 66.5217 107.724 66.5217C109.335 66.5217 110.716 65.1406 110.716 63.5294C110.716 61.9181 109.335 60.537 107.724 60.537Z" fill="#F4F4F4"/>
<path d="M116.471 60.537C114.859 60.537 113.478 61.9181 113.478 63.5294C113.478 65.1406 114.859 66.5217 116.471 66.5217C118.082 66.5217 119.463 65.1406 119.463 63.5294C119.463 61.9181 118.312 60.537 116.471 60.537Z" fill="#F4F4F4"/>
<path d="M125.448 60.537C123.836 60.537 122.455 61.9181 122.455 63.5294C122.455 65.1406 123.836 66.5217 125.448 66.5217C127.059 66.5217 128.44 65.1406 128.44 63.5294C128.44 61.9181 127.059 60.537 125.448 60.537Z" fill="#F4F4F4"/>
<path d="M134.194 60.537C132.583 60.537 131.202 61.9181 131.202 63.5294C131.202 65.1406 132.583 66.5217 134.194 66.5217C135.806 66.5217 137.187 65.1406 137.187 63.5294C137.187 61.9181 135.806 60.537 134.194 60.537Z" fill="#F4F4F4"/>
<path d="M143.171 60.537C141.56 60.537 140.179 61.9181 140.179 63.5294C140.179 65.1406 141.56 66.5217 143.171 66.5217C144.783 66.5217 146.164 65.1406 146.164 63.5294C145.934 61.9181 144.783 60.537 143.171 60.537Z" fill="#F4F4F4"/>
<path d="M151.918 60.537C150.307 60.537 148.926 61.9181 148.926 63.5294C148.926 65.1406 150.307 66.5217 151.918 66.5217C153.529 66.5217 154.911 65.1406 154.911 63.5294C154.911 61.9181 153.529 60.537 151.918 60.537Z" fill="#F4F4F4"/>
<path d="M160.665 60.537C159.054 60.537 157.673 61.9181 157.673 63.5294C157.673 65.1406 159.054 66.5217 160.665 66.5217C162.276 66.5217 163.657 65.1406 163.657 63.5294C163.657 61.9181 162.506 60.537 160.665 60.537Z" fill="#F4F4F4"/>
<path d="M169.642 66.2916C171.253 66.2916 172.404 64.9106 172.404 63.5295C172.404 61.9182 171.023 60.7673 169.642 60.7673C168.261 60.7673 166.88 62.1484 166.88 63.5295C166.88 65.1407 168.031 66.2916 169.642 66.2916Z" fill="#F4F4F4"/>
<path d="M178.389 63.9898C178.619 63.9898 178.849 63.7596 178.849 63.5295C178.849 63.2993 178.619 63.0691 178.389 63.0691C178.159 63.0691 177.928 63.2993 177.928 63.5295C177.928 63.7596 178.159 63.9898 178.389 63.9898Z" fill="#F4F4F4"/>
<path d="M1.61127 73.6573C2.30181 73.6573 2.99234 73.197 2.99234 72.2763C2.99234 71.3555 2.30181 71.1254 1.61127 71.1254C0.920731 71.1254 0.230194 71.5857 0.230194 72.5064C0.230194 73.4272 0.920731 73.6573 1.61127 73.6573Z" fill="#F4F4F4"/>
<path d="M10.5882 69.5141C8.97696 69.5141 7.59589 70.8952 7.59589 72.5064C7.59589 74.1177 8.97696 75.4987 10.5882 75.4987C12.1995 75.4987 13.5805 74.1177 13.5805 72.5064C13.3504 70.665 12.1995 69.5141 10.5882 69.5141Z" fill="#F4F4F4"/>
<path d="M19.335 69.5141C17.7238 69.5141 16.3427 70.8952 16.3427 72.5064C16.3427 74.1177 17.7238 75.4987 19.335 75.4987C20.9463 75.4987 22.3274 74.1177 22.3274 72.5064C22.3274 70.665 20.9463 69.5141 19.335 69.5141Z" fill="#F4F4F4"/>
<path d="M28.0818 69.5141C26.4706 69.5141 25.0895 70.8952 25.0895 72.5064C25.0895 74.1177 26.4706 75.4987 28.0818 75.4987C29.6931 75.4987 31.0742 74.1177 31.0742 72.5064C31.0742 70.665 29.9233 69.5141 28.0818 69.5141Z" fill="#F4F4F4"/>
<path d="M37.0588 69.5141C35.4475 69.5141 34.0665 70.8952 34.0665 72.5064C34.0665 74.1177 35.4475 75.4987 37.0588 75.4987C38.67 75.4987 40.0511 74.1177 40.0511 72.5064C40.0511 70.665 38.67 69.5141 37.0588 69.5141Z" fill="#F4F4F4"/>
<path d="M45.8056 69.5141C44.1944 69.5141 42.8133 70.8952 42.8133 72.5064C42.8133 74.1177 44.1944 75.4987 45.8056 75.4987C47.4169 75.4987 48.798 74.1177 48.798 72.5064C48.798 70.665 47.4169 69.5141 45.8056 69.5141Z" fill="#F4F4F4"/>
<path d="M54.7826 69.5141C53.1714 69.5141 51.7903 70.8952 51.7903 72.5064C51.7903 74.1177 53.1714 75.4987 54.7826 75.4987C56.3939 75.4987 57.7749 74.1177 57.7749 72.5064C57.5448 70.665 56.3939 69.5141 54.7826 69.5141Z" fill="#F4F4F4"/>
<path d="M63.5294 69.5141C61.9181 69.5141 60.537 70.8952 60.537 72.5064C60.537 74.1177 61.9181 75.4987 63.5294 75.4987C65.1406 75.4987 66.5217 74.1177 66.5217 72.5064C66.5217 70.665 65.1406 69.5141 63.5294 69.5141Z" fill="#F4F4F4"/>
<path d="M72.2762 69.5141C70.665 69.5141 69.2839 70.8952 69.2839 72.5064C69.2839 74.1177 70.665 75.4987 72.2762 75.4987C73.8875 75.4987 75.2686 74.1177 75.2686 72.5064C75.2686 70.665 74.1177 69.5141 72.2762 69.5141Z" fill="#F4F4F4"/>
<path d="M81.2532 69.5141C79.6419 69.5141 78.2609 70.8952 78.2609 72.5064C78.2609 74.1177 79.6419 75.4987 81.2532 75.4987C82.8644 75.4987 84.2455 74.1177 84.2455 72.5064C84.2455 70.665 82.8644 69.5141 81.2532 69.5141Z" fill="#F4F4F4"/>
<path d="M90 69.5141C88.3887 69.5141 87.0077 70.8952 87.0077 72.5064C87.0077 74.1177 88.3887 75.4987 90 75.4987C91.6112 75.4987 92.9923 74.1177 92.9923 72.5064C92.9923 70.665 91.6112 69.5141 90 69.5141Z" fill="#F4F4F4"/>
<path d="M98.977 69.5141C97.3658 69.5141 95.9847 70.8952 95.9847 72.5064C95.9847 74.1177 97.3658 75.4987 98.977 75.4987C100.588 75.4987 101.969 74.1177 101.969 72.5064C101.739 70.665 100.588 69.5141 98.977 69.5141Z" fill="#F4F4F4"/>
<path d="M107.724 69.5141C106.113 69.5141 104.731 70.8952 104.731 72.5064C104.731 74.1177 106.113 75.4987 107.724 75.4987C109.335 75.4987 110.716 74.1177 110.716 72.5064C110.716 70.665 109.335 69.5141 107.724 69.5141Z" fill="#F4F4F4"/>
<path d="M116.471 69.5141C114.859 69.5141 113.478 70.8952 113.478 72.5064C113.478 74.1177 114.859 75.4987 116.471 75.4987C118.082 75.4987 119.463 74.1177 119.463 72.5064C119.463 70.665 118.312 69.5141 116.471 69.5141Z" fill="#F4F4F4"/>
<path d="M125.448 69.5141C123.836 69.5141 122.455 70.8952 122.455 72.5064C122.455 74.1177 123.836 75.4987 125.448 75.4987C127.059 75.4987 128.44 74.1177 128.44 72.5064C128.44 70.665 127.059 69.5141 125.448 69.5141Z" fill="#F4F4F4"/>
<path d="M134.194 69.5141C132.583 69.5141 131.202 70.8952 131.202 72.5064C131.202 74.1177 132.583 75.4987 134.194 75.4987C135.806 75.4987 137.187 74.1177 137.187 72.5064C137.187 70.665 135.806 69.5141 134.194 69.5141Z" fill="#F4F4F4"/>
<path d="M143.171 69.5141C141.56 69.5141 140.179 70.8952 140.179 72.5064C140.179 74.1177 141.56 75.4987 143.171 75.4987C144.783 75.4987 146.164 74.1177 146.164 72.5064C145.934 70.665 144.783 69.5141 143.171 69.5141Z" fill="#F4F4F4"/>
<path d="M151.918 69.5141C150.307 69.5141 148.926 70.8952 148.926 72.5064C148.926 74.1177 150.307 75.4987 151.918 75.4987C153.529 75.4987 154.911 74.1177 154.911 72.5064C154.911 70.665 153.529 69.5141 151.918 69.5141Z" fill="#F4F4F4"/>
<path d="M160.665 69.5141C159.054 69.5141 157.673 70.8952 157.673 72.5064C157.673 74.1177 159.054 75.4987 160.665 75.4987C162.276 75.4987 163.657 74.1177 163.657 72.5064C163.657 70.665 162.506 69.5141 160.665 69.5141Z" fill="#F4F4F4"/>
<path d="M169.642 69.5141C168.031 69.5141 166.65 70.8952 166.65 72.5064C166.65 74.1177 168.031 75.4987 169.642 75.4987C171.253 75.4987 172.634 74.1177 172.634 72.5064C172.634 70.665 171.253 69.5141 169.642 69.5141Z" fill="#F4F4F4"/>
<path d="M178.389 73.4272C178.849 73.4272 179.54 72.9668 179.54 72.2763C179.54 71.8159 179.079 71.1254 178.389 71.1254C177.928 71.1254 177.238 71.5857 177.238 72.2763C177.238 72.9668 177.928 73.4272 178.389 73.4272Z" fill="#F4F4F4"/>
<path d="M1.61125 82.8644C2.53197 82.8644 3.22251 82.1739 3.22251 81.2532C3.22251 80.3324 2.53197 79.6419 1.61125 79.6419C0.690537 79.6419 0 80.3324 0 81.2532C0 82.1739 0.690537 82.8644 1.61125 82.8644Z" fill="#F4F4F4"/>
<path d="M10.5882 78.2609C8.97696 78.2609 7.59589 79.6419 7.59589 81.2532C7.59589 82.8644 8.97696 84.2455 10.5882 84.2455C12.1995 84.2455 13.5805 82.8644 13.5805 81.2532C13.5805 79.6419 12.1995 78.2609 10.5882 78.2609Z" fill="#F4F4F4"/>
<path d="M19.335 84.2455C20.9463 84.2455 22.3274 82.8644 22.3274 81.2532C22.3274 79.6419 20.9463 78.2609 19.335 78.2609C17.7238 78.2609 16.3427 79.6419 16.3427 81.2532C16.3427 82.8644 17.7238 84.2455 19.335 84.2455Z" fill="#F4F4F4"/>
<path d="M28.0818 84.2455C29.6931 84.2455 31.0742 82.8644 31.0742 81.2532C31.0742 79.6419 29.6931 78.2609 28.0818 78.2609C26.4706 78.2609 25.0895 79.6419 25.0895 81.2532C25.0895 82.8644 26.4706 84.2455 28.0818 84.2455Z" fill="#F4F4F4"/>
<path d="M37.0588 78.2609C35.4475 78.2609 34.0665 79.6419 34.0665 81.2532C34.0665 82.8644 35.4475 84.2455 37.0588 84.2455C38.67 84.2455 40.0511 82.8644 40.0511 81.2532C40.0511 79.6419 38.67 78.2609 37.0588 78.2609Z" fill="#F4F4F4"/>
<path d="M45.8056 78.2609C44.1944 78.2609 42.8133 79.6419 42.8133 81.2532C42.8133 82.8644 44.1944 84.2455 45.8056 84.2455C47.4169 84.2455 48.798 82.8644 48.798 81.2532C48.798 79.6419 47.4169 78.2609 45.8056 78.2609Z" fill="#F4F4F4"/>
<path d="M54.7826 78.2609C53.1714 78.2609 51.7903 79.6419 51.7903 81.2532C51.7903 82.8644 53.1714 84.2455 54.7826 84.2455C56.3939 84.2455 57.7749 82.8644 57.7749 81.2532C57.7749 79.6419 56.3939 78.2609 54.7826 78.2609Z" fill="#F4F4F4"/>
<path d="M63.5294 84.2455C65.1406 84.2455 66.5217 82.8644 66.5217 81.2532C66.5217 79.6419 65.1406 78.2609 63.5294 78.2609C61.9181 78.2609 60.537 79.6419 60.537 81.2532C60.537 82.8644 61.9181 84.2455 63.5294 84.2455Z" fill="#F4F4F4"/>
<path d="M72.2762 84.2455C73.8875 84.2455 75.2686 82.8644 75.2686 81.2532C75.2686 79.6419 73.8875 78.2609 72.2762 78.2609C70.665 78.2609 69.2839 79.6419 69.2839 81.2532C69.2839 82.8644 70.665 84.2455 72.2762 84.2455Z" fill="#F4F4F4"/>
<path d="M81.2532 78.2609C79.6419 78.2609 78.2609 79.6419 78.2609 81.2532C78.2609 82.8644 79.6419 84.2455 81.2532 84.2455C82.8644 84.2455 84.2455 82.8644 84.2455 81.2532C84.2455 79.6419 82.8644 78.2609 81.2532 78.2609Z" fill="#F4F4F4"/>
<path d="M90 78.2609C88.3887 78.2609 87.0077 79.6419 87.0077 81.2532C87.0077 82.8644 88.3887 84.2455 90 84.2455C91.6112 84.2455 92.9923 82.8644 92.9923 81.2532C92.9923 79.6419 91.6112 78.2609 90 78.2609Z" fill="#F4F4F4"/>
<path d="M98.977 78.2609C97.3658 78.2609 95.9847 79.6419 95.9847 81.2532C95.9847 82.8644 97.3658 84.2455 98.977 84.2455C100.588 84.2455 101.969 82.8644 101.969 81.2532C101.969 79.6419 100.588 78.2609 98.977 78.2609Z" fill="#F4F4F4"/>
<path d="M107.724 84.2455C109.335 84.2455 110.716 82.8644 110.716 81.2532C110.716 79.6419 109.335 78.2609 107.724 78.2609C106.113 78.2609 104.731 79.6419 104.731 81.2532C104.731 82.8644 106.113 84.2455 107.724 84.2455Z" fill="#F4F4F4"/>
<path d="M116.471 84.2455C118.082 84.2455 119.463 82.8644 119.463 81.2532C119.463 79.6419 118.082 78.2609 116.471 78.2609C114.859 78.2609 113.478 79.6419 113.478 81.2532C113.478 82.8644 114.859 84.2455 116.471 84.2455Z" fill="#F4F4F4"/>
<path d="M125.448 78.2609C123.836 78.2609 122.455 79.6419 122.455 81.2532C122.455 82.8644 123.836 84.2455 125.448 84.2455C127.059 84.2455 128.44 82.8644 128.44 81.2532C128.44 79.6419 127.059 78.2609 125.448 78.2609Z" fill="#F4F4F4"/>
<path d="M134.194 78.2609C132.583 78.2609 131.202 79.6419 131.202 81.2532C131.202 82.8644 132.583 84.2455 134.194 84.2455C135.806 84.2455 137.187 82.8644 137.187 81.2532C137.187 79.6419 135.806 78.2609 134.194 78.2609Z" fill="#F4F4F4"/>
<path d="M143.171 78.2609C141.56 78.2609 140.179 79.6419 140.179 81.2532C140.179 82.8644 141.56 84.2455 143.171 84.2455C144.783 84.2455 146.164 82.8644 146.164 81.2532C146.164 79.6419 144.783 78.2609 143.171 78.2609Z" fill="#F4F4F4"/>
<path d="M151.918 84.2455C153.529 84.2455 154.911 82.8644 154.911 81.2532C154.911 79.6419 153.529 78.2609 151.918 78.2609C150.307 78.2609 148.926 79.6419 148.926 81.2532C148.926 82.8644 150.307 84.2455 151.918 84.2455Z" fill="#F4F4F4"/>
<path d="M160.665 84.2455C162.276 84.2455 163.657 82.8644 163.657 81.2532C163.657 79.6419 162.276 78.2609 160.665 78.2609C159.054 78.2609 157.673 79.6419 157.673 81.2532C157.673 82.8644 159.054 84.2455 160.665 84.2455Z" fill="#F4F4F4"/>
<path d="M169.642 78.2609C168.031 78.2609 166.65 79.6419 166.65 81.2532C166.65 82.8644 168.031 84.2455 169.642 84.2455C171.253 84.2455 172.634 82.8644 172.634 81.2532C172.634 79.6419 171.253 78.2609 169.642 78.2609Z" fill="#F4F4F4"/>
<path d="M178.389 82.8644C179.309 82.8644 180 82.1739 180 81.2532C180 80.3324 179.309 79.6419 178.389 79.6419C177.468 79.6419 176.777 80.3324 176.777 81.2532C176.777 82.1739 177.468 82.8644 178.389 82.8644Z" fill="#F4F4F4"/>
<path d="M1.61125 88.3888C0.690537 88.3888 0 89.0793 0 90C0 90.9208 0.690537 91.6113 1.61125 91.6113C2.53197 91.6113 3.22251 90.9208 3.22251 90C3.22251 89.0793 2.53197 88.3888 1.61125 88.3888Z" fill="#F4F4F4"/>
<path d="M10.5882 87.0076C8.97696 87.0076 7.59589 88.3887 7.59589 90C7.59589 91.6112 8.97696 92.9923 10.5882 92.9923C12.1995 92.9923 13.5805 91.6112 13.5805 90C13.3504 88.3887 12.1995 87.0076 10.5882 87.0076Z" fill="#F4F4F4"/>
<path d="M19.335 92.9923C20.9463 92.9923 22.3274 91.6112 22.3274 90C22.3274 88.3887 20.9463 87.0076 19.335 87.0076C17.7238 87.0076 16.3427 88.3887 16.3427 90C16.3427 91.6112 17.7238 92.9923 19.335 92.9923Z" fill="#F4F4F4"/>
<path d="M28.0818 92.9923C29.6931 92.9923 31.0742 91.6112 31.0742 90C31.0742 88.3887 29.6931 87.0076 28.0818 87.0076C26.4706 87.0076 25.0895 88.3887 25.0895 90C25.3197 91.6112 26.4706 92.9923 28.0818 92.9923Z" fill="#F4F4F4"/>
<path d="M37.0588 87.0076C35.4475 87.0076 34.0665 88.3887 34.0665 90C34.0665 91.6112 35.4475 92.9923 37.0588 92.9923C38.67 92.9923 40.0511 91.6112 40.0511 90C40.0511 88.3887 38.67 87.0076 37.0588 87.0076Z" fill="#F4F4F4"/>
<path d="M45.8056 87.0076C44.1944 87.0076 42.8133 88.3887 42.8133 90C42.8133 91.6112 44.1944 92.9923 45.8056 92.9923C47.4169 92.9923 48.798 91.6112 48.798 90C48.798 88.3887 47.4169 87.0076 45.8056 87.0076Z" fill="#F4F4F4"/>
<path d="M54.7826 87.0076C53.1714 87.0076 51.7903 88.3887 51.7903 90C51.7903 91.6112 53.1714 92.9923 54.7826 92.9923C56.3939 92.9923 57.7749 91.6112 57.7749 90C57.5448 88.3887 56.3939 87.0076 54.7826 87.0076Z" fill="#F4F4F4"/>
<path d="M63.5294 92.9923C65.1406 92.9923 66.5217 91.6112 66.5217 90C66.5217 88.3887 65.1406 87.0076 63.5294 87.0076C61.9181 87.0076 60.537 88.3887 60.537 90C60.537 91.6112 61.9181 92.9923 63.5294 92.9923Z" fill="#F4F4F4"/>
<path d="M72.2762 92.9923C73.8875 92.9923 75.2686 91.6112 75.2686 90C75.2686 88.3887 73.8875 87.0076 72.2762 87.0076C70.665 87.0076 69.2839 88.3887 69.2839 90C69.5141 91.6112 70.665 92.9923 72.2762 92.9923Z" fill="#F4F4F4"/>
<path d="M81.2532 87.0076C79.6419 87.0076 78.2609 88.3887 78.2609 90C78.2609 91.6112 79.6419 92.9923 81.2532 92.9923C82.8644 92.9923 84.2455 91.6112 84.2455 90C84.2455 88.3887 82.8644 87.0076 81.2532 87.0076Z" fill="#F4F4F4"/>
<path d="M90 87.0076C88.3887 87.0076 87.0077 88.3887 87.0077 90C87.0077 91.6112 88.3887 92.9923 90 92.9923C91.6112 92.9923 92.9923 91.6112 92.9923 90C92.9923 88.3887 91.6112 87.0076 90 87.0076Z" fill="#F4F4F4"/>
<path d="M98.977 87.0076C97.3658 87.0076 95.9847 88.3887 95.9847 90C95.9847 91.6112 97.3658 92.9923 98.977 92.9923C100.588 92.9923 101.969 91.6112 101.969 90C101.739 88.3887 100.588 87.0076 98.977 87.0076Z" fill="#F4F4F4"/>
<path d="M107.724 92.9923C109.335 92.9923 110.716 91.6112 110.716 90C110.716 88.3887 109.335 87.0076 107.724 87.0076C106.113 87.0076 104.731 88.3887 104.731 90C104.731 91.6112 106.113 92.9923 107.724 92.9923Z" fill="#F4F4F4"/>
<path d="M116.471 92.9923C118.082 92.9923 119.463 91.6112 119.463 90C119.463 88.3887 118.082 87.0076 116.471 87.0076C114.859 87.0076 113.478 88.3887 113.478 90C113.708 91.6112 114.859 92.9923 116.471 92.9923Z" fill="#F4F4F4"/>
<path d="M125.448 87.0076C123.836 87.0076 122.455 88.3887 122.455 90C122.455 91.6112 123.836 92.9923 125.448 92.9923C127.059 92.9923 128.44 91.6112 128.44 90C128.44 88.3887 127.059 87.0076 125.448 87.0076Z" fill="#F4F4F4"/>
<path d="M134.194 87.0076C132.583 87.0076 131.202 88.3887 131.202 90C131.202 91.6112 132.583 92.9923 134.194 92.9923C135.806 92.9923 137.187 91.6112 137.187 90C137.187 88.3887 135.806 87.0076 134.194 87.0076Z" fill="#F4F4F4"/>
<path d="M143.171 87.0076C141.56 87.0076 140.179 88.3887 140.179 90C140.179 91.6112 141.56 92.9923 143.171 92.9923C144.783 92.9923 146.164 91.6112 146.164 90C145.934 88.3887 144.783 87.0076 143.171 87.0076Z" fill="#F4F4F4"/>
<path d="M151.918 92.9923C153.529 92.9923 154.911 91.6112 154.911 90C154.911 88.3887 153.529 87.0076 151.918 87.0076C150.307 87.0076 148.926 88.3887 148.926 90C148.926 91.6112 150.307 92.9923 151.918 92.9923Z" fill="#F4F4F4"/>
<path d="M160.665 92.9923C162.276 92.9923 163.657 91.6112 163.657 90C163.657 88.3887 162.276 87.0076 160.665 87.0076C159.054 87.0076 157.673 88.3887 157.673 90C157.903 91.6112 159.054 92.9923 160.665 92.9923Z" fill="#F4F4F4"/>
<path d="M169.642 87.0076C168.031 87.0076 166.65 88.3887 166.65 90C166.65 91.6112 168.031 92.9923 169.642 92.9923C171.253 92.9923 172.634 91.6112 172.634 90C172.634 88.3887 171.253 87.0076 169.642 87.0076Z" fill="#F4F4F4"/>
<path d="M178.389 91.6113C179.309 91.6113 180 90.9208 180 90C180 89.0793 179.309 88.3888 178.389 88.3888C177.468 88.3888 176.777 89.0793 176.777 90C176.777 90.9208 177.468 91.6113 178.389 91.6113Z" fill="#F4F4F4"/>
<path d="M1.61125 97.1356C0.690537 97.1356 0 98.0563 0 98.977C0 99.8977 0.690537 100.588 1.61125 100.588C2.53197 100.588 3.22251 99.8977 3.22251 98.977C3.22251 98.0563 2.53197 97.1356 1.61125 97.1356Z" fill="#F4F4F4"/>
<path d="M10.5882 95.9847C8.97696 95.9847 7.59589 97.3658 7.59589 98.977C7.59589 100.588 8.97696 101.969 10.5882 101.969C12.1995 101.969 13.5805 100.588 13.5805 98.977C13.3504 97.1356 12.1995 95.9847 10.5882 95.9847Z" fill="#F4F4F4"/>
<path d="M19.335 95.9847C17.7238 95.9847 16.3427 97.3658 16.3427 98.977C16.3427 100.588 17.7238 101.969 19.335 101.969C20.9463 101.969 22.3274 100.588 22.3274 98.977C22.3274 97.1356 20.9463 95.9847 19.335 95.9847Z" fill="#F4F4F4"/>
<path d="M28.0818 95.9847C26.4706 95.9847 25.0895 97.3658 25.0895 98.977C25.0895 100.588 26.4706 101.969 28.0818 101.969C29.6931 101.969 31.0742 100.588 31.0742 98.977C31.0742 97.1356 29.9233 95.9847 28.0818 95.9847Z" fill="#F4F4F4"/>
<path d="M37.0588 95.9847C35.4475 95.9847 34.0665 97.3658 34.0665 98.977C34.0665 100.588 35.4475 101.969 37.0588 101.969C38.67 101.969 40.0511 100.588 40.0511 98.977C40.0511 97.1356 38.67 95.9847 37.0588 95.9847Z" fill="#F4F4F4"/>
<path d="M45.8056 95.9847C44.1944 95.9847 42.8133 97.3658 42.8133 98.977C42.8133 100.588 44.1944 101.969 45.8056 101.969C47.4169 101.969 48.798 100.588 48.798 98.977C48.798 97.1356 47.4169 95.9847 45.8056 95.9847Z" fill="#F4F4F4"/>
<path d="M54.7826 95.9847C53.1714 95.9847 51.7903 97.3658 51.7903 98.977C51.7903 100.588 53.1714 101.969 54.7826 101.969C56.3939 101.969 57.7749 100.588 57.7749 98.977C57.5448 97.1356 56.3939 95.9847 54.7826 95.9847Z" fill="#F4F4F4"/>
<path d="M63.5294 95.9847C61.9181 95.9847 60.537 97.3658 60.537 98.977C60.537 100.588 61.9181 101.969 63.5294 101.969C65.1406 101.969 66.5217 100.588 66.5217 98.977C66.5217 97.1356 65.1406 95.9847 63.5294 95.9847Z" fill="#F4F4F4"/>
<path d="M72.2762 95.9847C70.665 95.9847 69.2839 97.3658 69.2839 98.977C69.2839 100.588 70.665 101.969 72.2762 101.969C73.8875 101.969 75.2686 100.588 75.2686 98.977C75.2686 97.1356 74.1177 95.9847 72.2762 95.9847Z" fill="#F4F4F4"/>
<path d="M81.2532 95.9847C79.6419 95.9847 78.2609 97.3658 78.2609 98.977C78.2609 100.588 79.6419 101.969 81.2532 101.969C82.8644 101.969 84.2455 100.588 84.2455 98.977C84.2455 97.1356 82.8644 95.9847 81.2532 95.9847Z" fill="#F4F4F4"/>
<path d="M90 95.9847C88.3887 95.9847 87.0077 97.3658 87.0077 98.977C87.0077 100.588 88.3887 101.969 90 101.969C91.6112 101.969 92.9923 100.588 92.9923 98.977C92.9923 97.1356 91.6112 95.9847 90 95.9847Z" fill="#F4F4F4"/>
<path d="M98.977 95.9847C97.3658 95.9847 95.9847 97.3658 95.9847 98.977C95.9847 100.588 97.3658 101.969 98.977 101.969C100.588 101.969 101.969 100.588 101.969 98.977C101.739 97.1356 100.588 95.9847 98.977 95.9847Z" fill="#F4F4F4"/>
<path d="M107.724 95.9847C106.113 95.9847 104.731 97.3658 104.731 98.977C104.731 100.588 106.113 101.969 107.724 101.969C109.335 101.969 110.716 100.588 110.716 98.977C110.716 97.1356 109.335 95.9847 107.724 95.9847Z" fill="#F4F4F4"/>
<path d="M116.471 95.9847C114.859 95.9847 113.478 97.3658 113.478 98.977C113.478 100.588 114.859 101.969 116.471 101.969C118.082 101.969 119.463 100.588 119.463 98.977C119.463 97.1356 118.312 95.9847 116.471 95.9847Z" fill="#F4F4F4"/>
<path d="M125.448 95.9847C123.836 95.9847 122.455 97.3658 122.455 98.977C122.455 100.588 123.836 101.969 125.448 101.969C127.059 101.969 128.44 100.588 128.44 98.977C128.44 97.1356 127.059 95.9847 125.448 95.9847Z" fill="#F4F4F4"/>
<path d="M134.194 95.9847C132.583 95.9847 131.202 97.3658 131.202 98.977C131.202 100.588 132.583 101.969 134.194 101.969C135.806 101.969 137.187 100.588 137.187 98.977C137.187 97.1356 135.806 95.9847 134.194 95.9847Z" fill="#F4F4F4"/>
<path d="M143.171 95.9847C141.56 95.9847 140.179 97.3658 140.179 98.977C140.179 100.588 141.56 101.969 143.171 101.969C144.783 101.969 146.164 100.588 146.164 98.977C145.934 97.1356 144.783 95.9847 143.171 95.9847Z" fill="#F4F4F4"/>
<path d="M151.918 95.9847C150.307 95.9847 148.926 97.3658 148.926 98.977C148.926 100.588 150.307 101.969 151.918 101.969C153.529 101.969 154.911 100.588 154.911 98.977C154.911 97.1356 153.529 95.9847 151.918 95.9847Z" fill="#F4F4F4"/>
<path d="M160.665 95.9847C159.054 95.9847 157.673 97.3658 157.673 98.977C157.673 100.588 159.054 101.969 160.665 101.969C162.276 101.969 163.657 100.588 163.657 98.977C163.657 97.1356 162.506 95.9847 160.665 95.9847Z" fill="#F4F4F4"/>
<path d="M169.642 95.9847C168.031 95.9847 166.65 97.3658 166.65 98.977C166.65 100.588 168.031 101.969 169.642 101.969C171.253 101.969 172.634 100.588 172.634 98.977C172.634 97.1356 171.253 95.9847 169.642 95.9847Z" fill="#F4F4F4"/>
<path d="M178.389 97.1356C177.468 97.1356 176.777 97.8261 176.777 98.7468C176.777 99.6675 177.468 100.358 178.389 100.358C179.309 100.358 180 99.6675 180 98.7468C180 98.0563 179.309 97.1356 178.389 97.1356Z" fill="#F4F4F4"/>
<path d="M1.61127 106.573C0.920731 106.573 0.230194 107.033 0.230194 107.954C0.230194 108.644 0.690552 109.335 1.61127 109.335C2.30181 109.335 2.99234 108.875 2.99234 107.954C2.99234 107.033 2.30181 106.573 1.61127 106.573Z" fill="#F4F4F4"/>
<path d="M10.5882 104.731C8.97696 104.731 7.59589 106.113 7.59589 107.724C7.59589 109.335 8.97696 110.716 10.5882 110.716C12.1995 110.716 13.5805 109.335 13.5805 107.724C13.5805 106.113 12.1995 104.731 10.5882 104.731Z" fill="#F4F4F4"/>
<path d="M19.335 104.731C17.7238 104.731 16.3427 106.113 16.3427 107.724C16.3427 109.335 17.7238 110.716 19.335 110.716C20.9463 110.716 22.3274 109.335 22.3274 107.724C22.3274 106.113 20.9463 104.731 19.335 104.731Z" fill="#F4F4F4"/>
<path d="M28.0818 104.731C26.4706 104.731 25.0895 106.113 25.0895 107.724C25.0895 109.335 26.4706 110.716 28.0818 110.716C29.6931 110.716 31.0742 109.335 31.0742 107.724C31.0742 106.113 29.9233 104.731 28.0818 104.731Z" fill="#F4F4F4"/>
<path d="M37.0588 104.731C35.4475 104.731 34.0665 106.113 34.0665 107.724C34.0665 109.335 35.4475 110.716 37.0588 110.716C38.67 110.716 40.0511 109.335 40.0511 107.724C40.0511 106.113 38.67 104.731 37.0588 104.731Z" fill="#F4F4F4"/>
<path d="M45.8056 104.731C44.1944 104.731 42.8133 106.113 42.8133 107.724C42.8133 109.335 44.1944 110.716 45.8056 110.716C47.4169 110.716 48.798 109.335 48.798 107.724C48.798 106.113 47.4169 104.731 45.8056 104.731Z" fill="#F4F4F4"/>
<path d="M54.7826 104.731C53.1714 104.731 51.7903 106.113 51.7903 107.724C51.7903 109.335 53.1714 110.716 54.7826 110.716C56.3939 110.716 57.7749 109.335 57.7749 107.724C57.7749 106.113 56.3939 104.731 54.7826 104.731Z" fill="#F4F4F4"/>
<path d="M63.5294 104.731C61.9181 104.731 60.537 106.113 60.537 107.724C60.537 109.335 61.9181 110.716 63.5294 110.716C65.1406 110.716 66.5217 109.335 66.5217 107.724C66.5217 106.113 65.1406 104.731 63.5294 104.731Z" fill="#F4F4F4"/>
<path d="M72.2762 104.731C70.665 104.731 69.2839 106.113 69.2839 107.724C69.2839 109.335 70.665 110.716 72.2762 110.716C73.8875 110.716 75.2686 109.335 75.2686 107.724C75.2686 106.113 74.1177 104.731 72.2762 104.731Z" fill="#F4F4F4"/>
<path d="M81.2532 104.731C79.6419 104.731 78.2609 106.113 78.2609 107.724C78.2609 109.335 79.6419 110.716 81.2532 110.716C82.8644 110.716 84.2455 109.335 84.2455 107.724C84.2455 106.113 82.8644 104.731 81.2532 104.731Z" fill="#F4F4F4"/>
<path d="M90 104.731C88.3887 104.731 87.0077 106.113 87.0077 107.724C87.0077 109.335 88.3887 110.716 90 110.716C91.6112 110.716 92.9923 109.335 92.9923 107.724C92.9923 106.113 91.6112 104.731 90 104.731Z" fill="#F4F4F4"/>
<path d="M98.977 104.731C97.3658 104.731 95.9847 106.113 95.9847 107.724C95.9847 109.335 97.3658 110.716 98.977 110.716C100.588 110.716 101.969 109.335 101.969 107.724C101.969 106.113 100.588 104.731 98.977 104.731Z" fill="#F4F4F4"/>
<path d="M107.724 104.731C106.113 104.731 104.731 106.113 104.731 107.724C104.731 109.335 106.113 110.716 107.724 110.716C109.335 110.716 110.716 109.335 110.716 107.724C110.716 106.113 109.335 104.731 107.724 104.731Z" fill="#F4F4F4"/>
<path d="M116.471 104.731C114.859 104.731 113.478 106.113 113.478 107.724C113.478 109.335 114.859 110.716 116.471 110.716C118.082 110.716 119.463 109.335 119.463 107.724C119.463 106.113 118.312 104.731 116.471 104.731Z" fill="#F4F4F4"/>
<path d="M125.448 104.731C123.836 104.731 122.455 106.113 122.455 107.724C122.455 109.335 123.836 110.716 125.448 110.716C127.059 110.716 128.44 109.335 128.44 107.724C128.44 106.113 127.059 104.731 125.448 104.731Z" fill="#F4F4F4"/>
<path d="M134.194 104.731C132.583 104.731 131.202 106.113 131.202 107.724C131.202 109.335 132.583 110.716 134.194 110.716C135.806 110.716 137.187 109.335 137.187 107.724C137.187 106.113 135.806 104.731 134.194 104.731Z" fill="#F4F4F4"/>
<path d="M143.171 104.731C141.56 104.731 140.179 106.113 140.179 107.724C140.179 109.335 141.56 110.716 143.171 110.716C144.783 110.716 146.164 109.335 146.164 107.724C146.164 106.113 144.783 104.731 143.171 104.731Z" fill="#F4F4F4"/>
<path d="M151.918 104.731C150.307 104.731 148.926 106.113 148.926 107.724C148.926 109.335 150.307 110.716 151.918 110.716C153.529 110.716 154.911 109.335 154.911 107.724C154.911 106.113 153.529 104.731 151.918 104.731Z" fill="#F4F4F4"/>
<path d="M160.665 104.731C159.054 104.731 157.673 106.113 157.673 107.724C157.673 109.335 159.054 110.716 160.665 110.716C162.276 110.716 163.657 109.335 163.657 107.724C163.657 106.113 162.506 104.731 160.665 104.731Z" fill="#F4F4F4"/>
<path d="M169.642 104.731C168.031 104.731 166.65 106.113 166.65 107.724C166.65 109.335 168.031 110.716 169.642 110.716C171.253 110.716 172.634 109.335 172.634 107.724C172.634 106.113 171.253 104.731 169.642 104.731Z" fill="#F4F4F4"/>
<path d="M178.389 106.573C177.928 106.573 177.238 107.033 177.238 107.724C177.238 108.414 177.698 108.875 178.389 108.875C178.849 108.875 179.54 108.414 179.54 107.724C179.54 107.033 179.079 106.573 178.389 106.573Z" fill="#F4F4F4"/>
<path d="M1.61127 116.01C1.15091 116.01 1.15091 116.24 1.15091 116.471C1.15091 116.701 1.38109 116.931 1.61127 116.931C1.84145 116.931 2.3018 116.931 2.3018 116.471C2.3018 116.01 2.07163 116.01 1.61127 116.01Z" fill="#F4F4F4"/>
<path d="M10.5882 113.708C8.97696 113.708 7.59589 115.09 7.59589 116.701C7.59589 118.312 8.97696 119.693 10.5882 119.693C12.1995 119.693 13.5805 118.312 13.5805 116.701C13.5805 115.09 12.1995 113.708 10.5882 113.708Z" fill="#F4F4F4"/>
<path d="M19.335 113.708C17.7238 113.708 16.3427 115.09 16.3427 116.701C16.3427 118.312 17.7238 119.693 19.335 119.693C20.9463 119.693 22.3274 118.312 22.3274 116.701C22.3274 115.09 20.9463 113.708 19.335 113.708Z" fill="#F4F4F4"/>
<path d="M28.0818 113.708C26.4706 113.708 25.0895 115.09 25.0895 116.701C25.0895 118.312 26.4706 119.693 28.0818 119.693C29.6931 119.693 31.0742 118.312 31.0742 116.701C31.0742 115.09 29.9233 113.708 28.0818 113.708Z" fill="#F4F4F4"/>
<path d="M37.0588 113.708C35.4475 113.708 34.0665 115.09 34.0665 116.701C34.0665 118.312 35.4475 119.693 37.0588 119.693C38.67 119.693 40.0511 118.312 40.0511 116.701C40.0511 115.09 38.67 113.708 37.0588 113.708Z" fill="#F4F4F4"/>
<path d="M45.8056 113.708C44.1944 113.708 42.8133 115.09 42.8133 116.701C42.8133 118.312 44.1944 119.693 45.8056 119.693C47.4169 119.693 48.798 118.312 48.798 116.701C48.798 115.09 47.4169 113.708 45.8056 113.708Z" fill="#F4F4F4"/>
<path d="M54.7826 113.708C53.1714 113.708 51.7903 115.09 51.7903 116.701C51.7903 118.312 53.1714 119.693 54.7826 119.693C56.3939 119.693 57.7749 118.312 57.7749 116.701C57.7749 115.09 56.3939 113.708 54.7826 113.708Z" fill="#F4F4F4"/>
<path d="M63.5294 113.708C61.9181 113.708 60.537 115.09 60.537 116.701C60.537 118.312 61.9181 119.693 63.5294 119.693C65.1406 119.693 66.5217 118.312 66.5217 116.701C66.5217 115.09 65.1406 113.708 63.5294 113.708Z" fill="#F4F4F4"/>
<path d="M72.2762 113.708C70.665 113.708 69.2839 115.09 69.2839 116.701C69.2839 118.312 70.665 119.693 72.2762 119.693C73.8875 119.693 75.2686 118.312 75.2686 116.701C75.2686 115.09 74.1177 113.708 72.2762 113.708Z" fill="#F4F4F4"/>
<path d="M81.2532 113.708C79.6419 113.708 78.2609 115.09 78.2609 116.701C78.2609 118.312 79.6419 119.693 81.2532 119.693C82.8644 119.693 84.2455 118.312 84.2455 116.701C84.2455 115.09 82.8644 113.708 81.2532 113.708Z" fill="#F4F4F4"/>
<path d="M90 113.708C88.3887 113.708 87.0077 115.09 87.0077 116.701C87.0077 118.312 88.3887 119.693 90 119.693C91.6112 119.693 92.9923 118.312 92.9923 116.701C92.9923 115.09 91.6112 113.708 90 113.708Z" fill="#F4F4F4"/>
<path d="M98.977 113.708C97.3658 113.708 95.9847 115.09 95.9847 116.701C95.9847 118.312 97.3658 119.693 98.977 119.693C100.588 119.693 101.969 118.312 101.969 116.701C101.969 115.09 100.588 113.708 98.977 113.708Z" fill="#F4F4F4"/>
<path d="M107.724 113.708C106.113 113.708 104.731 115.09 104.731 116.701C104.731 118.312 106.113 119.693 107.724 119.693C109.335 119.693 110.716 118.312 110.716 116.701C110.716 115.09 109.335 113.708 107.724 113.708Z" fill="#F4F4F4"/>
<path d="M116.471 113.708C114.859 113.708 113.478 115.09 113.478 116.701C113.478 118.312 114.859 119.693 116.471 119.693C118.082 119.693 119.463 118.312 119.463 116.701C119.463 115.09 118.312 113.708 116.471 113.708Z" fill="#F4F4F4"/>
<path d="M125.448 113.708C123.836 113.708 122.455 115.09 122.455 116.701C122.455 118.312 123.836 119.693 125.448 119.693C127.059 119.693 128.44 118.312 128.44 116.701C128.44 115.09 127.059 113.708 125.448 113.708Z" fill="#F4F4F4"/>
<path d="M134.194 113.708C132.583 113.708 131.202 115.09 131.202 116.701C131.202 118.312 132.583 119.693 134.194 119.693C135.806 119.693 137.187 118.312 137.187 116.701C137.187 115.09 135.806 113.708 134.194 113.708Z" fill="#F4F4F4"/>
<path d="M143.171 113.708C141.56 113.708 140.179 115.09 140.179 116.701C140.179 118.312 141.56 119.693 143.171 119.693C144.783 119.693 146.164 118.312 146.164 116.701C146.164 115.09 144.783 113.708 143.171 113.708Z" fill="#F4F4F4"/>
<path d="M151.918 113.708C150.307 113.708 148.926 115.09 148.926 116.701C148.926 118.312 150.307 119.693 151.918 119.693C153.529 119.693 154.911 118.312 154.911 116.701C154.911 115.09 153.529 113.708 151.918 113.708Z" fill="#F4F4F4"/>
<path d="M160.665 113.708C159.054 113.708 157.673 115.09 157.673 116.701C157.673 118.312 159.054 119.693 160.665 119.693C162.276 119.693 163.657 118.312 163.657 116.701C163.657 115.09 162.506 113.708 160.665 113.708Z" fill="#F4F4F4"/>
<path d="M169.642 119.233C171.253 119.233 172.404 118.082 172.404 116.471C172.404 114.859 171.253 113.708 169.642 113.708C168.031 113.708 166.88 114.859 166.88 116.471C166.88 118.082 168.031 119.233 169.642 119.233Z" fill="#F4F4F4"/>
<path d="M178.389 117.161C178.619 117.161 178.849 116.931 178.849 116.701C178.849 116.471 178.619 116.24 178.389 116.24C178.159 116.24 177.928 116.471 177.928 116.701C177.928 116.931 178.159 117.161 178.389 117.161Z" fill="#F4F4F4"/>
<path d="M10.5883 123.146C9.20718 123.146 8.28647 124.297 8.28647 125.448C8.28647 126.598 9.43736 127.749 10.5883 127.749C11.7392 127.749 12.89 126.598 12.89 125.448C12.89 124.297 11.7392 123.146 10.5883 123.146Z" fill="#F4F4F4"/>
<path d="M19.335 128.44C20.9463 128.44 22.3274 127.059 22.3274 125.448C22.3274 123.836 20.9463 122.455 19.335 122.455C17.7238 122.455 16.3427 123.836 16.3427 125.448C16.3427 127.059 17.7238 128.44 19.335 128.44Z" fill="#F4F4F4"/>
<path d="M28.0818 128.44C29.6931 128.44 31.0742 127.059 31.0742 125.448C31.0742 123.836 29.6931 122.455 28.0818 122.455C26.4706 122.455 25.0895 123.836 25.0895 125.448C25.3197 127.059 26.4706 128.44 28.0818 128.44Z" fill="#F4F4F4"/>
<path d="M37.0588 122.455C35.4475 122.455 34.0665 123.836 34.0665 125.448C34.0665 127.059 35.4475 128.44 37.0588 128.44C38.67 128.44 40.0511 127.059 40.0511 125.448C40.0511 123.836 38.67 122.455 37.0588 122.455Z" fill="#F4F4F4"/>
<path d="M45.8056 122.455C44.1944 122.455 42.8133 123.836 42.8133 125.448C42.8133 127.059 44.1944 128.44 45.8056 128.44C47.4169 128.44 48.798 127.059 48.798 125.448C48.798 123.836 47.4169 122.455 45.8056 122.455Z" fill="#F4F4F4"/>
<path d="M54.7826 122.455C53.1714 122.455 51.7903 123.836 51.7903 125.448C51.7903 127.059 53.1714 128.44 54.7826 128.44C56.3939 128.44 57.7749 127.059 57.7749 125.448C57.5448 123.836 56.3939 122.455 54.7826 122.455Z" fill="#F4F4F4"/>
<path d="M63.5294 128.44C65.1406 128.44 66.5217 127.059 66.5217 125.448C66.5217 123.836 65.1406 122.455 63.5294 122.455C61.9181 122.455 60.537 123.836 60.537 125.448C60.537 127.059 61.9181 128.44 63.5294 128.44Z" fill="#F4F4F4"/>
<path d="M72.2762 128.44C73.8875 128.44 75.2686 127.059 75.2686 125.448C75.2686 123.836 73.8875 122.455 72.2762 122.455C70.665 122.455 69.2839 123.836 69.2839 125.448C69.5141 127.059 70.665 128.44 72.2762 128.44Z" fill="#F4F4F4"/>
<path d="M81.2532 122.455C79.6419 122.455 78.2609 123.836 78.2609 125.448C78.2609 127.059 79.6419 128.44 81.2532 128.44C82.8644 128.44 84.2455 127.059 84.2455 125.448C84.2455 123.836 82.8644 122.455 81.2532 122.455Z" fill="#F4F4F4"/>
<path d="M90 122.455C88.3887 122.455 87.0077 123.836 87.0077 125.448C87.0077 127.059 88.3887 128.44 90 128.44C91.6112 128.44 92.9923 127.059 92.9923 125.448C92.9923 123.836 91.6112 122.455 90 122.455Z" fill="#F4F4F4"/>
<path d="M98.977 122.455C97.3658 122.455 95.9847 123.836 95.9847 125.448C95.9847 127.059 97.3658 128.44 98.977 128.44C100.588 128.44 101.969 127.059 101.969 125.448C101.739 123.836 100.588 122.455 98.977 122.455Z" fill="#F4F4F4"/>
<path d="M107.724 128.44C109.335 128.44 110.716 127.059 110.716 125.448C110.716 123.836 109.335 122.455 107.724 122.455C106.113 122.455 104.731 123.836 104.731 125.448C104.731 127.059 106.113 128.44 107.724 128.44Z" fill="#F4F4F4"/>
<path d="M116.471 128.44C118.082 128.44 119.463 127.059 119.463 125.448C119.463 123.836 118.082 122.455 116.471 122.455C114.859 122.455 113.478 123.836 113.478 125.448C113.708 127.059 114.859 128.44 116.471 128.44Z" fill="#F4F4F4"/>
<path d="M125.448 122.455C123.836 122.455 122.455 123.836 122.455 125.448C122.455 127.059 123.836 128.44 125.448 128.44C127.059 128.44 128.44 127.059 128.44 125.448C128.44 123.836 127.059 122.455 125.448 122.455Z" fill="#F4F4F4"/>
<path d="M134.194 122.455C132.583 122.455 131.202 123.836 131.202 125.448C131.202 127.059 132.583 128.44 134.194 128.44C135.806 128.44 137.187 127.059 137.187 125.448C137.187 123.836 135.806 122.455 134.194 122.455Z" fill="#F4F4F4"/>
<path d="M143.171 122.455C141.56 122.455 140.179 123.836 140.179 125.448C140.179 127.059 141.56 128.44 143.171 128.44C144.783 128.44 146.164 127.059 146.164 125.448C145.934 123.836 144.783 122.455 143.171 122.455Z" fill="#F4F4F4"/>
<path d="M151.918 128.44C153.529 128.44 154.911 127.059 154.911 125.448C154.911 123.836 153.529 122.455 151.918 122.455C150.307 122.455 148.926 123.836 148.926 125.448C148.926 127.059 150.307 128.44 151.918 128.44Z" fill="#F4F4F4"/>
<path d="M160.665 128.44C162.276 128.44 163.657 127.059 163.657 125.448C163.657 123.836 162.276 122.455 160.665 122.455C159.054 122.455 157.673 123.836 157.673 125.448C157.903 127.059 159.054 128.44 160.665 128.44Z" fill="#F4F4F4"/>
<path d="M169.642 123.146C168.261 123.146 167.34 124.066 167.34 125.448C167.34 126.829 168.261 127.749 169.642 127.749C171.023 127.749 171.944 126.829 171.944 125.448C171.714 124.066 170.793 123.146 169.642 123.146Z" fill="#F4F4F4"/>
<path d="M10.5883 133.274C10.1279 133.274 9.66754 133.734 9.66754 134.194C9.66754 134.655 10.1279 135.115 10.5883 135.115C11.0486 135.115 11.509 134.655 11.509 134.194C11.509 133.734 11.0486 133.274 10.5883 133.274Z" fill="#F4F4F4"/>
<path d="M19.335 137.187C20.9463 137.187 22.3274 135.806 22.3274 134.194C22.3274 132.583 20.9463 131.202 19.335 131.202C17.7238 131.202 16.3427 132.583 16.3427 134.194C16.3427 135.806 17.7238 137.187 19.335 137.187Z" fill="#F4F4F4"/>
<path d="M28.0818 137.187C29.6931 137.187 31.0742 135.806 31.0742 134.194C31.0742 132.583 29.6931 131.202 28.0818 131.202C26.4706 131.202 25.0895 132.583 25.0895 134.194C25.3197 135.806 26.4706 137.187 28.0818 137.187Z" fill="#F4F4F4"/>
<path d="M37.0588 131.202C35.4475 131.202 34.0665 132.583 34.0665 134.194C34.0665 135.806 35.4475 137.187 37.0588 137.187C38.67 137.187 40.0511 135.806 40.0511 134.194C40.0511 132.583 38.67 131.202 37.0588 131.202Z" fill="#F4F4F4"/>
<path d="M45.8056 131.202C44.1944 131.202 42.8133 132.583 42.8133 134.194C42.8133 135.806 44.1944 137.187 45.8056 137.187C47.4169 137.187 48.798 135.806 48.798 134.194C48.798 132.583 47.4169 131.202 45.8056 131.202Z" fill="#F4F4F4"/>
<path d="M54.7826 131.202C53.1714 131.202 51.7903 132.583 51.7903 134.194C51.7903 135.806 53.1714 137.187 54.7826 137.187C56.3939 137.187 57.7749 135.806 57.7749 134.194C57.5448 132.583 56.3939 131.202 54.7826 131.202Z" fill="#F4F4F4"/>
<path d="M63.5294 137.187C65.1406 137.187 66.5217 135.806 66.5217 134.194C66.5217 132.583 65.1406 131.202 63.5294 131.202C61.9181 131.202 60.537 132.583 60.537 134.194C60.537 135.806 61.9181 137.187 63.5294 137.187Z" fill="#F4F4F4"/>
<path d="M72.2762 137.187C73.8875 137.187 75.2686 135.806 75.2686 134.194C75.2686 132.583 73.8875 131.202 72.2762 131.202C70.665 131.202 69.2839 132.583 69.2839 134.194C69.5141 135.806 70.665 137.187 72.2762 137.187Z" fill="#F4F4F4"/>
<path d="M81.2532 131.202C79.6419 131.202 78.2609 132.583 78.2609 134.194C78.2609 135.806 79.6419 137.187 81.2532 137.187C82.8644 137.187 84.2455 135.806 84.2455 134.194C84.2455 132.583 82.8644 131.202 81.2532 131.202Z" fill="#F4F4F4"/>
<path d="M90 131.202C88.3887 131.202 87.0077 132.583 87.0077 134.194C87.0077 135.806 88.3887 137.187 90 137.187C91.6112 137.187 92.9923 135.806 92.9923 134.194C92.9923 132.583 91.6112 131.202 90 131.202Z" fill="#F4F4F4"/>
<path d="M98.977 131.202C97.3658 131.202 95.9847 132.583 95.9847 134.194C95.9847 135.806 97.3658 137.187 98.977 137.187C100.588 137.187 101.969 135.806 101.969 134.194C101.739 132.583 100.588 131.202 98.977 131.202Z" fill="#F4F4F4"/>
<path d="M107.724 137.187C109.335 137.187 110.716 135.806 110.716 134.194C110.716 132.583 109.335 131.202 107.724 131.202C106.113 131.202 104.731 132.583 104.731 134.194C104.731 135.806 106.113 137.187 107.724 137.187Z" fill="#F4F4F4"/>
<path d="M116.471 137.187C118.082 137.187 119.463 135.806 119.463 134.194C119.463 132.583 118.082 131.202 116.471 131.202C114.859 131.202 113.478 132.583 113.478 134.194C113.708 135.806 114.859 137.187 116.471 137.187Z" fill="#F4F4F4"/>
<path d="M125.448 131.202C123.836 131.202 122.455 132.583 122.455 134.194C122.455 135.806 123.836 137.187 125.448 137.187C127.059 137.187 128.44 135.806 128.44 134.194C128.44 132.583 127.059 131.202 125.448 131.202Z" fill="#F4F4F4"/>
<path d="M134.194 131.202C132.583 131.202 131.202 132.583 131.202 134.194C131.202 135.806 132.583 137.187 134.194 137.187C135.806 137.187 137.187 135.806 137.187 134.194C137.187 132.583 135.806 131.202 134.194 131.202Z" fill="#F4F4F4"/>
<path d="M143.171 131.202C141.56 131.202 140.179 132.583 140.179 134.194C140.179 135.806 141.56 137.187 143.171 137.187C144.783 137.187 146.164 135.806 146.164 134.194C145.934 132.583 144.783 131.202 143.171 131.202Z" fill="#F4F4F4"/>
<path d="M151.918 137.187C153.529 137.187 154.911 135.806 154.911 134.194C154.911 132.583 153.529 131.202 151.918 131.202C150.307 131.202 148.926 132.583 148.926 134.194C148.926 135.806 150.307 137.187 151.918 137.187Z" fill="#F4F4F4"/>
<path d="M160.665 137.187C162.276 137.187 163.657 135.806 163.657 134.194C163.657 132.583 162.276 131.202 160.665 131.202C159.054 131.202 157.673 132.583 157.673 134.194C157.903 135.806 159.054 137.187 160.665 137.187Z" fill="#F4F4F4"/>
<path d="M169.642 135.115C170.102 135.115 170.563 134.655 170.563 134.194C170.563 133.734 170.102 133.274 169.642 133.274C169.182 133.274 168.721 133.734 168.721 134.194C168.721 134.655 169.182 135.115 169.642 135.115Z" fill="#F4F4F4"/>
<path d="M19.3351 141.33C18.1842 141.33 17.4936 142.02 17.4936 143.171C17.4936 144.322 18.1842 145.013 19.3351 145.013C20.4859 145.013 21.1765 144.322 21.1765 143.171C21.1765 142.251 20.4859 141.33 19.3351 141.33Z" fill="#F4F4F4"/>
<path d="M28.0818 140.179C26.4706 140.179 25.0895 141.56 25.0895 143.171C25.0895 144.783 26.4706 146.164 28.0818 146.164C29.6931 146.164 31.0742 144.783 31.0742 143.171C31.0742 141.33 29.9233 140.179 28.0818 140.179Z" fill="#F4F4F4"/>
<path d="M37.0588 140.179C35.4475 140.179 34.0665 141.56 34.0665 143.171C34.0665 144.783 35.4475 146.164 37.0588 146.164C38.67 146.164 40.0511 144.783 40.0511 143.171C40.0511 141.33 38.67 140.179 37.0588 140.179Z" fill="#F4F4F4"/>
<path d="M45.8056 140.179C44.1944 140.179 42.8133 141.56 42.8133 143.171C42.8133 144.783 44.1944 146.164 45.8056 146.164C47.4169 146.164 48.798 144.783 48.798 143.171C48.798 141.33 47.4169 140.179 45.8056 140.179Z" fill="#F4F4F4"/>
<path d="M54.7826 140.179C53.1714 140.179 51.7903 141.56 51.7903 143.171C51.7903 144.783 53.1714 146.164 54.7826 146.164C56.3939 146.164 57.7749 144.783 57.7749 143.171C57.5448 141.33 56.3939 140.179 54.7826 140.179Z" fill="#F4F4F4"/>
<path d="M63.5294 140.179C61.9181 140.179 60.537 141.56 60.537 143.171C60.537 144.783 61.9181 146.164 63.5294 146.164C65.1406 146.164 66.5217 144.783 66.5217 143.171C66.5217 141.33 65.1406 140.179 63.5294 140.179Z" fill="#F4F4F4"/>
<path d="M72.2762 140.179C70.665 140.179 69.2839 141.56 69.2839 143.171C69.2839 144.783 70.665 146.164 72.2762 146.164C73.8875 146.164 75.2686 144.783 75.2686 143.171C75.2686 141.33 74.1177 140.179 72.2762 140.179Z" fill="#F4F4F4"/>
<path d="M81.2532 140.179C79.6419 140.179 78.2609 141.56 78.2609 143.171C78.2609 144.783 79.6419 146.164 81.2532 146.164C82.8644 146.164 84.2455 144.783 84.2455 143.171C84.2455 141.33 82.8644 140.179 81.2532 140.179Z" fill="#F4F4F4"/>
<path d="M90 140.179C88.3887 140.179 87.0077 141.56 87.0077 143.171C87.0077 144.783 88.3887 146.164 90 146.164C91.6112 146.164 92.9923 144.783 92.9923 143.171C92.9923 141.33 91.6112 140.179 90 140.179Z" fill="#F4F4F4"/>
<path d="M98.977 140.179C97.3658 140.179 95.9847 141.56 95.9847 143.171C95.9847 144.783 97.3658 146.164 98.977 146.164C100.588 146.164 101.969 144.783 101.969 143.171C101.739 141.33 100.588 140.179 98.977 140.179Z" fill="#F4F4F4"/>
<path d="M107.724 140.179C106.113 140.179 104.731 141.56 104.731 143.171C104.731 144.783 106.113 146.164 107.724 146.164C109.335 146.164 110.716 144.783 110.716 143.171C110.716 141.33 109.335 140.179 107.724 140.179Z" fill="#F4F4F4"/>
<path d="M116.471 140.179C114.859 140.179 113.478 141.56 113.478 143.171C113.478 144.783 114.859 146.164 116.471 146.164C118.082 146.164 119.463 144.783 119.463 143.171C119.463 141.33 118.312 140.179 116.471 140.179Z" fill="#F4F4F4"/>
<path d="M125.448 140.179C123.836 140.179 122.455 141.56 122.455 143.171C122.455 144.783 123.836 146.164 125.448 146.164C127.059 146.164 128.44 144.783 128.44 143.171C128.44 141.33 127.059 140.179 125.448 140.179Z" fill="#F4F4F4"/>
<path d="M134.194 140.179C132.583 140.179 131.202 141.56 131.202 143.171C131.202 144.783 132.583 146.164 134.194 146.164C135.806 146.164 137.187 144.783 137.187 143.171C137.187 141.33 135.806 140.179 134.194 140.179Z" fill="#F4F4F4"/>
<path d="M143.171 140.179C141.56 140.179 140.179 141.56 140.179 143.171C140.179 144.783 141.56 146.164 143.171 146.164C144.783 146.164 146.164 144.783 146.164 143.171C145.934 141.33 144.783 140.179 143.171 140.179Z" fill="#F4F4F4"/>
<path d="M151.918 140.179C150.307 140.179 148.926 141.56 148.926 143.171C148.926 144.783 150.307 146.164 151.918 146.164C153.529 146.164 154.911 144.783 154.911 143.171C154.911 141.33 153.529 140.179 151.918 140.179Z" fill="#F4F4F4"/>
<path d="M160.665 141.33C159.744 141.33 158.824 142.02 158.824 143.171C158.824 144.322 159.514 145.013 160.665 145.013C161.816 145.013 162.506 144.322 162.506 143.171C162.506 142.02 161.586 141.33 160.665 141.33Z" fill="#F4F4F4"/>
<path d="M28.0819 149.616C26.931 149.616 25.7801 150.537 25.7801 151.918C25.7801 153.069 26.7008 154.22 28.0819 154.22C29.463 154.22 30.3837 153.299 30.3837 151.918C30.3837 150.767 29.2328 149.616 28.0819 149.616Z" fill="#F4F4F4"/>
<path d="M37.0588 148.926C35.4475 148.926 34.0665 150.307 34.0665 151.918C34.0665 153.529 35.4475 154.911 37.0588 154.911C38.67 154.911 40.0511 153.529 40.0511 151.918C40.0511 150.307 38.67 148.926 37.0588 148.926Z" fill="#F4F4F4"/>
<path d="M45.8056 148.926C44.1944 148.926 42.8133 150.307 42.8133 151.918C42.8133 153.529 44.1944 154.911 45.8056 154.911C47.4169 154.911 48.798 153.529 48.798 151.918C48.798 150.307 47.4169 148.926 45.8056 148.926Z" fill="#F4F4F4"/>
<path d="M54.7826 148.926C53.1714 148.926 51.7903 150.307 51.7903 151.918C51.7903 153.529 53.1714 154.911 54.7826 154.911C56.3939 154.911 57.7749 153.529 57.7749 151.918C57.5448 150.307 56.3939 148.926 54.7826 148.926Z" fill="#F4F4F4"/>
<path d="M63.5294 148.926C61.9181 148.926 60.537 150.307 60.537 151.918C60.537 153.529 61.9181 154.911 63.5294 154.911C65.1406 154.911 66.5217 153.529 66.5217 151.918C66.5217 150.307 65.1406 148.926 63.5294 148.926Z" fill="#F4F4F4"/>
<path d="M72.2762 148.926C70.665 148.926 69.2839 150.307 69.2839 151.918C69.2839 153.529 70.665 154.911 72.2762 154.911C73.8875 154.911 75.2686 153.529 75.2686 151.918C75.2686 150.307 74.1177 148.926 72.2762 148.926Z" fill="#F4F4F4"/>
<path d="M81.2532 148.926C79.6419 148.926 78.2609 150.307 78.2609 151.918C78.2609 153.529 79.6419 154.911 81.2532 154.911C82.8644 154.911 84.2455 153.529 84.2455 151.918C84.2455 150.307 82.8644 148.926 81.2532 148.926Z" fill="#F4F4F4"/>
<path d="M90 148.926C88.3887 148.926 87.0077 150.307 87.0077 151.918C87.0077 153.529 88.3887 154.911 90 154.911C91.6112 154.911 92.9923 153.529 92.9923 151.918C92.9923 150.307 91.6112 148.926 90 148.926Z" fill="#F4F4F4"/>
<path d="M98.977 148.926C97.3658 148.926 95.9847 150.307 95.9847 151.918C95.9847 153.529 97.3658 154.911 98.977 154.911C100.588 154.911 101.969 153.529 101.969 151.918C101.739 150.307 100.588 148.926 98.977 148.926Z" fill="#F4F4F4"/>
<path d="M107.724 148.926C106.113 148.926 104.731 150.307 104.731 151.918C104.731 153.529 106.113 154.911 107.724 154.911C109.335 154.911 110.716 153.529 110.716 151.918C110.716 150.307 109.335 148.926 107.724 148.926Z" fill="#F4F4F4"/>
<path d="M116.471 148.926C114.859 148.926 113.478 150.307 113.478 151.918C113.478 153.529 114.859 154.911 116.471 154.911C118.082 154.911 119.463 153.529 119.463 151.918C119.463 150.307 118.312 148.926 116.471 148.926Z" fill="#F4F4F4"/>
<path d="M125.448 148.926C123.836 148.926 122.455 150.307 122.455 151.918C122.455 153.529 123.836 154.911 125.448 154.911C127.059 154.911 128.44 153.529 128.44 151.918C128.44 150.307 127.059 148.926 125.448 148.926Z" fill="#F4F4F4"/>
<path d="M134.194 148.926C132.583 148.926 131.202 150.307 131.202 151.918C131.202 153.529 132.583 154.911 134.194 154.911C135.806 154.911 137.187 153.529 137.187 151.918C137.187 150.307 135.806 148.926 134.194 148.926Z" fill="#F4F4F4"/>
<path d="M143.171 148.926C141.56 148.926 140.179 150.307 140.179 151.918C140.179 153.529 141.56 154.911 143.171 154.911C144.783 154.911 146.164 153.529 146.164 151.918C145.934 150.307 144.783 148.926 143.171 148.926Z" fill="#F4F4F4"/>
<path d="M151.918 149.616C150.767 149.616 149.616 150.537 149.616 151.918C149.616 153.069 150.537 154.22 151.918 154.22C153.069 154.22 154.22 153.299 154.22 151.918C154.22 150.767 153.299 149.616 151.918 149.616Z" fill="#F4F4F4"/>
<path d="M37.0588 162.506C37.9795 162.506 38.9002 161.586 38.9002 160.665C38.9002 159.744 37.9795 158.824 37.0588 158.824C36.1381 158.824 35.2174 159.744 35.2174 160.665C35.2174 161.816 35.9079 162.506 37.0588 162.506Z" fill="#F4F4F4"/>
<path d="M45.8056 157.903C44.1944 157.903 42.8133 159.284 42.8133 160.895C42.8133 162.506 44.1944 163.887 45.8056 163.887C47.4169 163.887 48.798 162.506 48.798 160.895C48.798 159.284 47.4169 157.903 45.8056 157.903Z" fill="#F4F4F4"/>
<path d="M54.7826 157.903C53.1714 157.903 51.7903 159.284 51.7903 160.895C51.7903 162.506 53.1714 163.887 54.7826 163.887C56.3939 163.887 57.7749 162.506 57.7749 160.895C57.7749 159.284 56.3939 157.903 54.7826 157.903Z" fill="#F4F4F4"/>
<path d="M63.5294 157.903C61.9181 157.903 60.537 159.284 60.537 160.895C60.537 162.506 61.9181 163.887 63.5294 163.887C65.1406 163.887 66.5217 162.506 66.5217 160.895C66.5217 159.284 65.1406 157.903 63.5294 157.903Z" fill="#F4F4F4"/>
<path d="M72.2762 157.903C70.665 157.903 69.2839 159.284 69.2839 160.895C69.2839 162.506 70.665 163.887 72.2762 163.887C73.8875 163.887 75.2686 162.506 75.2686 160.895C75.2686 159.284 74.1177 157.903 72.2762 157.903Z" fill="#F4F4F4"/>
<path d="M81.2532 157.903C79.6419 157.903 78.2609 159.284 78.2609 160.895C78.2609 162.506 79.6419 163.887 81.2532 163.887C82.8644 163.887 84.2455 162.506 84.2455 160.895C84.2455 159.284 82.8644 157.903 81.2532 157.903Z" fill="#F4F4F4"/>
<path d="M90 157.903C88.3887 157.903 87.0077 159.284 87.0077 160.895C87.0077 162.506 88.3887 163.887 90 163.887C91.6112 163.887 92.9923 162.506 92.9923 160.895C92.9923 159.284 91.6112 157.903 90 157.903Z" fill="#F4F4F4"/>
<path d="M98.977 157.903C97.3658 157.903 95.9847 159.284 95.9847 160.895C95.9847 162.506 97.3658 163.887 98.977 163.887C100.588 163.887 101.969 162.506 101.969 160.895C101.969 159.284 100.588 157.903 98.977 157.903Z" fill="#F4F4F4"/>
<path d="M107.724 157.903C106.113 157.903 104.731 159.284 104.731 160.895C104.731 162.506 106.113 163.887 107.724 163.887C109.335 163.887 110.716 162.506 110.716 160.895C110.716 159.284 109.335 157.903 107.724 157.903Z" fill="#F4F4F4"/>
<path d="M116.471 157.903C114.859 157.903 113.478 159.284 113.478 160.895C113.478 162.506 114.859 163.887 116.471 163.887C118.082 163.887 119.463 162.506 119.463 160.895C119.463 159.284 118.312 157.903 116.471 157.903Z" fill="#F4F4F4"/>
<path d="M125.448 157.903C123.836 157.903 122.455 159.284 122.455 160.895C122.455 162.506 123.836 163.887 125.448 163.887C127.059 163.887 128.44 162.506 128.44 160.895C128.44 159.284 127.059 157.903 125.448 157.903Z" fill="#F4F4F4"/>
<path d="M134.194 157.903C132.583 157.903 131.202 159.284 131.202 160.895C131.202 162.506 132.583 163.887 134.194 163.887C135.806 163.887 137.187 162.506 137.187 160.895C137.187 159.284 135.806 157.903 134.194 157.903Z" fill="#F4F4F4"/>
<path d="M143.171 158.824C142.251 158.824 141.33 159.514 141.33 160.665C141.33 161.816 142.02 162.506 143.171 162.506C144.322 162.506 145.013 161.816 145.013 160.665C145.013 159.744 144.092 158.824 143.171 158.824Z" fill="#F4F4F4"/>
<path d="M45.8056 170.563C46.266 170.563 46.7263 170.102 46.7263 169.642C46.7263 169.182 46.266 168.721 45.8056 168.721C45.3453 168.721 44.8849 169.182 44.8849 169.642C44.8849 170.102 45.3453 170.563 45.8056 170.563Z" fill="#F4F4F4"/>
<path d="M54.7826 167.34C53.4015 167.34 52.4808 168.261 52.4808 169.642C52.4808 171.023 53.4015 171.944 54.7826 171.944C56.1637 171.944 57.0844 171.023 57.0844 169.642C56.8542 168.261 55.9335 167.34 54.7826 167.34Z" fill="#F4F4F4"/>
<path d="M63.5294 172.404C65.1406 172.404 66.2915 171.253 66.2915 169.642C66.2915 168.031 65.1406 166.88 63.5294 166.88C61.9181 166.88 60.7672 168.031 60.7672 169.642C60.7672 171.023 61.9181 172.404 63.5294 172.404Z" fill="#F4F4F4"/>
<path d="M72.2762 172.634C73.8875 172.634 75.2686 171.253 75.2686 169.642C75.2686 168.031 73.8875 166.65 72.2762 166.65C70.665 166.65 69.2839 168.031 69.2839 169.642C69.5141 171.253 70.665 172.634 72.2762 172.634Z" fill="#F4F4F4"/>
<path d="M81.2532 166.65C79.6419 166.65 78.2609 168.031 78.2609 169.642C78.2609 171.253 79.6419 172.634 81.2532 172.634C82.8644 172.634 84.2455 171.253 84.2455 169.642C84.2455 168.031 82.8644 166.65 81.2532 166.65Z" fill="#F4F4F4"/>
<path d="M90 166.65C88.3887 166.65 87.0077 168.031 87.0077 169.642C87.0077 171.253 88.3887 172.634 90 172.634C91.6112 172.634 92.9923 171.253 92.9923 169.642C92.9923 168.031 91.6112 166.65 90 166.65Z" fill="#F4F4F4"/>
<path d="M98.977 166.65C97.3658 166.65 95.9847 168.031 95.9847 169.642C95.9847 171.253 97.1356 172.634 98.977 172.634C100.588 172.634 101.969 171.253 101.969 169.642C101.969 168.031 100.588 166.65 98.977 166.65Z" fill="#F4F4F4"/>
<path d="M107.724 172.634C109.335 172.634 110.716 171.253 110.716 169.642C110.716 168.031 109.335 166.65 107.724 166.65C106.113 166.65 104.731 168.031 104.731 169.642C104.731 171.253 106.113 172.634 107.724 172.634Z" fill="#F4F4F4"/>
<path d="M116.471 172.404C118.082 172.404 119.233 171.253 119.233 169.642C119.233 168.031 118.082 166.88 116.471 166.88C114.859 166.88 113.708 168.031 113.708 169.642C113.708 171.023 115.09 172.404 116.471 172.404Z" fill="#F4F4F4"/>
<path d="M125.448 167.34C124.066 167.34 123.146 168.261 123.146 169.642C123.146 171.023 124.066 171.944 125.448 171.944C126.829 171.944 127.749 171.023 127.749 169.642C127.519 168.261 126.598 167.34 125.448 167.34Z" fill="#F4F4F4"/>
<path d="M134.194 170.563C134.655 170.563 135.115 170.102 135.115 169.642C135.115 169.182 134.655 168.721 134.194 168.721C133.734 168.721 133.274 169.182 133.274 169.642C133.274 170.102 133.734 170.563 134.194 170.563Z" fill="#F4F4F4"/>
<path d="M63.5294 177.928C63.2992 177.928 63.069 178.159 63.069 178.389C63.069 178.619 63.2992 178.849 63.5294 178.849C63.7596 178.849 63.9897 178.619 63.9897 178.389C63.9897 178.159 63.9897 177.928 63.5294 177.928Z" fill="#F4F4F4"/>
<path d="M72.2762 177.238C71.8158 177.238 71.1253 177.698 71.1253 178.389C71.1253 178.849 71.5857 179.54 72.2762 179.54C72.9667 179.54 73.4271 179.079 73.4271 178.389C73.4271 177.928 73.1969 177.238 72.2762 177.238Z" fill="#F4F4F4"/>
<path d="M81.2532 180C82.1739 180 82.8645 179.309 82.8645 178.389C82.8645 177.468 82.1739 176.777 81.2532 176.777C80.3325 176.777 79.642 177.468 79.642 178.389C79.642 179.309 80.3325 180 81.2532 180Z" fill="#F4F4F4"/>
<path d="M90 176.777C89.0793 176.777 88.3887 177.468 88.3887 178.389C88.3887 179.309 89.0793 180 90 180C90.9207 180 91.6112 179.309 91.6112 178.389C91.6112 177.468 90.9207 176.777 90 176.777Z" fill="#F4F4F4"/>
<path d="M98.977 180C99.8977 180 100.588 179.309 100.588 178.389C100.588 177.468 99.8977 176.777 98.977 176.777C98.0563 176.777 97.3657 177.468 97.3657 178.389C97.1356 179.309 98.0563 180 98.977 180Z" fill="#F4F4F4"/>
<path d="M107.724 177.238C107.263 177.238 106.573 177.698 106.573 178.389C106.573 178.849 107.033 179.54 107.724 179.54C108.184 179.54 108.875 179.079 108.875 178.389C108.875 177.928 108.414 177.238 107.724 177.238Z" fill="#F4F4F4"/>
<path d="M116.471 179.079C116.701 179.079 116.931 178.849 116.931 178.619C116.931 178.389 116.701 178.159 116.471 178.159C116.24 178.159 116.01 178.389 116.01 178.619C116.01 178.849 116.24 179.079 116.471 179.079Z" fill="#F4F4F4"/>
<path d="M145.013 69.0537H43.734V145.013C43.734 147.545 45.8056 149.616 48.3376 149.616H121.995L145.013 126.598V69.0537Z" fill="#F4F4F4"/>
<path d="M145.013 126.598L121.995 149.616V126.598H145.013Z" fill="#DEDEDE"/>
<path d="M43.734 48.3376C43.734 43.2737 47.8772 39.1304 52.9412 39.1304H135.806C140.87 39.1304 145.013 43.2737 145.013 48.3376V69.0537H43.734V48.3376Z" fill="#DEDEDE"/>
<path fill-rule="evenodd" clip-rule="evenodd" d="M65.601 55.243C68.8235 55.243 71.3555 52.711 71.3555 49.4885C71.3555 46.266 68.8235 43.734 65.601 43.734C62.3785 43.734 59.8466 46.266 59.8466 49.4885C59.8466 52.711 62.3785 55.243 65.601 55.243ZM125.448 55.243C128.67 55.243 131.202 52.711 131.202 49.4885C131.202 46.266 128.67 43.734 125.448 43.734C122.225 43.734 119.693 46.266 119.693 49.4885C119.693 52.711 122.225 55.243 125.448 55.243Z" fill="#242424" fill-opacity="0.35"/>
<path fill-rule="evenodd" clip-rule="evenodd" d="M65.601 29.9233C63.7596 29.9233 62.1483 31.5345 62.1483 33.376V47.1867C62.1483 49.0281 63.7596 50.6394 65.601 50.6394C67.4425 50.6394 69.0537 49.0281 69.0537 47.1867V33.376C69.0537 31.5345 67.4425 29.9233 65.601 29.9233ZM125.448 29.9233C123.606 29.9233 121.995 31.5345 121.995 33.376V47.1867C121.995 49.0281 123.606 50.6394 125.448 50.6394C127.289 50.6394 128.9 49.0281 128.9 47.1867V33.376C128.9 31.5345 127.289 29.9233 125.448 29.9233Z" fill="#B0B0B0"/>
<path d="M33.1458 174.936C50.3076 174.936 64.2199 161.024 64.2199 143.862C64.2199 126.7 50.3076 112.788 33.1458 112.788C15.984 112.788 2.07159 126.7 2.07159 143.862C2.07159 161.024 15.984 174.936 33.1458 174.936Z" fill="#FFD500"/>
<path d="M40.7417 153.069C39.3606 154.45 37.289 155.371 34.757 155.601V159.514H31.3043V155.831C29.4629 155.601 27.8517 155.601 26.4706 154.91C25.0895 154.22 23.7084 153.76 22.7877 153.069L24.6292 148.926C25.5499 149.616 26.4706 150.077 27.6215 150.537C28.7724 150.997 30.1535 151.228 31.3043 151.458V145.703C29.6931 145.473 28.312 144.783 27.1611 144.322C26.0102 143.862 25.0895 143.171 24.1688 142.251C23.2481 141.33 23.0179 139.949 23.0179 138.568C23.0179 136.726 23.7084 135.115 25.0895 133.504C26.4706 131.893 28.5422 131.202 31.3043 130.972V126.598H34.757V130.281C37.7494 130.511 40.0512 131.202 41.8926 132.353L40.0512 136.496C38.2097 135.575 36.5985 134.885 34.757 134.655V140.639C36.3683 140.87 37.7494 141.56 38.9003 142.02C40.0512 142.481 40.9719 143.171 41.8926 144.092C42.8133 145.013 43.0435 146.164 43.0435 147.775C42.5831 149.847 42.1228 151.458 40.7417 153.069ZM29.2327 139.028C29.6931 139.258 30.3836 139.719 31.0742 139.949V134.885C30.1535 135.115 29.6931 135.345 29.2327 135.806C28.7724 136.266 28.5422 136.726 28.5422 137.417C28.5422 138.338 28.7724 138.798 29.2327 139.028ZM36.5985 149.847C37.0588 149.386 37.289 148.926 37.289 148.465C37.289 147.775 37.0588 147.315 36.5985 147.084C36.1381 146.854 35.6778 146.394 34.757 146.164V150.997C35.4476 150.767 35.9079 150.537 36.5985 149.847Z" fill="#F6A200"/>
<path d="M61.2276 90.6906H72.7366C75.4987 90.6906 77.8005 91.151 79.8721 92.0717C81.9437 92.9924 83.555 94.3735 84.7059 96.2149C85.8568 98.0563 86.3171 100.128 86.3171 102.66C86.3171 105.192 85.8568 107.264 84.7059 109.105C83.555 110.946 81.9437 112.327 79.8721 113.248C77.8005 114.169 75.4987 114.629 72.7366 114.629H61.2276V90.6906ZM72.2762 109.335C74.3478 109.335 75.9591 108.645 77.3402 107.494C78.4911 106.343 79.1816 104.732 79.1816 102.66C79.1816 100.588 78.4911 98.9771 77.3402 97.8262C76.1893 96.6753 74.3478 95.9847 72.2762 95.9847H67.9028V109.335H72.2762Z" fill="#DEDEDE"/>
<path d="M106.343 105.192H100.588V110.946H95.2942V105.192H89.3095V100.128H95.2942V94.3734H100.588V100.128H106.343V105.192Z" fill="#DEDEDE"/>
<path d="M127.519 109.335V114.859H108.645V110.486L117.622 101.969C118.542 101.049 119.003 100.358 119.463 99.8977C119.693 99.2072 119.923 98.7468 119.923 98.0563C119.923 97.3658 119.693 96.6752 119.233 96.2149C118.772 95.7545 117.852 95.5243 116.931 95.5243C116.01 95.5243 115.32 95.7545 114.399 96.2149C113.708 96.6752 113.018 97.1356 112.558 98.0563L107.494 95.2942C108.414 93.6829 109.795 92.532 111.407 91.6113C113.018 90.6906 115.09 90.2302 117.391 90.2302C119.233 90.2302 120.844 90.4604 122.225 91.1509C123.606 91.8415 124.757 92.532 125.448 93.6829C126.138 94.8338 126.599 95.9847 126.599 97.596C126.599 98.977 126.368 100.128 125.678 101.279C125.217 102.43 124.067 103.811 122.455 105.192L117.852 109.335H127.519Z" fill="#DEDEDE"/>
</svg>
