<?xml version="1.0" encoding="utf-8"?>
<!-- Generator: Adobe Illustrator 23.0.3, SVG Export Plug-In . SVG Version: 6.00 Build 0)  -->
<svg version="1.1" id="Camada_1" xmlns="http://www.w3.org/2000/svg" xmlns:xlink="http://www.w3.org/1999/xlink" x="0px" y="0px"
	 viewBox="0 0 200 200" style="enable-background:new 0 0 200 200;" xml:space="preserve">
<style type="text/css">
	.st0{fill:#FFFFFF;}
</style>
<g>
	<path class="st0" d="M54.9,116.2c7.4,0,13.1-6.2,13.1-13.6c0-2.3-0.5-4.6-1.7-6.2l12.5-13.1c1.7,1.1,3.9,1.1,5.7,1.1
		c2.3,0,4.6-0.5,6.9-1.7l11.3,10.8c-0.5,1.7-1.1,3.4-1.1,5.7c0,7.4,6.2,13.6,13.1,13.6c7.4,0,13.1-6.2,13.1-13.6
		c0-2.3-0.5-4.6-1.7-6.9l22.5-33.1l1.7,12c0,2.3,2.3,3.4,3.9,3.4h0.5c2.3-0.5,3.9-2.3,3.4-4.6l-2.8-22.2c0-0.5,0-0.5-0.5-1.1v-0.5
		c0-0.5-0.5-0.5-1.1-1.1c-0.5,0-0.5-0.5-1.1-0.5h-1.7L128.9,49c-2.3,0.5-3.4,2.8-3.4,4.6c0,1.8,2.8,3.4,4.6,3.4l12-2.3l-22.2,32.5
		c-1.7-0.5-3.4-1.1-5.7-1.1c-2.3,0-4.6,0.5-6.9,1.7L95.9,76.9c0.5-1.7,1.1-3.4,1.1-5.7c0-7.4-6.2-13.6-13.1-13.6
		c-7.4,0-13.1,6.2-13.1,13.6c0,2.3,0.5,4.6,1.7,6.9L60,91.2c-1.7-1.1-3.9-1.7-6.2-1.7c-7.4,0-13.1,6.2-13.1,13.6
		S47.5,116.2,54.9,116.2z M120.4,99.1c0,2.8-2.3,5.7-5.7,5.7c-3.4,0-5.7-2.3-5.7-5.7s2.3-5.7,5.7-5.7
		C118.1,93.5,120.4,96.3,120.4,99.1z M84.5,65.5c2.8,0,5.7,2.3,5.7,5.7c0,2.8-2.3,5.7-5.7,5.7s-5.7-2.3-5.7-5.7
		C79.4,67.8,81.7,65.5,84.5,65.5z M54.9,97.5c2.8,0,5.7,2.3,5.7,5.7s-2.3,5.7-5.7,5.7s-5.7-2.3-5.7-5.7S51.5,97.5,54.9,97.5z"/>
	<path class="st0" d="M192.7,14.3h-88.8V3.9c0-2.3-1.7-3.9-3.9-3.9c-2.3,0-3.9,1.7-3.9,3.9v10.3H7c-2.3,0-3.9,1.7-3.9,3.9
		s1.7,3.9,3.9,3.9h9.2v114c0,2.3,1.7,3.9,3.9,3.9h75.8v20l-50.1,32.5c-1.7,1.1-2.3,3.9-1.1,5.7c0.5,1.1,2.3,1.7,3.4,1.7
		c0.5,0,1.7,0,2.3-0.5l45.6-30.2V187c0,2.3,1.7,3.9,3.9,3.9c2.3,0,3.9-1.7,3.9-3.9v-17.7l45.6,30.2c0.5,0.5,1.7,0.5,2.3,0.5
		c1.1,0,2.8-0.5,3.4-1.7c1.1-1.7,0.5-4.6-1.1-5.7l-50.1-32.5v-20h75.8c2.3,0,3.9-1.7,3.9-3.9v-114h9.2c2.3,0,3.9-1.7,3.9-3.9
		S195,14.3,192.7,14.3L192.7,14.3z M175.7,132.2H24.1V22.8h151.5v109.4H175.7z"/>
</g>
</svg>
