<?xml version="1.0" encoding="utf-8"?>
<!-- Generator: Adobe Illustrator 23.0.3, SVG Export Plug-In . SVG Version: 6.00 Build 0)  -->
<svg version="1.1" id="Camada_1" xmlns="http://www.w3.org/2000/svg" xmlns:xlink="http://www.w3.org/1999/xlink" x="0px" y="0px"
	 viewBox="0 0 166 166" style="enable-background:new 0 0 166 166;" xml:space="preserve">
<style type="text/css">
	.st0{fill:#FFFFFF;}
</style>
<g>
	<path class="st0" d="M18.4,166h129.3c4.5,0,7.8-3.8,7.8-8.2V12.9c0-4.5-3.3-7.9-7.8-7.9H127c-1.4,0-2.6,1.1-2.6,2.5
		s1.2,2.5,2.6,2.5h20.7c1.6,0,2.8,1.3,2.8,2.9v144.8c0,1.6-1.2,2.2-2.8,2.2H18.4c-1.6,0-2.9-0.6-2.9-2.2V12.9c0-1.6,1.3-2.9,2.9-2.9
		h20.7c1.4,0,2.6-1.1,2.6-2.5S40.5,5,39.1,5H18.4c-4.5,0-7.9,3.4-7.9,7.9v144.8C10.5,162.2,13.9,166,18.4,166z"/>
	<path class="st0" d="M39.1,26c1.4,0,2.6-1.1,2.6-2.5S40.5,21,39.1,21H28.7c-1.4,0-2.2,0.8-2.2,2.3v124.1c0,1.4,0.8,2.6,2.2,2.6
		h108.6c1.4,0,2.2-1.2,2.2-2.6V23.3c0-1.4-0.7-2.3-2.2-2.3H127c-1.4,0-2.6,1.1-2.6,2.5s1.2,2.5,2.6,2.5h7.5v119h-103V26H39.1z"/>
	<path class="st0" d="M57.2,36h51.7c6.3,0,10.6-3.9,10.6-10.1V2.6c0-1.4-1.4-2.6-2.8-2.6H49.4c-1.4,0-2.9,1.2-2.9,2.6v23.3
		C46.5,32.1,50.9,36,57.2,36z M52.5,5h62v20.9c0,3.4-2.2,5.1-5.6,5.1H57.2c-3.4,0-4.7-1.7-4.7-5.1V5z"/>
	<path class="st0" d="M54.6,83h56.9c1.4,0,2.6-1.1,2.6-2.5s-1.2-2.5-2.6-2.5H54.6c-1.4,0-2.6,1.1-2.6,2.5S53.2,83,54.6,83z"/>
	<path class="st0" d="M54.6,62h56.9c1.4,0,2.6-1.1,2.6-2.5s-1.2-2.5-2.6-2.5H54.6c-1.4,0-2.6,1.1-2.6,2.5S53.2,62,54.6,62z"/>
	<path class="st0" d="M54.6,103h56.9c1.4,0,2.6-1.1,2.6-2.5s-1.2-2.5-2.6-2.5H54.6c-1.4,0-2.6,1.1-2.6,2.5S53.2,103,54.6,103z"/>
	<path class="st0" d="M54.6,124h56.9c1.4,0,2.6-1.1,2.6-2.5s-1.2-2.5-2.6-2.5H54.6c-1.4,0-2.6,1.1-2.6,2.5S53.2,124,54.6,124z"/>
</g>
</svg>
