<svg xmlns="http://www.w3.org/2000/svg" viewBox="0 0 300.23 480.43"><defs><style>.cls-1{fill:black;}</style></defs><title>headline</title><g id="Camada_2" data-name="Camada 2"><g id="Camada_1-2" data-name="Camada 1"><path class="cls-1" d="M54.66,115.1c0,11.9-3.76,23.33-15.66,23.33-12.22,0-15.82-12.37-15.82-23.33V44.15c0-11.91,4.07-23.34,15.82-23.34,12.53,0,15.66,13.94,15.66,23.34Zm-13-70.95c0-3.61-.78-6.9-2.51-6.9s-2.66,3.14-2.66,6.9V115.1c0,4.23,1.25,6.89,2.66,6.89,1.57,0,2.51-3.29,2.51-6.89Z"/><path class="cls-1" d="M132.34,115.1c0,11.9-3.76,23.33-15.66,23.33-12.22,0-15.82-12.37-15.82-23.33V44.15c0-11.91,4.07-23.34,15.82-23.34,12.53,0,15.66,13.94,15.66,23.34Zm-13-70.95c0-3.61-.78-6.9-2.51-6.9s-2.66,3.14-2.66,6.9V115.1c0,4.23,1.26,6.89,2.66,6.89,1.57,0,2.51-3.29,2.51-6.89Z"/><path class="cls-1" d="M0,251.18V136.06H10.81c10.33,0,14.41,3.13,17.23,11.9,2.66,8.77,3,23.18,3,45.74s0,40.41-2.35,47.3c-2,6.11-5.79,10.18-16.13,10.18Zm13-16.92c2,0,5.17.47,5.17-8.77V198.55c0-23.65.31-34.77-.47-41.82-.47-4.07-2.82-3.6-4.7-3.76Z"/><path class="cls-1" d="M69.38,136.06v93c0,13-3.6,23.34-15.35,23.34-12.53,0-15.5-11.59-15.5-23.34v-93h13v93c0,4.39.47,6.9,2.5,6.9,1.88,0,2.35-3.14,2.35-6.9v-93Z"/><path class="cls-1" d="M78.78,251.18V136.06h10.8c10.34,0,14.41,3.13,17.23,11.9,2.67,8.77,3,23.18,3,45.74s0,40.41-2.35,47.3c-2,6.11-5.8,10.18-16.13,10.18Zm13-16.92c2,0,5.17.47,5.17-8.77V198.55c0-23.65.31-34.77-.47-41.82-.47-4.07-2.82-3.6-4.7-3.76Z"/><path class="cls-1" d="M148.16,136.06v93c0,13-3.6,23.34-15.35,23.34-12.53,0-15.51-11.59-15.51-23.34v-93h13v93c0,4.39.47,6.9,2.51,6.9,1.88,0,2.35-3.14,2.35-6.9v-93Z"/><path class="cls-1" d="M187.47,211.71v17.38c0,12.06-3.6,23.34-15.5,23.34-12.22,0-15.36-13.16-15.36-23.34v-71c0-10.18,3.61-23.33,15.36-23.33,12.52,0,15.5,15.19,15.5,23.33v17.39H174.78V158.14c0-2-.15-6.89-2.66-6.89-2,0-2.19,3.76-2.19,6.27v71.57c0,2.2.31,6.9,2.19,6.9,2.51,0,2.66-4.7,2.66-6.9V211.71Z"/><path class="cls-1" d="M212.84,201.06h-5v50.12h-13V136.06h13v47.61h5V136.06h13V251.18h-13Z"/><path class="cls-1" d="M0,365.18V250.06H11.43c6.58,0,10.34,2.19,13.47,6.73,3.29,5,5.33,12.69,5.33,23.81,0,5.48-.31,11.12-1.25,14.88-1.1,3.44-2.51,6.73-5.49,8.93,2.67,2.5,5,4.85,6.43,11.27C30.7,319.28,31,327,31,332.6c0,8.61-1.09,18.95-2.5,22.71s-4.7,9.87-11.44,9.87Zm13-67.67c.78,0,2.51,0,3.13-.94,1.26-1.72,1.72-6.1,1.72-14.41s-.46-12.68-1.72-14.4a4.11,4.11,0,0,0-3.13-.94Zm0,50.91c.63,0,2.35.15,3.13-.79,1.26-1.72,1.72-7,1.72-16.91,0-9.71-.15-15.35-1.72-16.92-.94-.94-2.35-.78-3.13-.78Z"/><path class="cls-1" d="M58.57,365.18l-6.73-50.12v50.12h-13V250.06H52c12.21,0,17.22,11.43,17.22,33.2,0,11-1.88,21.3-5.95,26.16l8,55.76Zm-6.73-63.44A4.15,4.15,0,0,0,55.28,300c1.41-2,1.57-7.83,1.57-16.13,0-8.46-.16-13.63-1.41-15.51a3.7,3.7,0,0,0-3.6-1.56Z"/><path class="cls-1" d="M74.7,365.18,85.2,250.06h15.19l10.34,115.12H98l-1.72-23.5H89.11l-1.72,23.5Zm18-87.09-2.35,45.74h4.85Z"/><path class="cls-1" d="M114.48,347l15.82-80.19H116.68V250.06h27.56v16.76L128,348.42h16.29v16.76H114.48Z"/><path class="cls-1" d="M150.82,250.06h13V365.18h-13Z"/><path class="cls-1" d="M173.21,250.06h13v99.45h13.47v15.67H173.21Z"/><path class="cls-1" d="M205.63,250.06h13V365.18h-13Z"/><path class="cls-1" d="M225.21,365.18,235.7,250.06h15.19l10.34,115.12H248.54l-1.72-23.5h-7.2l-1.73,23.5Zm18-87.09-2.35,45.74h4.85Z"/><path class="cls-1" d="M279.87,309.26v55.92H267.81V250.06h11l9.4,54.35V250.06h12.06V365.18h-11Z"/><path class="cls-1" d="M0,479.17V364.06H10.81c10.33,0,14.41,3.13,17.23,11.9,2.66,8.77,3,23.18,3,45.73s0,40.41-2.35,47.3c-2,6.11-5.79,10.18-16.13,10.18Zm13-16.91c2,0,5.17.47,5.17-8.77V426.55c0-23.65.31-34.77-.47-41.82-.47-4.07-2.82-3.6-4.7-3.76Z"/><path class="cls-1" d="M39.62,364.06h26v17.38h-13v30.23H62v18.48h-9.4v31.64h13v17.38h-26Z"/><path class="cls-1" d="M89.9,395.07c0-4.07,0-16.76-2.51-16.76-1.88,0-2.19,4.7-2.19,11.43,0,7.52,3.13,15.66,7.67,27.1,5.64,13.62,9.87,24.59,9.87,36.18,0,11-2,27.41-15.51,27.41-16.44,0-16.13-22.87-16.13-33.36l12.69-1.88c0,3.6,0,19.73,3.44,19.73,2.35,0,2.67-3.76,2.67-11.12,0-9.71-3.61-18.32-10.34-34.46-3.45-9.24-7-20.67-7-29.6,0-10,2-26.62,14.57-26.94,15-.31,15.66,20.83,15.66,30.39Z"/><path class="cls-1" d="M110.1,364.06h13V479.17h-13Z"/><path class="cls-1" d="M149.57,405.4V386.14c0-2.35-.32-6.89-2.51-6.89-1.72,0-2.35,4.07-2.35,6.89V458.5c0,3.6.78,6.89,2.66,6.89,2.82,0,3.14-4.07,3.14-6.89V436.1h-2.82V421.85h14.88v57.32h-6.74L154.42,475c-1.41,2.81-5.8,5.48-8.61,5.48-11.59,0-14.26-15.2-14.26-23.34V386.14c0-10.34,3.76-23.34,15.51-23.34,12.53,0,15.51,14.1,15.51,23.34V405.4Z"/><path class="cls-1" d="M183.08,423.26v55.91H171V364.06h11l9.4,54.34V364.06h12.06V479.17h-11Z"/><path class="cls-1" d="M212.84,364.06h26v17.38h-13v30.23h9.39v18.48h-9.39v31.64h13v17.38h-26Z"/><path class="cls-1" d="M266.09,479.17l-6.74-50.12v50.12h-13V364.06h13.16c12.21,0,17.23,11.43,17.23,33.2,0,11-1.88,21.3-6,26.16l8,55.75Zm-6.74-63.43A4.17,4.17,0,0,0,262.8,414c1.41-2,1.56-7.83,1.56-16.13,0-8.46-.15-13.63-1.41-15.51a3.71,3.71,0,0,0-3.6-1.57Z"/><path class="cls-1" d="M2.82,22.06v91.16c0,2.38-.37,6.39-2.82,7.69v17.33c12.3-.2,15.82-10,15.82-22.36V22.06Z"/><path class="cls-1" d="M59.2,137.18,69.69,22.06H84.88L95.22,137.18H82.54l-1.73-23.49h-7.2l-1.73,23.49Zm18-87.08L74.86,95.83h4.86Z"/><rect class="cls-1" x="69.69" width="15.19" height="13.11"/></g></g></svg>