<svg width="24" height="24" viewBox="0 0 24 24" fill="none" xmlns="http://www.w3.org/2000/svg">
<path d="M12 4C7.58875 4 4 7.58875 4 11.9999C4 16.4111 7.58875 19.9998 12 19.9998C16.4112 19.9998 20 16.4111 20 11.9999C20 7.58875 16.4112 4 12 4ZM17.2133 7.77295C18.1114 8.87846 18.6643 10.2738 18.7103 11.7949C17.0466 11.4505 15.5402 11.4909 14.2103 11.7517C13.9695 11.1886 13.7203 10.6521 13.4687 10.145C14.917 9.52113 16.1778 8.72423 17.2133 7.77295ZM16.3121 6.85703C15.2842 7.79521 14.0931 8.48986 12.8734 9.00271C11.9782 7.36568 11.1218 6.13292 10.6 5.43237C11.0518 5.33612 11.5199 5.28448 12 5.28448C13.6405 5.28448 15.1446 5.87654 16.3121 6.85703ZM9.30268 5.85188C9.69667 6.36242 10.6351 7.64073 11.6432 9.45947C9.10966 10.2849 6.65134 10.4239 5.47004 10.4369C5.96243 8.37999 7.40285 6.68867 9.30268 5.85188ZM5.2915 11.7246C5.30418 11.7246 5.31642 11.7247 5.32935 11.7247C6.1456 11.7247 7.64107 11.6698 9.40167 11.3488C10.4061 11.1656 11.3586 10.9191 12.2524 10.6135C12.485 11.0772 12.7163 11.5664 12.9406 12.079C11.6892 12.4819 10.6338 13.0617 9.79789 13.6373C8.39609 14.6026 7.41406 15.6736 6.87784 16.3358C5.88502 15.165 5.28448 13.6517 5.28448 11.9999C5.28448 11.9076 5.28773 11.8161 5.2915 11.7246ZM7.80343 17.2371C8.26507 16.6558 9.20471 15.5978 10.564 14.6695C11.4877 14.0386 12.4433 13.5698 13.4271 13.2621C13.998 14.7417 14.4853 16.3765 14.7758 18.1123C13.9291 18.4984 12.9897 18.7153 12 18.7153C10.4131 18.7153 8.95398 18.1609 7.80343 17.2371ZM15.9576 17.4207C15.6581 15.8265 15.2115 14.3275 14.6953 12.9575C15.9652 12.7433 17.2777 12.7875 18.6257 13.0903C18.335 14.862 17.3491 16.402 15.9576 17.4207Z" fill="#000000"/>
</svg>
