<svg xmlns="http://www.w3.org/2000/svg" viewBox="0 0 82.45 18.73"><defs><style>.cls-1{fill:#fbfbfb;}</style></defs><title>logo</title><g id="Camada_2" data-name="Camada 2"><g id="Camada_1-2" data-name="Camada 1"><path class="cls-1" d="M6,0,0,6V18.73H12.73l6-6V0Zm.41,1H17L12,6H1.43Zm5.3,16.73H1V7H11.73Zm1-.44V6.71l5-5V12.29Z"/><path class="cls-1" d="M53.52,9.66a14.16,14.16,0,0,0-24.24,0l-.15.26.15.26a14.16,14.16,0,0,0,24.24,0l.16-.26Zm-17.47.19a5.58,5.58,0,1,1,5.58,5.58A5.58,5.58,0,0,1,36.05,9.85Zm-5.75.07a13.06,13.06,0,0,1,8-5.71,6.56,6.56,0,0,0,.41,11.51A13.08,13.08,0,0,1,30.3,9.92Zm14.61,5.62a6.56,6.56,0,0,0,.48-11.08A13.12,13.12,0,0,1,52.5,9.92,13.07,13.07,0,0,1,44.91,15.54Z"/><circle class="cls-1" cx="41.63" cy="9.85" r="2.51"/><path class="cls-1" d="M78.42.5H67.11L63,6.7l9.79,11.8L82.45,6.7ZM75.66,7.2l-2.89,8.7-2.9-8.7Zm-5.34-1L72.77,2,75.21,6.2Zm3.32-4.7h3.92L76.13,5.8ZM69.4,5.8,68,1.5h3.92Zm-.92.4h-4l2.64-4Zm.33,1,2.77,8.3L64.7,7.2Zm7.91,0h4L74,15.46Zm.33-1,1.32-3.95,2.56,4Z"/></g></g></svg>