<svg width="24" height="24" viewBox="0 0 24 24" fill="none" xmlns="http://www.w3.org/2000/svg">
<path d="M15.5845 4H8.41533C5.98072 4 4 5.98081 4 8.41542V15.5846C4 18.0193 5.98072 20 8.41533 20H15.5845C18.0193 20 20 18.0192 20 15.5846V8.41542C20.0001 5.98081 18.0193 4 15.5845 4ZM18.5805 15.5846C18.5805 17.2365 17.2365 18.5804 15.5846 18.5804H8.41533C6.76348 18.5805 5.4196 17.2365 5.4196 15.5846V8.41542C5.4196 6.76358 6.76348 5.4196 8.41533 5.4196H15.5845C17.2364 5.4196 18.5804 6.76358 18.5804 8.41542V15.5846H18.5805Z" fill="white"/>
<path d="M12 7.87744C9.72665 7.87744 7.8772 9.72689 7.8772 12.0002C7.8772 14.2735 9.72665 16.1228 12 16.1228C14.2733 16.1228 16.1228 14.2735 16.1228 12.0002C16.1228 9.72689 14.2733 7.87744 12 7.87744ZM12 14.7032C10.5095 14.7032 9.29679 13.4906 9.29679 12.0001C9.29679 10.5096 10.5094 9.29694 12 9.29694C13.4906 9.29694 14.7032 10.5096 14.7032 12.0001C14.7032 13.4906 13.4905 14.7032 12 14.7032Z" fill="white"/>
<path d="M16.2957 6.67371C16.0222 6.67371 15.7535 6.78443 15.5603 6.97845C15.3662 7.17151 15.2546 7.44029 15.2546 7.71474C15.2546 7.98835 15.3663 8.25703 15.5603 8.45104C15.7534 8.64411 16.0222 8.75578 16.2957 8.75578C16.5701 8.75578 16.838 8.64411 17.032 8.45104C17.226 8.25703 17.3367 7.98825 17.3367 7.71474C17.3367 7.44029 17.226 7.17151 17.032 6.97845C16.8389 6.78443 16.5701 6.67371 16.2957 6.67371Z" fill="white"/>
</svg>
