<svg preserveAspectRatio="xMidYMid meet" data-bbox="24 21.5 152.2 157" viewBox="24 21.5 152.2 157" height="200" width="200" xmlns="http://www.w3.org/2000/svg" data-type="shape" role="img">
<g>
<path d="M64.7 112.7c5.8 0 10.3-4.9 10.3-10.7 0-1.8-.4-3.6-1.3-4.9l9.8-10.3c1.3.9 3.1.9 4.5.9 1.8 0 3.6-.4 5.4-1.3l8.9 8.5c-.4 1.3-.9 2.7-.9 4.5 0 5.8 4.9 10.7 10.3 10.7 5.8 0 10.3-4.9 10.3-10.7 0-1.8-.4-3.6-1.3-5.4l17.7-26 1.3 9.4c0 1.8 1.8 2.7 3.1 2.7h.4c1.8-.4 3.1-1.8 2.7-3.6l-2.2-17.4c0-.4 0-.4-.4-.9v-.4c0-.4-.4-.4-.9-.9-.4 0-.4-.4-.9-.4h-1.3L122.8 60c-1.8.4-2.7 2.2-2.7 3.6s2.2 2.7 3.6 2.7l9.4-1.8L115.7 90c-1.3-.4-2.7-.9-4.5-.9-1.8 0-3.6.4-5.4 1.3l-8.9-8.5c.4-1.3.9-2.7.9-4.5 0-5.8-4.9-10.7-10.3-10.7-5.8 0-10.3 4.9-10.3 10.7 0 1.8.4 3.6 1.3 5.4l-9.8 10.3c-1.3-.9-3.1-1.3-4.9-1.3-5.8 0-10.3 4.9-10.3 10.7s5.4 10.2 11.2 10.2zm51.4-13.4c0 2.2-1.8 4.5-4.5 4.5s-4.5-1.8-4.5-4.5 1.8-4.5 4.5-4.5c2.7.1 4.5 2.3 4.5 4.5zM87.9 72.9c2.2 0 4.5 1.8 4.5 4.5 0 2.2-1.8 4.5-4.5 4.5s-4.5-1.8-4.5-4.5c.5-2.7 2.3-4.5 4.5-4.5zM64.7 98c2.2 0 4.5 1.8 4.5 4.5s-1.8 4.5-4.5 4.5-4.5-1.8-4.5-4.5S62 98 64.7 98z"></path>
<path d="M172.9 32.7h-69.7v-8.1c0-1.8-1.3-3.1-3.1-3.1S97 22.8 97 24.6v8.1H27.1c-1.8 0-3.1 1.3-3.1 3.1s1.3 3.1 3.1 3.1h7.2v89.5c0 1.8 1.3 3.1 3.1 3.1h59.5v15.7l-39.3 25.5c-1.3.9-1.8 3.1-.9 4.5.4.9 1.8 1.3 2.7 1.3.4 0 1.3 0 1.8-.4L97 154.4v13.9c0 1.8 1.3 3.1 3.1 3.1s3.1-1.3 3.1-3.1v-13.9l35.8 23.7c.4.4 1.3.4 1.8.4.9 0 2.2-.4 2.7-1.3.9-1.3.4-3.6-.9-4.5l-39.3-25.5v-15.7h59.5c1.8 0 3.1-1.3 3.1-3.1V38.9h7.2c1.8 0 3.1-1.3 3.1-3.1s-1.5-3.1-3.3-3.1zm-13.4 92.6h-119V39.4h118.9v85.9z"></path>
</g>
</svg>