<svg preserveAspectRatio="xMidYMid meet" data-bbox="32 17 145 166" xmlns="http://www.w3.org/2000/svg" viewBox="32 17 145 166" role="img">
    <g>
        <path d="M39.9 183h129.3c4.5 0 7.8-3.8 7.8-8.2V29.9c0-4.5-3.3-7.9-7.8-7.9h-20.7c-1.4 0-2.6 1.1-2.6 2.5s1.2 2.5 2.6 2.5h20.7c1.6 0 2.8 1.3 2.8 2.9v144.8c0 1.6-1.2 2.2-2.8 2.2H39.9c-1.6 0-2.9-.6-2.9-2.2V29.9c0-1.6 1.3-2.9 2.9-2.9h20.7c1.4 0 2.6-1.1 2.6-2.5S62 22 60.6 22H39.9c-4.5 0-7.9 3.4-7.9 7.9v144.8c0 4.5 3.4 8.3 7.9 8.3z"></path>
        <path d="M60.6 43c1.4 0 2.6-1.1 2.6-2.5S62 38 60.6 38H50.2c-1.4 0-2.2.8-2.2 2.3v124.1c0 1.4.8 2.6 2.2 2.6h108.6c1.4 0 2.2-1.2 2.2-2.6V40.3c0-1.4-.7-2.3-2.2-2.3h-10.3c-1.4 0-2.6 1.1-2.6 2.5s1.2 2.5 2.6 2.5h7.5v119H53V43h7.6z"></path>
        <path d="M78.7 53h51.7c6.3 0 10.6-3.9 10.6-10.1V19.6c0-1.4-1.4-2.6-2.8-2.6H70.9c-1.4 0-2.9 1.2-2.9 2.6v23.3C68 49.1 72.4 53 78.7 53zM74 22h62v20.9c0 3.4-2.2 5.1-5.6 5.1H78.7c-3.4 0-4.7-1.7-4.7-5.1V22z"></path>
        <path d="M76.1 100H133c1.4 0 2.6-1.1 2.6-2.5S134.4 95 133 95H76.1c-1.4 0-2.6 1.1-2.6 2.5s1.2 2.5 2.6 2.5z"></path>
        <path d="M76.1 79H133c1.4 0 2.6-1.1 2.6-2.5S134.4 74 133 74H76.1c-1.4 0-2.6 1.1-2.6 2.5s1.2 2.5 2.6 2.5z"></path>
        <path d="M76.1 120H133c1.4 0 2.6-1.1 2.6-2.5s-1.2-2.5-2.6-2.5H76.1c-1.4 0-2.6 1.1-2.6 2.5s1.2 2.5 2.6 2.5z"></path>
        <path d="M76.1 141H133c1.4 0 2.6-1.1 2.6-2.5s-1.2-2.5-2.6-2.5H76.1c-1.4 0-2.6 1.1-2.6 2.5s1.2 2.5 2.6 2.5z"></path>
    </g>
</svg>