<svg preserveAspectRatio="xMidYMid meet" data-bbox="0.1 6.6 200.1 186.7" xmlns="http://www.w3.org/2000/svg" viewBox="0.1 6.6 200.1 186.7" role="img">
    <g>
        <path d="M177.2 82c-5.4 0-10.4 2-14.4 5l-30.5-28.7c5-5.3 8.4-13 8.4-21 0-17-13.7-30.7-30.8-30.7S79.1 20.2 79.1 37.2c0 13 8.4 24.4 19.8 28.7l-3.7 24.4c-7.7.3-13.7 6.3-13.7 14v1.7L39 116.7c-3-7.3-10.1-12.4-18.8-12.4-11.1 0-20.1 9-20.1 20s9 20 20.1 20c7 0 13.1-3.3 16.8-8.7l64.7 31.4c-.7 2-1 4-1 6.3 0 11 9 20 20.1 20s20.1-9 20.1-20-9-20-20.1-20c-1 0-2 0-3 .3l-12.4-39.1c2.3-2 3.7-5 4.4-8l45.2.7c1.3 11.4 10.7 20 22.4 20 12.4 0 22.8-10 22.8-22.7S189.6 82 177.2 82zm-67.7-14.1c6.7 0 13.1-2.3 18.1-6L158.5 91c-2 3-3.7 6.3-4 10l-45.2-.3c-1.3-4.3-4.4-8-8.7-9.7l3.7-23.7c1.6.6 3.2.6 5.2.6zm2.1 87.5c-3.4 1.7-6 4-8 7l-64.3-31.7c.7-2 1-4 1-6.3v-2l43.2-11c2.3 4.3 7 7 12.4 7 1.7 0 3.4-.3 4.7-.7l11 37.7z"></path>
    </g>
</svg>