<?xml version="1.0" encoding="utf-8"?>
<!-- Generator: Adobe Illustrator 23.0.3, SVG Export Plug-In . SVG Version: 6.00 Build 0)  -->
<svg version="1.1" id="Camada_1" xmlns="http://www.w3.org/2000/svg" xmlns:xlink="http://www.w3.org/1999/xlink" x="0px" y="0px"
	 viewBox="0 0 200.1 186.7" style="enable-background:new 0 0 200.1 186.7;" xml:space="preserve">
<style type="text/css">
	.st0{fill:#FFFFFF;}
</style>
<g>
	<path class="st0" d="M177.1,75.4c-5.4,0-10.4,2-14.4,5l-30.5-28.7c5-5.3,8.4-13,8.4-21c0-17-13.7-30.7-30.8-30.7S79,13.6,79,30.6
		c0,13,8.4,24.4,19.8,28.7l-3.7,24.4c-7.7,0.3-13.7,6.3-13.7,14v1.7l-42.5,10.7c-3-7.3-10.1-12.4-18.8-12.4c-11.1,0-20.1,9-20.1,20
		s9,20,20.1,20c7,0,13.1-3.3,16.8-8.7l64.7,31.4c-0.7,2-1,4-1,6.3c0,11,9,20,20.1,20s20.1-9,20.1-20s-9-20-20.1-20c-1,0-2,0-3,0.3
		l-12.4-39.1c2.3-2,3.7-5,4.4-8l45.2,0.7c1.3,11.4,10.7,20,22.4,20c12.4,0,22.8-10,22.8-22.7S189.5,75.4,177.1,75.4z M109.4,61.3
		c6.7,0,13.1-2.3,18.1-6l30.9,29.1c-2,3-3.7,6.3-4,10l-45.2-0.3c-1.3-4.3-4.4-8-8.7-9.7l3.7-23.7C105.8,61.3,107.4,61.3,109.4,61.3z
		 M111.5,148.8c-3.4,1.7-6,4-8,7l-64.3-31.7c0.7-2,1-4,1-6.3v-2l43.2-11c2.3,4.3,7,7,12.4,7c1.7,0,3.4-0.3,4.7-0.7L111.5,148.8z"/>
</g>
</svg>
