<?xml version="1.0" encoding="UTF-8"?>
<svg width="24px" height="18px" viewBox="0 0 24 18" version="1.1" xmlns="http://www.w3.org/2000/svg" xmlns:xlink="http://www.w3.org/1999/xlink">
    <!-- Generator: Sketch 49 (51002) - http://www.bohemiancoding.com/sketch -->
    <title>Group Copy</title>
    <desc>Created with Sketch.</desc>
    <defs></defs>
    <g id="Page-1" stroke="none" stroke-width="1" fill="none" fill-rule="evenodd">
        <g id="SejaCriativa/Ajuda" transform="translate(-176.000000, -1271.000000)" fill="#00B0C7">
            <g id="Group-Copy" transform="translate(176.000000, 1271.000000)">
                <path d="M18.3456,3.10736842 C18.2427611,2.83479232 18.1039659,2.57678103 17.9328,2.34 C17.7861427,2.12281523 17.6189984,1.91980596 17.4336,1.73368421 C17.2390942,1.53606636 17.0118298,1.37266668 16.7616,1.25052632 C16.5358974,1.15042993 16.3012985,1.07114501 16.0608,1.01368421 C15.8265082,0.969229077 15.5889061,0.943880339 15.3504,0.937894737 C15.0984238,0.909412101 14.8439762,0.909412101 14.592,0.937894737 C14.376551,0.942589135 14.161666,0.961579366 13.9488,0.994736842 C13.7664,1.02315789 13.536,1.06105263 13.2576,1.12736842 C12.9630031,1.19735561 12.674182,1.28919565 12.3936,1.40210526 C12.0959933,1.537983 11.8129722,1.70302222 11.5488,1.89473684 C11.2825529,2.05689551 11.0402658,2.25455085 10.8288,2.48210526 C10.656,2.67157895 10.512,2.85157895 10.3776,3.03157895 C10.2365545,3.23341016 10.1113881,3.44561026 10.0032,3.66631579 C9.91762046,3.81263388 9.84994683,3.96846131 9.8016,4.13052632 L9.7056,3.99789474 C9.46300044,3.62455695 9.17617776,3.28108213 8.8512,2.97473684 C8.56986119,2.68732174 8.26124955,2.42718446 7.9296,2.19789474 C7.69354625,2.02330817 7.43931065,1.87404426 7.1712,1.75263158 C6.87857459,1.62672697 6.57696081,1.52223452 6.2688,1.44 C5.93714267,1.36255923 5.60027524,1.30873643 5.2608,1.27894737 C4.90938953,1.25051584 4.55621047,1.25051584 4.2048,1.27894737 C3.86754526,1.31171526 3.53360977,1.37191997 3.2064,1.45894737 C2.86356789,1.53433276 2.53587389,1.66560674 2.2368,1.84736842 C1.97438443,1.9954595 1.73777176,2.18417815 1.536,2.40631579 C1.3410249,2.62329411 1.18808812,2.87376449 1.0848,3.14526316 C0.977560383,3.50139092 0.935303459,3.87349137 0.96,4.24421053 C0.960622542,4.63330495 1.02214801,5.01996951 1.1424,5.39052632 C1.26591949,5.72266862 1.41350068,6.04560801 1.584,6.35684211 C1.79110041,6.7931327 2.04537693,7.20605676 2.3424,7.58842105 C2.60342544,7.93950652 2.88553082,8.27484411 3.1872,8.59263158 C3.4464,8.88631579 3.7056,9.17052632 3.9552,9.44526316 C4.20117224,9.73784787 4.46741102,10.0132455 4.752,10.2694737 C5.0016,10.5063158 5.2608,10.7431579 5.5104,10.98 C5.7792,11.2263158 6.0576,11.4631579 6.3456,11.7 C6.6528,11.9368421 6.9024,12.1263158 7.0848,12.2589474 C7.2288,12.3536842 7.44,12.5052632 7.728,12.7136842 C8.0352,12.9505263 8.3424,13.1684211 8.6496,13.3673684 C8.9472,13.5568421 9.2448,13.7368421 9.5424,13.9168421 C9.84,14.0968421 10.128,14.2863158 10.4256,14.4757895 C10.7232,14.6652632 11.0496,14.8642105 11.3664,15.0442105 C11.6832,15.2242105 11.952,15.3663158 12.1728,15.4989474 L12.5088,15.6978947 C12.7637866,15.8443415 13.0638499,15.8948157 13.3536,15.84 C13.6313476,15.7982605 13.8749463,15.6345141 14.016,15.3947368 C14.1285849,15.199506 14.1724702,14.9729725 14.1408,14.7505263 C14.1669284,14.6846337 14.1990601,14.6212159 14.2368,14.5610526 C14.2889885,14.4278076 14.3499175,14.2980592 14.4192,14.1726316 C14.496,14.0115789 14.6016,13.7747368 14.7552,13.4715789 C14.8708988,13.2083295 15.0023299,12.9520894 15.1488,12.7042105 C15.3256385,12.4571467 15.4890683,12.2009972 15.6384,11.9368421 C15.792,11.6842105 15.936,11.4189474 16.0704,11.1410526 C16.1872678,10.9040233 16.3220485,10.6760108 16.4736,10.4589474 C16.6464,10.1842105 16.8,9.93789474 16.9248,9.72 C17.0594453,9.53756066 17.1782661,9.34424458 17.28,9.14210526 C17.3921674,8.96443325 17.4947113,8.78101797 17.5872,8.59263158 C17.712,8.35578947 17.8464,8.08105263 18,7.77789474 C18.1634925,7.47165839 18.2984475,7.15139412 18.4032,6.82105263 C18.5086019,6.50683628 18.5825551,6.18318511 18.624,5.85473684 C18.6702589,5.53468079 18.6927189,5.21171283 18.6912,4.88842105 C18.6733479,4.58668547 18.6380908,4.28619861 18.5856,3.98842105 C18.5404323,3.68655839 18.4598927,3.39089359 18.3456,3.10736842 M16.464,4.86947368 C16.4719092,5.06959296 16.4557972,5.26993292 16.416,5.46631579 C16.4032068,5.67625479 16.3612132,5.88345968 16.2912,6.08210526 C16.2110819,6.32923324 16.1049002,6.56738001 15.9744,6.79263158 C15.84,7.07684211 15.7152,7.34210526 15.5904,7.57894737 C15.4848,7.77789474 15.3984,7.93894737 15.3312,8.04315789 C15.264,8.14736842 15.168,8.29894737 15.024,8.53578947 C14.8608,8.79157895 14.7072,9.04736842 14.544,9.30315789 C14.3709298,9.55872349 14.2138374,9.82448135 14.0736,10.0989474 C13.9296,10.3515789 13.7952,10.5884211 13.6704,10.8094737 C13.5264,11.0463158 13.3824,11.2926316 13.2192,11.5484211 C13.024907,11.8539754 12.8548018,12.1738728 12.7104,12.5052632 C12.5568,12.8178947 12.4512,13.0452632 12.3936,13.1873684 L12.3648,13.2157895 C12.096,13.0642105 11.8176,12.9126316 11.5584,12.7421053 C11.2704,12.5715789 10.992,12.4010526 10.7136,12.2115789 C10.3872,12.0126316 10.0992,11.8231579 9.8304,11.6526316 C9.5616,11.4821053 9.2928,11.2831579 9.0048,11.0842105 C8.6976,10.8663158 8.4672,10.6957895 8.304,10.5726316 C8.1792,10.4968421 7.9968,10.3452632 7.7472,10.1463158 C7.4858204,9.94892237 7.23881263,9.73365586 7.008,9.50210526 C6.7488,9.26526316 6.4992,9.03789474 6.2496,8.82 C6.0384,8.61157895 5.8176,8.38421053 5.5872,8.14736842 C5.3472,7.87263158 5.0976,7.58842105 4.848,7.29473684 C4.58944591,7.01630194 4.34896737,6.72203214 4.128,6.41368421 C3.91439559,6.15018704 3.73088656,5.86424846 3.5808,5.56105263 C3.44372936,5.3166788 3.33119422,5.05966714 3.2448,4.79368421 C3.18470765,4.65287565 3.15527154,4.50117644 3.1584,4.34842105 C3.15007902,4.21149373 3.16302874,4.07411592 3.1968,3.94105263 C3.21346858,3.90068969 3.2398244,3.86492728 3.2736,3.83684211 C3.33884868,3.74733983 3.42883378,3.67827232 3.5328,3.63789474 C3.64274333,3.55718202 3.77149328,3.50505653 3.9072,3.48631579 C4.1139118,3.42531741 4.32608814,3.38407499 4.5408,3.36315789 C4.76136561,3.34895912 4.98263439,3.34895912 5.2032,3.36315789 C5.40964559,3.38328465 5.61477294,3.41491408 5.8176,3.45789474 C5.98094814,3.49530293 6.13895707,3.55258329 6.288,3.62842105 C6.43580979,3.70186123 6.57710662,3.78742524 6.7104,3.88421053 C6.92250699,4.02402165 7.11601587,4.18952266 7.2864,4.37684211 C7.49405009,4.58152164 7.68354341,4.80338603 7.8528,5.04 C8.0256,5.29578947 8.1888,5.53263158 8.3232,5.74105263 C8.4576,5.96842105 8.6016,6.18631579 8.736,6.38526316 C8.8704,6.58421053 8.976,6.73578947 9.0624,6.85894737 C9.1584,7.01052632 9.2448,7.15263158 9.312,7.27578947 C9.43240787,7.45433608 9.58937824,7.60601387 9.7728,7.72105263 C9.89691608,7.80610491 10.0441008,7.85232021 10.1952,7.85368421 C10.3368229,7.84078069 10.4741543,7.79883265 10.5984,7.73052632 C10.730497,7.66087012 10.8530805,7.57491736 10.9632,7.47473684 C11.0665674,7.38075467 11.1628247,7.27943128 11.2512,7.17157895 C11.317339,7.09677811 11.3782779,7.01765033 11.4336,6.93473684 C11.4639764,6.89677828 11.4897514,6.85544504 11.5104,6.81157895 C11.5392,6.61263158 11.5872,6.40421053 11.6352,6.18631579 C11.6832,5.96842105 11.7312,5.73157895 11.7888,5.51368421 C11.7999102,5.33916616 11.8354475,5.1670059 11.8944,5.00210526 C11.9181911,4.87801999 11.9568631,4.75717004 12.0096,4.64210526 C12.0631494,4.52697867 12.1308587,4.41879641 12.2112,4.32 C12.3072,4.19684211 12.4224,4.05473684 12.5568,3.91263158 C12.6643195,3.79884105 12.7870482,3.70003763 12.9216,3.61894737 C13.0696568,3.51351648 13.2271023,3.42156053 13.392,3.34421053 C13.5744,3.27789474 13.7568,3.23052632 13.9392,3.18315789 C14.1216,3.13578947 14.2656,3.10736842 14.3808,3.08842105 C14.5554801,3.06061602 14.7319026,3.04478865 14.9088,3.04105263 C15.0912,3.03157895 15.2544,3.02210526 15.3888,3.02210526 C15.4848,3.03157895 15.5712,3.05052632 15.6672,3.06 C15.7298654,3.06770782 15.7912073,3.08363804 15.8496,3.10736842 C15.8710719,3.13086966 15.8903501,3.15623576 15.9072,3.18315789 C15.9830314,3.24474943 16.0479218,3.31839141 16.0992,3.40105263 C16.1636176,3.49503956 16.2152585,3.59696234 16.2528,3.70421053 C16.3128662,3.86723238 16.3578499,4.03528702 16.3872,4.20631579 C16.416,4.43368421 16.4448,4.66105263 16.464,4.86947368 M23.7888,15.6031579 C23.7796957,15.6066975 23.7724743,15.6137867 23.7688401,15.6227527 C23.7652059,15.6317186 23.7654808,15.641767 23.7696,15.6505263 C23.6672558,16.1394548 23.3557401,16.5608577 22.9152,16.8063158 C22.4677868,17.0790827 21.9274045,17.1611245 21.4176,17.0336842 L21.1584,16.9673684 C20.6307383,16.7841541 20.1653056,16.4593572 19.8144,16.0294737 C19.3591716,15.5578585 19.1976312,14.8803452 19.392,14.2578947 C19.517117,13.9123186 19.7363475,13.6074676 20.0256,13.3768421 C20.3195737,13.1211243 20.6775711,12.947752 21.0624,12.8747368 C21.7648447,12.5929982 22.5689851,12.7369462 23.1264,13.2442105 L23.2224,13.32 C23.5611921,13.5944886 23.8004074,13.970202 23.904,14.3905263 C24.0113608,14.7955236 23.9705691,15.2249099 23.7888,15.6031579" id="Forma_5_copiar_15"></path>
            </g>
        </g>
    </g>
</svg>