<svg width="24" height="24" viewBox="0 0 24 24" fill="none" xmlns="http://www.w3.org/2000/svg">
<path d="M15.5845 4H8.41533C5.98072 4 4 5.98081 4 8.41542V15.5846C4 18.0193 5.98072 20 8.41533 20H15.5845C18.0193 20 20 18.0192 20 15.5846V8.41542C20.0001 5.98081 18.0193 4 15.5845 4ZM18.5805 15.5846C18.5805 17.2365 17.2365 18.5804 15.5846 18.5804H8.41533C6.76348 18.5805 5.4196 17.2365 5.4196 15.5846V8.41542C5.4196 6.76358 6.76348 5.4196 8.41533 5.4196H15.5845C17.2364 5.4196 18.5804 6.76358 18.5804 8.41542V15.5846H18.5805Z" fill="black"/>
<path d="M12.0002 7.87744C9.72689 7.87744 7.87744 9.72689 7.87744 12.0002C7.87744 14.2735 9.72689 16.1228 12.0002 16.1228C14.2736 16.1228 16.123 14.2735 16.123 12.0002C16.123 9.72689 14.2736 7.87744 12.0002 7.87744ZM12.0002 14.7032C10.5098 14.7032 9.29704 13.4906 9.29704 12.0001C9.29704 10.5096 10.5097 9.29694 12.0002 9.29694C13.4908 9.29694 14.7034 10.5096 14.7034 12.0001C14.7034 13.4906 13.4907 14.7032 12.0002 14.7032Z" fill="black"/>
<path d="M16.2959 6.67358C16.0224 6.67358 15.7537 6.78431 15.5606 6.97832C15.3665 7.17139 15.2549 7.44017 15.2549 7.71462C15.2549 7.98823 15.3666 8.25691 15.5606 8.45092C15.7536 8.64399 16.0224 8.75566 16.2959 8.75566C16.5704 8.75566 16.8382 8.64399 17.0322 8.45092C17.2262 8.25691 17.337 7.98813 17.337 7.71462C17.337 7.44017 17.2262 7.17139 17.0322 6.97832C16.8392 6.78431 16.5704 6.67358 16.2959 6.67358Z" fill="black"/>
</svg>
