<svg width="24" height="24" viewBox="0 0 24 24" fill="none" xmlns="http://www.w3.org/2000/svg">
<path d="M8.20615 8.31885H5.21826V17.2915H8.20615V8.31885Z" fill="black"/>
<path d="M18.0121 9.1386C17.3844 8.45347 16.5543 8.11084 15.5222 8.11084C15.1419 8.11084 14.7962 8.15762 14.4853 8.25123C14.1745 8.34479 13.912 8.47605 13.6976 8.64508C13.4834 8.81411 13.3128 8.97103 13.1861 9.11583C13.0657 9.25337 12.9479 9.41358 12.833 9.59482V8.31894H9.854L9.86314 8.7536C9.86926 9.04343 9.87227 9.93672 9.87227 11.4336C9.87227 12.9306 9.86625 14.8833 9.85413 17.2917H12.833V12.2846C12.833 11.9769 12.866 11.7324 12.9325 11.5512C13.0594 11.2432 13.2508 10.9854 13.5075 10.7772C13.7642 10.5688 14.0825 10.4647 14.4629 10.4647C14.9818 10.4647 15.3637 10.6442 15.6083 11.0034C15.8527 11.3625 15.9749 11.859 15.9749 12.4928V17.2914H18.9537V12.149C18.9535 10.8269 18.6399 9.82351 18.0121 9.1386Z" fill="black"/>
<path d="M6.73045 4C6.22951 4 5.82361 4.14648 5.51267 4.43916C5.20175 4.73191 5.04639 5.10149 5.04639 5.54827C5.04639 5.98879 5.19728 6.35711 5.49909 6.6528C5.80081 6.94853 6.19925 7.09647 6.6942 7.09647H6.71231C7.2194 7.09647 7.62841 6.94866 7.93923 6.6528C8.25005 6.35711 8.40243 5.98892 8.39644 5.54827C8.39041 5.10152 8.23638 4.73191 7.93466 4.43916C7.63297 4.14636 7.23142 4 6.73045 4Z" fill="black"/>
</svg>
