<svg xmlns="http://www.w3.org/2000/svg" viewBox="0 0 278.77 480.43"><defs><style>.cls-1{fill:black;}</style></defs><title>Ativo 3</title><g id="Camada_2" data-name="Camada 2"><g id="Camada_1-2" data-name="Camada 1"><path class="cls-1" d="M54.66,115.1c0,11.9-3.76,23.33-15.66,23.33-12.22,0-15.82-12.37-15.82-23.33V44.15c0-11.91,4.07-23.34,15.82-23.34,12.53,0,15.66,13.94,15.66,23.34Zm-13-70.95c0-3.61-.78-6.9-2.51-6.9s-2.66,3.14-2.66,6.9V115.1c0,4.23,1.25,6.89,2.66,6.89,1.57,0,2.51-3.29,2.51-6.89Z"/><path class="cls-1" d="M130.34,115.1c0,11.9-3.76,23.33-15.66,23.33-12.22,0-15.82-12.37-15.82-23.33V44.15c0-11.91,4.07-23.34,15.82-23.34,12.53,0,15.66,13.94,15.66,23.34Zm-13-70.95c0-3.61-.78-6.9-2.51-6.9s-2.66,3.14-2.66,6.9V115.1c0,4.23,1.26,6.89,2.66,6.89,1.57,0,2.51-3.29,2.51-6.89Z"/><path class="cls-1" d="M0,251.18V136.06H10.81c10.33,0,14.41,3.13,17.23,11.9,2.66,8.77,3,23.18,3,45.74s0,40.41-2.35,47.3c-2,6.11-5.79,10.18-16.13,10.18Zm13-16.92c2,0,5.17.47,5.17-8.77V198.55c0-23.65.31-34.77-.47-41.82-.47-4.07-2.82-3.6-4.7-3.76Z"/><path class="cls-1" d="M69.38,136.06v93c0,13-3.6,23.34-15.35,23.34-12.53,0-15.5-11.59-15.5-23.34v-93h13v93c0,4.39.47,6.9,2.5,6.9,1.88,0,2.35-3.14,2.35-6.9v-93Z"/><path class="cls-1" d="M78.78,251.18V136.06h10.8c10.34,0,14.41,3.13,17.23,11.9,2.67,8.77,3,23.18,3,45.74s0,40.41-2.35,47.3c-2,6.11-5.8,10.18-16.13,10.18Zm13-16.92c2,0,5.17.47,5.17-8.77V198.55c0-23.65.31-34.77-.47-41.82-.47-4.07-2.82-3.6-4.7-3.76Z"/><path class="cls-1" d="M148.16,136.06v93c0,13-3.6,23.34-15.35,23.34-12.53,0-15.51-11.59-15.51-23.34v-93h13v93c0,4.39.47,6.9,2.51,6.9,1.88,0,2.35-3.14,2.35-6.9v-93Z"/><path class="cls-1" d="M187.47,211.71v17.38c0,12.06-3.6,23.34-15.5,23.34-12.22,0-15.36-13.16-15.36-23.34v-71c0-10.18,3.61-23.33,15.36-23.33,12.52,0,15.5,15.19,15.5,23.33v17.39H174.78V158.14c0-2-.15-6.89-2.66-6.89-2,0-2.19,3.76-2.19,6.27v71.57c0,2.2.31,6.9,2.19,6.9,2.51,0,2.66-4.7,2.66-6.9V211.71Z"/><path class="cls-1" d="M212.84,201.06h-5v50.12h-13V136.06h13v47.61h5V136.06h13V251.18h-13Z"/><path class="cls-1" d="M0,479.17V364.06H10.81c10.33,0,14.41,3.13,17.23,11.9,2.66,8.77,3,23.18,3,45.73s0,40.41-2.35,47.3c-2,6.11-5.79,10.18-16.13,10.18Zm13-16.91c2,0,5.17.47,5.17-8.77V426.55c0-23.65.31-34.77-.47-41.82-.47-4.07-2.82-3.6-4.7-3.76Z"/><path class="cls-1" d="M39.62,364.06h26v17.38h-13v30.23H62v18.48h-9.4v31.64h13v17.38h-26Z"/><path class="cls-1" d="M89.9,395.07c0-4.07,0-16.76-2.51-16.76-1.88,0-2.19,4.7-2.19,11.43,0,7.52,3.13,15.66,7.67,27.1,5.64,13.62,9.87,24.59,9.87,36.18,0,11-2,27.41-15.51,27.41-16.44,0-16.13-22.87-16.13-33.36l12.69-1.88c0,3.6,0,19.73,3.44,19.73,2.35,0,2.67-3.76,2.67-11.12,0-9.71-3.61-18.32-10.34-34.46-3.45-9.24-7-20.67-7-29.6,0-10,2-26.62,14.57-26.94,15-.31,15.66,20.83,15.66,30.39Z"/><path class="cls-1" d="M110.1,364.06h13V479.17h-13Z"/><path class="cls-1" d="M149.57,405.4V386.14c0-2.35-.32-6.89-2.51-6.89-1.72,0-2.35,4.07-2.35,6.89V458.5c0,3.6.78,6.89,2.66,6.89,2.82,0,3.14-4.07,3.14-6.89V436.1h-2.82V421.85h14.88v57.32h-6.74L154.42,475c-1.41,2.81-5.8,5.48-8.61,5.48-11.59,0-14.26-15.2-14.26-23.34V386.14c0-10.34,3.76-23.34,15.51-23.34,12.53,0,15.51,14.1,15.51,23.34V405.4Z"/><path class="cls-1" d="M183.08,423.26v55.91H171V364.06h11l9.4,54.34V364.06h12.06V479.17h-11Z"/><path class="cls-1" d="M212.84,364.06h26v17.38h-13v30.23h9.39v18.48h-9.39v31.64h13v17.38h-26Z"/><path class="cls-1" d="M266.09,479.17l-6.74-50.12v50.12h-13V364.06h13.16c12.21,0,17.23,11.43,17.23,33.2,0,11-1.88,21.3-6,26.16l8,55.75Zm-6.74-63.43A4.17,4.17,0,0,0,262.8,414c1.41-2,1.56-7.83,1.56-16.13,0-8.46-.15-13.63-1.41-15.51a3.71,3.71,0,0,0-3.6-1.57Z"/><path class="cls-1" d="M2.82,22.06v91.16c0,2.38-.37,6.39-2.82,7.69v17.33c12.3-.2,15.82-10,15.82-22.36V22.06Z"/><path class="cls-1" d="M59.2,137.18,69.69,22.06H84.88L95.22,137.18H82.54l-1.73-23.49h-7.2l-1.73,23.49Zm18-87.08L74.86,95.83h4.86Z"/><rect class="cls-1" x="69.69" width="15.19" height="13.11"/><path class="cls-1" d="M0,250H13.14c5.17,0,8.77,1.56,12.21,6.88,3.44,5.48,5.47,14.55,5.47,27.54s-2,22.53-5.47,28c-3,4.69-7.67,6.41-12.36,6.57v46H0Zm13,51.79c1.25,0,3.28-.31,4.07-1.88,1.25-2.5,1.25-8.45,1.25-14.86s0-13.62-1.25-16.43c-.79-1.72-2.66-1.72-4.07-1.72Z"/><path class="cls-1" d="M57.42,365l-6.73-50.07V365h-13V250H50.85c12.2,0,17.21,11.42,17.21,33.17,0,11-1.88,21.28-5.94,26.13l8,55.7Zm-6.73-63.37a4.17,4.17,0,0,0,3.45-1.72c1.4-2,1.56-7.82,1.56-16.11,0-8.45-.16-13.62-1.41-15.49a3.68,3.68,0,0,0-3.6-1.57Z"/><path class="cls-1" d="M106.86,342.92c0,11.89-3.75,23.31-15.64,23.31-12.21,0-15.81-12.36-15.81-23.31V272c0-11.89,4.07-23.31,15.81-23.31,12.51,0,15.64,13.92,15.64,23.31ZM93.88,272c0-3.6-.79-6.88-2.51-6.88s-2.66,3.13-2.66,6.88v70.88c0,4.22,1.25,6.88,2.66,6.88,1.57,0,2.51-3.28,2.51-6.88Z"/><path class="cls-1" d="M114.21,365V250H125c10.33,0,14.39,3.13,17.21,11.89,2.66,8.76,3,23.16,3,45.69s0,40.37-2.34,47.25c-2,6.1-5.79,10.17-16.12,10.17Zm13-16.9c2,0,5.16.47,5.16-8.76V312.41c0-23.63.32-34.74-.47-41.78-.47-4.07-2.81-3.6-4.69-3.75Z"/><path class="cls-1" d="M183.52,250v92.94c0,13-3.59,23.31-15.33,23.31-12.52,0-15.49-11.58-15.49-23.31V250h13v92.94c0,4.38.47,6.88,2.5,6.88,1.88,0,2.35-3.13,2.35-6.88V250Z"/><path class="cls-1" d="M222.8,325.55v17.37c0,12.05-3.6,23.31-15.49,23.31-12.21,0-15.34-13.14-15.34-23.31V272c0-10.17,3.6-23.31,15.34-23.31,12.51,0,15.49,15.17,15.49,23.31v17.37H210.12V272c0-2-.15-6.88-2.66-6.88-2,0-2.19,3.75-2.19,6.25v71.51c0,2.19.32,6.88,2.19,6.88,2.51,0,2.66-4.69,2.66-6.88V325.55Z"/><path class="cls-1" d="M226.55,267.35V250h32.07v17.37h-9.54V365h-13V267.35Z"/></g></g></svg>