<svg width="51" height="26" viewBox="0 0 51 26" fill="none" xmlns="http://www.w3.org/2000/svg">
<path d="M0 21.6484C1.14992 21.8984 1.24991 20.5985 1.24991 19.8985V0H4.0997V20.4985C4.0997 23.3983 3.19976 25.6481 0 25.3481V21.6484Z" fill="white"/>
<path d="M10.0991 10.9991H37.5971V14.2489H10.0991V10.9991V10.9991Z" fill="white"/>
<path d="M43.5967 25.1481V0H45.9465C48.1963 0 49.0963 0.699948 49.6962 2.59981C50.2962 4.49967 50.3462 7.64944 50.3462 12.5991C50.3462 17.5487 50.3462 21.3984 49.8462 22.9483C49.3963 24.2982 48.5963 25.1481 46.3465 25.1481H43.5967ZM46.4465 21.4484C46.8964 21.4484 47.5964 21.5484 47.5964 19.5486C47.5964 19.5486 47.5964 19.5486 47.5964 13.649C47.5964 8.49937 47.6464 6.04955 47.4964 4.49967C47.3964 3.59973 46.8964 3.69973 46.4465 3.69973V21.4484Z" fill="white"/>
</svg>
