<?xml version="1.0" encoding="utf-8"?>
<!-- Generator: Adobe Illustrator 21.1.0, SVG Export Plug-In . SVG Version: 6.00 Build 0)  -->
<svg version="1.1" id="Camada_1" xmlns="http://www.w3.org/2000/svg" xmlns:xlink="http://www.w3.org/1999/xlink" x="0px" y="0px"
	 viewBox="0 0 51 26" style="enable-background:new 0 0 51 26;" xml:space="preserve">
<style type="text/css">
	.st0{fill:#242424;}
</style>
<path class="st0" d="M0,21.6c1.1,0.3,1.2-1,1.2-1.7V0h2.8v20.5c0,2.9-0.9,5.1-4.1,4.8V21.6z"/>
<path class="st0" d="M10.1,11h27.5v3.2H10.1V11L10.1,11z"/>
<path class="st0" d="M43.6,25.1V0h2.3c2.2,0,3.1,0.7,3.7,2.6c0.6,1.9,0.6,5,0.6,10c0,4.9,0,8.8-0.5,10.3c-0.4,1.3-1.2,2.2-3.5,2.2
	H43.6z M46.4,21.4c0.4,0,1.1,0.1,1.1-1.9c0,0,0,0,0-5.9c0-5.1,0-7.6-0.1-9.1c-0.1-0.9-0.6-0.8-1-0.8V21.4z"/>
</svg>
