<svg width="62" height="26" viewBox="0 0 62 26" fill="none" xmlns="http://www.w3.org/2000/svg">
<path d="M0 25.6334V24.3469C0.88967 24.3469 1.59204 24.2993 2.06029 24.1564C2.52854 24.0134 2.94996 23.8228 3.18408 23.4893C3.41821 23.1558 3.60551 22.727 3.65233 22.1076C3.74598 21.4882 3.74598 20.7259 3.74598 19.773V0H5.33802V19.9635C5.33802 21.25 5.24437 22.3458 5.05707 23.1558C4.86977 24.0134 4.44835 24.6328 3.7928 25.014C3.13726 25.3951 2.15394 25.6334 0.796021 25.6334H0Z" fill="#E2E2E2"/>
<path d="M15.103 13.1026V11.6732H44.228V13.1026H15.103Z" fill="#E2E2E2"/>
<path d="M53.9929 24.2516V0H55.9127C57.5048 0 58.7222 0.33352 59.6119 0.905268C60.5016 1.52466 61.1103 2.38228 61.4849 3.43049C61.8595 4.47869 62 5.66984 62 6.95627V17.0095C62 18.3912 61.8126 19.63 61.4849 20.7259C61.1103 21.8217 60.5484 22.6793 59.6587 23.2987C58.8159 23.9181 57.5984 24.2516 56.0532 24.2516H53.9929ZM55.585 22.9652H56.0064C57.3175 22.9652 58.254 22.6793 58.9095 22.1076C59.5182 21.5358 59.9397 20.8212 60.127 19.8682C60.3143 18.9153 60.4079 17.9148 60.4079 16.8189V7.09921C60.4079 5.90806 60.2674 4.9075 60.0333 4.04988C59.7992 3.19226 59.3778 2.52522 58.7222 2.04876C58.0667 1.57231 57.1302 1.33408 55.9127 1.33408H55.585V22.9652Z" fill="#E2E2E2"/>
</svg>
