<svg width="103" height="22" viewBox="0 0 103 22" fill="none" xmlns="http://www.w3.org/2000/svg">
<g clip-path="url(#clip0)">
<path d="M6.92492 0L0 6.92492V21.6173H14.6924L21.6173 14.6924V0H6.92492ZM7.39812 1.15415H19.6206L13.8498 6.92492H1.65044L7.39812 1.15415ZM13.5151 20.4631H1.15415V8.07907H13.5382L13.5151 20.4631ZM14.6693 19.9553V7.74437L20.44 1.9736V14.1845L14.6693 19.9553Z" fill="#FBFBFB"/>
<path d="M65.0263 11.0712C63.5713 8.66274 61.5192 6.67079 59.0685 5.28815C56.6179 3.90551 53.8518 3.17902 51.038 3.17902C48.2242 3.17902 45.4581 3.90551 43.0074 5.28815C40.5568 6.67079 38.5046 8.66274 37.0497 11.0712L36.8765 11.3712L37.0497 11.6713C38.5046 14.0797 40.5568 16.0717 43.0074 17.4543C45.4581 18.837 48.2242 19.5634 51.038 19.5634C53.8518 19.5634 56.6179 18.837 59.0685 17.4543C61.5192 16.0717 63.5713 14.0797 65.0263 11.6713L65.211 11.3712L65.0263 11.0712ZM44.8633 11.2904C44.8633 10.0167 45.241 8.77155 45.9486 7.71247C46.6563 6.65339 47.6621 5.82794 48.8389 5.3405C50.0157 4.85306 51.3106 4.72552 52.5599 4.97401C53.8091 5.22251 54.9567 5.83588 55.8573 6.73655C56.758 7.63723 57.3714 8.78475 57.6199 10.034C57.8684 11.2833 57.7408 12.5782 57.2534 13.755C56.7659 14.9318 55.9405 15.9376 54.8814 16.6452C53.8223 17.3529 52.5772 17.7306 51.3034 17.7306C50.4577 17.7306 49.6202 17.564 48.8389 17.2404C48.0575 16.9167 47.3476 16.4424 46.7495 15.8443C46.1515 15.2463 45.6771 14.5363 45.3535 13.755C45.0298 12.9736 44.8633 12.1362 44.8633 11.2904ZM38.2269 11.3712C40.3291 8.05599 43.6416 5.69164 47.4601 4.78102C46.2902 5.47449 45.3286 6.47031 44.6765 7.66381C44.0244 8.85731 43.7058 10.2044 43.7542 11.5636C43.8026 12.9228 44.2163 14.2438 44.9516 15.3879C45.687 16.532 46.717 17.4568 47.9333 18.0653C45.949 17.6578 44.0671 16.8551 42.3995 15.7051C40.732 14.5551 39.3129 13.0812 38.2269 11.3712ZM55.0891 17.8576C56.1976 17.2223 57.1273 16.3169 57.7917 15.2256C58.4561 14.1343 58.8335 12.8926 58.8888 11.6162C58.9441 10.3397 58.6755 9.07007 58.108 7.92539C57.5404 6.78072 56.6925 5.79828 55.6431 5.06956C59.0334 6.14148 61.9385 8.37234 63.8491 11.3712C61.8396 14.5496 58.7155 16.8629 55.0891 17.8576Z" fill="#FBFBFB"/>
<path d="M51.3035 14.1873C52.9034 14.1873 54.2004 12.8903 54.2004 11.2904C54.2004 9.69049 52.9034 8.39349 51.3035 8.39349C49.7035 8.39349 48.4065 9.69049 48.4065 11.2904C48.4065 12.8903 49.7035 14.1873 51.3035 14.1873Z" fill="#FBFBFB"/>
<path d="M98.2673 0.635803H85.2138L80.4703 7.79155L91.7694 21.4106L102.919 7.79155L98.2673 0.635803ZM95.0819 8.36863L91.7463 18.4098L88.3993 8.36863H95.0819ZM88.9187 7.21448L91.7463 2.36703L94.5625 7.21448H88.9187ZM92.7505 1.78996H97.2747L95.6243 6.75281L92.7505 1.78996ZM87.8569 6.75281L86.241 1.78996H90.7653L87.8569 6.75281ZM86.795 7.21448H82.1784L85.2254 2.59786L86.795 7.21448ZM87.1759 8.36863L90.3729 17.9481L82.4323 8.36863H87.1759ZM96.3053 8.36863H100.922L93.166 17.9019L96.3053 8.36863ZM96.6861 7.21448L98.2096 2.65557L101.164 7.27218L96.6861 7.21448Z" fill="#FBFBFB"/>
</g>
<defs>
<clipPath id="clip0">
<rect width="103" height="21.6173" fill="white"/>
</clipPath>
</defs>
</svg>
