<svg width="24" height="24" viewBox="0 0 24 24" fill="none" xmlns="http://www.w3.org/2000/svg">
<path d="M8.20621 8.31897H5.21832V17.2916H8.20621V8.31897Z" fill="white"/>
<path d="M18.012 9.13848C17.3844 8.45335 16.5542 8.11072 15.5221 8.11072C15.1419 8.11072 14.7962 8.15749 14.4853 8.25111C14.1744 8.34467 13.9119 8.47593 13.6976 8.64496C13.4834 8.81399 13.3127 8.97091 13.1861 9.11571C13.0656 9.25325 12.9478 9.41346 12.8329 9.5947V8.31882H9.85394L9.86308 8.75348C9.8692 9.04331 9.87221 9.9366 9.87221 11.4335C9.87221 12.9305 9.86618 14.8832 9.85407 17.2916H12.8329V12.2845C12.8329 11.9767 12.8659 11.7323 12.9325 11.5511C13.0593 11.2431 13.2508 10.9852 13.5075 10.7771C13.7641 10.5686 14.0824 10.4645 14.4628 10.4645C14.9818 10.4645 15.3637 10.6441 15.6082 11.0032C15.8526 11.3624 15.9748 11.8589 15.9748 12.4927V17.2913H18.9537V12.1488C18.9535 10.8268 18.6398 9.82339 18.012 9.13848Z" fill="white"/>
<path d="M6.73039 4C6.22945 4 5.82355 4.14648 5.5126 4.43916C5.20169 4.73191 5.04633 5.10149 5.04633 5.54827C5.04633 5.98879 5.19722 6.35711 5.49903 6.6528C5.80075 6.94853 6.19919 7.09647 6.69414 7.09647H6.71225C7.21934 7.09647 7.62835 6.94866 7.93917 6.6528C8.24999 6.35711 8.40237 5.98892 8.39637 5.54827C8.39035 5.10152 8.23632 4.73191 7.9346 4.43916C7.63291 4.14636 7.23136 4 6.73039 4Z" fill="white"/>
</svg>
