<svg width="8" height="8" viewBox="0 0 8 8" fill="none" xmlns="http://www.w3.org/2000/svg">
<path fill-rule="evenodd" clip-rule="evenodd" d="M4 1C2.34382 1 1 2.34382 1 4C1 5.65619 2.34382 7 4 7C5.65293 7 7 5.65619 7 4C7 2.34382 5.65293 1 4 1ZM5.98156 2.38286C6.33948 2.81887 6.55424 3.37527 6.56074 3.97722C6.47614 3.96096 5.63014 3.7885 4.77766 3.89588C4.75814 3.85358 4.74186 3.80802 4.72234 3.76248C4.67028 3.63884 4.61172 3.51194 4.55314 3.39154C5.49674 3.0076 5.92624 2.45445 5.98156 2.38286ZM4 1.44252C4.65076 1.44252 5.2462 1.68655 5.69849 2.08677C5.65293 2.15184 5.26572 2.6692 4.35466 3.01084C3.93492 2.2397 3.46964 1.60846 3.39805 1.51085C3.59001 1.46529 3.79176 1.44252 4 1.44252ZM2.90999 1.6833C2.97831 1.7744 3.43384 2.40889 3.86009 3.16377C2.66269 3.48265 1.60521 3.47614 1.49132 3.47614C1.65727 2.68221 2.19414 2.02169 2.90999 1.6833ZM1.43601 4.00326C1.43601 3.97722 1.43601 3.95119 1.43601 3.92517C1.54664 3.92841 2.78959 3.94469 4.06833 3.56074C4.14318 3.7039 4.2115 3.85032 4.27658 3.99674C4.24403 4.00651 4.20824 4.01627 4.17571 4.02602C2.85466 4.45227 2.15184 5.61713 2.09328 5.71474C1.68655 5.26248 1.43601 4.66053 1.43601 4.00326ZM4 6.56399C3.4078 6.56399 2.86117 6.36226 2.42842 6.02386C2.47397 5.92951 2.99457 4.92734 4.43926 4.423C4.44576 4.41974 4.44903 4.41974 4.45553 4.41649C4.81669 5.35032 4.96313 6.13448 5.00217 6.35899C4.69306 6.4924 4.35466 6.56399 4 6.56399ZM5.42841 6.12473C5.40239 5.96854 5.26572 5.22018 4.93058 4.29934C5.73428 4.17244 6.43709 4.3807 6.52495 4.40999C6.41433 5.12256 6.00434 5.73752 5.42841 6.12473Z" fill="black"/>
</svg>
