<svg width="8" height="9" viewBox="0 0 8 9" fill="none" xmlns="http://www.w3.org/2000/svg">
<path fill-rule="evenodd" clip-rule="evenodd" d="M2.33341 5.49992H3.33341C3.51675 5.49992 3.66675 5.64992 3.66675 5.83325C3.66675 6.01659 3.51675 6.16658 3.33341 6.16658H2.33341C1.41341 6.16658 0.666748 5.41992 0.666748 4.49992C0.666748 3.57992 1.41341 2.83325 2.33341 2.83325H3.33341C3.51675 2.83325 3.66675 2.98325 3.66675 3.16659C3.66675 3.34992 3.51675 3.49992 3.33341 3.49992H2.33341C1.78341 3.49992 1.33341 3.94992 1.33341 4.49992C1.33341 5.04992 1.78341 5.49992 2.33341 5.49992ZM5.66675 2.83325H4.66675C4.48341 2.83325 4.33341 2.98325 4.33341 3.16659C4.33341 3.34992 4.48341 3.49992 4.66675 3.49992H5.66675C6.21675 3.49992 6.66675 3.94992 6.66675 4.49992C6.66675 5.04992 6.21675 5.49992 5.66675 5.49992H4.66675C4.48341 5.49992 4.33341 5.64992 4.33341 5.83325C4.33341 6.01659 4.48341 6.16658 4.66675 6.16658H5.66675C6.58675 6.16658 7.33342 5.41992 7.33342 4.49992C7.33342 3.57992 6.58675 2.83325 5.66675 2.83325ZM2.66675 4.49992C2.66675 4.68325 2.81675 4.83325 3.00008 4.83325H5.00008C5.18341 4.83325 5.33342 4.68325 5.33342 4.49992C5.33342 4.31659 5.18341 4.16659 5.00008 4.16659H3.00008C2.81675 4.16659 2.66675 4.31659 2.66675 4.49992Z" fill="black"/>
</svg>
